# Blender v2.82 (sub 7) OBJ File: 'RaceTrack1.blend'
# www.blender.org
mtllib Cloud23.mtl
o Cloud23_Object_84_Object_40.001
v 0.175739 -0.321645 -0.081381
v 0.172379 -0.352173 0.101062
v -0.053158 -0.334553 0.070493
v -0.442516 -0.359000 0.290283
v 0.014877 -0.282070 0.210937
v -0.421879 -0.314683 0.329802
v -0.238979 -0.204339 -0.215763
v 0.056366 -0.115414 -0.308483
v 0.676697 -0.291808 -0.328056
v 0.063385 0.170002 -0.264401
v -0.329124 0.219822 -0.112868
v -0.103832 0.359526 -0.107640
v 0.434357 0.127178 0.112957
v 0.748440 0.002667 0.082070
v 0.279316 0.199657 0.032136
v -0.552608 -0.018905 0.094278
v -0.428570 0.062538 0.196943
v -0.169544 0.303549 0.061339
v -0.169544 0.303549 0.061339
v -0.000877 0.096967 0.243187
v 0.279316 0.199657 0.032136
v -0.169544 0.303549 0.061339
v -0.428570 0.062538 0.196943
v -0.000877 0.096967 0.243187
v -0.000877 0.096967 0.243187
v 0.434357 0.127178 0.112957
v 0.279316 0.199657 0.032136
v 0.279316 0.199657 0.032136
v 0.470310 0.269245 0.007408
v 0.328640 0.296976 -0.120350
v 0.470310 0.269245 0.007408
v 0.584988 0.226813 -0.059087
v 0.328640 0.296976 -0.120350
v 0.279316 0.199657 0.032136
v 0.748440 0.002667 0.082070
v 0.470310 0.269245 0.007408
v 0.748440 0.002667 0.082070
v 0.826271 -0.020093 -0.116918
v 0.470310 0.269245 0.007408
v 0.470310 0.269245 0.007408
v 0.826271 -0.020093 -0.116918
v 0.584988 0.226813 -0.059087
v 0.584988 0.226813 -0.059087
v 0.548229 0.016566 -0.313448
v 0.328640 0.296976 -0.120350
v 0.328640 0.296976 -0.120350
v 0.304661 0.151712 -0.257924
v 0.153400 0.354547 -0.164208
v 0.328640 0.296976 -0.120350
v 0.548229 0.016566 -0.313448
v 0.304661 0.151712 -0.257924
v 0.304661 0.151712 -0.257924
v 0.063385 0.170002 -0.264401
v 0.153400 0.354547 -0.164208
v 0.153400 0.354547 -0.164208
v 0.063385 0.170002 -0.264401
v -0.103832 0.359526 -0.107640
v 0.328640 0.296976 -0.120350
v -0.169544 0.303549 0.061339
v 0.279316 0.199657 0.032136
v 0.153400 0.354547 -0.164208
v -0.169544 0.303549 0.061339
v 0.328640 0.296976 -0.120350
v 0.153400 0.354547 -0.164208
v -0.103832 0.359526 -0.107640
v -0.169544 0.303549 0.061339
v -0.103832 0.359526 -0.107640
v -0.296669 0.286382 -0.013706
v -0.169544 0.303549 0.061339
v -0.103832 0.359526 -0.107640
v -0.329124 0.219822 -0.112868
v -0.296669 0.286382 -0.013706
v -0.329124 0.219822 -0.112868
v -0.462303 0.025330 -0.050895
v -0.296669 0.286382 -0.013706
v -0.296669 0.286382 -0.013706
v -0.462303 0.025330 -0.050895
v -0.169544 0.303549 0.061339
v -0.462303 0.025330 -0.050895
v -0.552608 -0.018905 0.094278
v -0.169544 0.303549 0.061339
v -0.601757 -0.285487 0.233875
v -0.525597 -0.094582 0.265512
v -0.552608 -0.018905 0.094278
v -0.442516 -0.359000 0.290283
v -0.421879 -0.314683 0.329802
v -0.601757 -0.285487 0.233875
v -0.552608 -0.018905 0.094278
v -0.525597 -0.094582 0.265512
v -0.428570 0.062538 0.196943
v -0.601757 -0.285487 0.233875
v -0.421879 -0.314683 0.329802
v -0.525597 -0.094582 0.265512
v -0.421879 -0.314683 0.329802
v -0.428570 0.062538 0.196943
v -0.525597 -0.094582 0.265512
v -0.421879 -0.314683 0.329802
v -0.089615 -0.164595 0.280574
v -0.428570 0.062538 0.196943
v -0.089615 -0.164595 0.280574
v -0.000877 0.096967 0.243187
v -0.428570 0.062538 0.196943
v 0.183907 -0.130953 0.268760
v 0.434357 0.127178 0.112957
v -0.000877 0.096967 0.243187
v 0.183907 -0.130953 0.268760
v 0.321735 -0.190767 0.218822
v 0.434357 0.127178 0.112957
v 0.711372 -0.031995 0.163169
v 0.748440 0.002667 0.082070
v 0.434357 0.127178 0.112957
v 0.684589 -0.119413 0.089790
v 0.748440 0.002667 0.082070
v 0.711372 -0.031995 0.163169
v 0.785839 -0.310089 0.077808
v 0.817284 -0.220826 -0.013270
v 0.684589 -0.119413 0.089790
v 0.684589 -0.119413 0.089790
v 0.817284 -0.220826 -0.013270
v 0.748440 0.002667 0.082070
v 0.817284 -0.220826 -0.013270
v 0.826271 -0.020093 -0.116918
v 0.748440 0.002667 0.082070
v 0.817284 -0.220826 -0.013270
v 0.767227 -0.047929 -0.218040
v 0.826271 -0.020093 -0.116918
v 0.826271 -0.020093 -0.116918
v 0.767227 -0.047929 -0.218040
v 0.584988 0.226813 -0.059087
v 0.767227 -0.047929 -0.218040
v 0.548229 0.016566 -0.313448
v 0.584988 0.226813 -0.059087
v 0.676697 -0.291808 -0.328056
v 0.244213 0.008424 -0.321174
v 0.834644 -0.213426 -0.315186
v 0.834644 -0.213426 -0.315186
v 0.244213 0.008424 -0.321174
v 0.548229 0.016566 -0.313448
v 0.548229 0.016566 -0.313448
v 0.244213 0.008424 -0.321174
v 0.304661 0.151712 -0.257924
v 0.244213 0.008424 -0.321174
v 0.063385 0.170002 -0.264401
v 0.304661 0.151712 -0.257924
v 0.676697 -0.291808 -0.328056
v 0.056366 -0.115414 -0.308483
v 0.244213 0.008424 -0.321174
v 0.056366 -0.115414 -0.308483
v 0.063385 0.170002 -0.264401
v 0.244213 0.008424 -0.321174
v -0.154175 -0.081426 -0.296120
v -0.329124 0.219822 -0.112868
v 0.063385 0.170002 -0.264401
v -0.592144 -0.282956 -0.108341
v -0.614044 -0.151713 -0.075287
v -0.348694 -0.075748 -0.123399
v -0.154175 -0.081426 -0.296120
v -0.348694 -0.075748 -0.123399
v -0.329124 0.219822 -0.112868
v -0.614044 -0.151713 -0.075287
v -0.462303 0.025330 -0.050895
v -0.348694 -0.075748 -0.123399
v -0.348694 -0.075748 -0.123399
v -0.462303 0.025330 -0.050895
v -0.329124 0.219822 -0.112868
v -0.592144 -0.282956 -0.108341
v -0.786945 -0.194493 0.037847
v -0.614044 -0.151713 -0.075287
v -0.614044 -0.151713 -0.075287
v -0.786945 -0.194493 0.037847
v -0.462303 0.025330 -0.050895
v -0.786945 -0.194493 0.037847
v -0.552608 -0.018905 0.094278
v -0.462303 0.025330 -0.050895
v -0.000877 0.096967 0.243187
v -0.089615 -0.164595 0.280574
v 0.183907 -0.130953 0.268760
v -0.421879 -0.314683 0.329802
v 0.014877 -0.282070 0.210937
v -0.089615 -0.164595 0.280574
v -0.089615 -0.164595 0.280574
v 0.014877 -0.282070 0.210937
v 0.183907 -0.130953 0.268760
v 0.014877 -0.282070 0.210937
v 0.199329 -0.281791 0.199730
v 0.183907 -0.130953 0.268760
v 0.199329 -0.281791 0.199730
v 0.321735 -0.190767 0.218822
v 0.183907 -0.130953 0.268760
v 0.321735 -0.190767 0.218822
v 0.550953 -0.105287 0.147872
v 0.434357 0.127178 0.112957
v 0.434357 0.127178 0.112957
v 0.550953 -0.105287 0.147872
v 0.711372 -0.031995 0.163169
v 0.550953 -0.105287 0.147872
v 0.684589 -0.119413 0.089790
v 0.711372 -0.031995 0.163169
v 0.550953 -0.105287 0.147872
v 0.523411 -0.279040 0.083704
v 0.684589 -0.119413 0.089790
v 0.523411 -0.279040 0.083704
v 0.785839 -0.310089 0.077808
v 0.684589 -0.119413 0.089790
v 0.321735 -0.190767 0.218822
v 0.523411 -0.279040 0.083704
v 0.550953 -0.105287 0.147872
v 0.817284 -0.220826 -0.013270
v 0.834644 -0.213426 -0.315186
v 0.767227 -0.047929 -0.218040
v 0.767227 -0.047929 -0.218040
v 0.834644 -0.213426 -0.315186
v 0.548229 0.016566 -0.313448
v 0.817284 -0.220826 -0.013270
v 0.785839 -0.310089 0.077808
v 0.834644 -0.213426 -0.315186
v 0.785839 -0.310089 0.077808
v 0.728806 -0.314588 -0.188526
v 0.834644 -0.213426 -0.315186
v 0.728806 -0.314588 -0.188526
v 0.676697 -0.291808 -0.328056
v 0.834644 -0.213426 -0.315186
v 0.056366 -0.115414 -0.308483
v -0.154175 -0.081426 -0.296120
v 0.063385 0.170002 -0.264401
v 0.056366 -0.115414 -0.308483
v -0.238979 -0.204339 -0.215763
v -0.154175 -0.081426 -0.296120
v -0.154175 -0.081426 -0.296120
v -0.238979 -0.204339 -0.215763
v -0.348694 -0.075748 -0.123399
v -0.238979 -0.204339 -0.215763
v -0.592144 -0.282956 -0.108341
v -0.348694 -0.075748 -0.123399
v -0.238979 -0.204339 -0.215763
v -0.411366 -0.344272 -0.121592
v -0.592144 -0.282956 -0.108341
v -0.411366 -0.344272 -0.121592
v -0.537891 -0.341221 -0.067887
v -0.592144 -0.282956 -0.108341
v -0.786945 -0.194493 0.037847
v -0.787037 -0.180417 0.142359
v -0.552608 -0.018905 0.094278
v -0.592144 -0.282956 -0.108341
v -0.834644 -0.279342 0.094515
v -0.786945 -0.194493 0.037847
v -0.787037 -0.180417 0.142359
v -0.601757 -0.285487 0.233875
v -0.552608 -0.018905 0.094278
v -0.786945 -0.194493 0.037847
v -0.834644 -0.279342 0.094515
v -0.787037 -0.180417 0.142359
v -0.834644 -0.279342 0.094515
v -0.637207 -0.242338 0.159076
v -0.787037 -0.180417 0.142359
v -0.787037 -0.180417 0.142359
v -0.637207 -0.242338 0.159076
v -0.601757 -0.285487 0.233875
v -0.637207 -0.242338 0.159076
v -0.442516 -0.359000 0.290283
v -0.601757 -0.285487 0.233875
v -0.592144 -0.282956 -0.108341
v -0.537891 -0.341221 -0.067887
v -0.834644 -0.279342 0.094515
v -0.537891 -0.341221 -0.067887
v -0.531628 -0.288008 0.084864
v -0.834644 -0.279342 0.094515
v -0.834644 -0.279342 0.094515
v -0.531628 -0.288008 0.084864
v -0.637207 -0.242338 0.159076
v -0.637207 -0.242338 0.159076
v -0.531628 -0.288008 0.084864
v -0.442516 -0.359000 0.290283
v -0.053158 -0.334553 0.070493
v 0.014877 -0.282070 0.210937
v -0.442516 -0.359000 0.290283
v -0.053158 -0.334553 0.070493
v 0.172379 -0.352173 0.101062
v 0.014877 -0.282070 0.210937
v 0.172379 -0.352173 0.101062
v 0.199329 -0.281791 0.199730
v 0.014877 -0.282070 0.210937
v 0.172379 -0.352173 0.101062
v 0.523411 -0.279040 0.083704
v 0.199329 -0.281791 0.199730
v 0.199329 -0.281791 0.199730
v 0.523411 -0.279040 0.083704
v 0.321735 -0.190767 0.218822
v 0.175739 -0.321645 -0.081381
v 0.728806 -0.314588 -0.188526
v 0.172379 -0.352173 0.101062
v 0.172379 -0.352173 0.101062
v 0.728806 -0.314588 -0.188526
v 0.523411 -0.279040 0.083704
v 0.728806 -0.314588 -0.188526
v 0.785839 -0.310089 0.077808
v 0.523411 -0.279040 0.083704
v 0.175739 -0.321645 -0.081381
v 0.676697 -0.291808 -0.328056
v 0.728806 -0.314588 -0.188526
v 0.175739 -0.321645 -0.081381
v -0.003490 -0.224445 -0.187459
v 0.676697 -0.291808 -0.328056
v -0.003490 -0.224445 -0.187459
v -0.238979 -0.204339 -0.215763
v 0.676697 -0.291808 -0.328056
v -0.531628 -0.288008 0.084864
v -0.053158 -0.334553 0.070493
v -0.442516 -0.359000 0.290283
v -0.531628 -0.288008 0.084864
v -0.537891 -0.341221 -0.067887
v -0.053158 -0.334553 0.070493
v -0.411366 -0.344272 -0.121592
v -0.139038 -0.322137 -0.066600
v -0.537891 -0.341221 -0.067887
v -0.537891 -0.341221 -0.067887
v -0.139038 -0.322137 -0.066600
v -0.053158 -0.334553 0.070493
v -0.139038 -0.322137 -0.066600
v 0.175739 -0.321645 -0.081381
v -0.053158 -0.334553 0.070493
v -0.003490 -0.224445 -0.187459
v -0.411366 -0.344272 -0.121592
v -0.238979 -0.204339 -0.215763
v 0.175739 -0.321645 -0.081381
v -0.139038 -0.322137 -0.066600
v -0.003490 -0.224445 -0.187459
v -0.139038 -0.322137 -0.066600
v -0.411366 -0.344272 -0.121592
v -0.003490 -0.224445 -0.187459
vt 0.454545 1.000000
vt 0.430930 0.928664
vt 0.494960 0.929998
vt 0.567884 0.803689
vt 0.468236 0.857360
vt 0.543482 0.767225
vt 0.803117 0.809550
vt 0.852747 0.787975
vt 0.931817 0.803174
vt 0.854709 0.693403
vt 0.744750 0.685079
vt 0.769906 0.645714
vt 0.324098 0.670640
vt 0.215952 0.704687
vt 0.211207 0.578522
vt 0.639829 0.719118
vt 0.586764 0.685235
vt 0.584114 0.597156
vt 0.584114 0.597156
vt 0.475794 0.655672
vt 0.540997 0.535338
vt 0.584114 0.597156
vt 0.586764 0.685235
vt 0.475794 0.655672
vt 0.438158 0.655672
vt 0.324098 0.670640
vt 0.334924 0.579694
vt 0.211207 0.578522
vt 0.184044 0.610205
vt 0.147905 0.586357
vt 0.184044 0.610205
vt 0.157201 0.648986
vt 0.147905 0.586357
vt 0.211207 0.578522
vt 0.215952 0.704687
vt 0.184044 0.610205
vt 0.215952 0.704687
vt 0.159688 0.723410
vt 0.184044 0.610205
vt 0.184044 0.610205
vt 0.159688 0.723410
vt 0.157201 0.648986
vt 0.157201 0.648986
vt 0.074310 0.713829
vt 0.147905 0.586357
vt 0.942333 0.586357
vt 0.913058 0.678206
vt 0.894277 0.624905
vt 0.942333 0.586357
vt 0.949958 0.713829
vt 0.913058 0.678206
vt 0.913058 0.678206
vt 0.854709 0.693403
vt 0.894277 0.624905
vt 0.894277 0.624905
vt 0.854709 0.693403
vt 0.840908 0.645714
vt 0.749999 0.566983
vt 0.694043 0.606563
vt 0.727272 0.527618
vt 0.772726 0.606349
vt 0.694043 0.606563
vt 0.749999 0.566983
vt 0.772726 0.606349
vt 0.769906 0.645714
vt 0.694043 0.606563
vt 0.769906 0.645714
vt 0.704545 0.645714
vt 0.694043 0.606563
vt 0.769906 0.645714
vt 0.744750 0.685079
vt 0.704545 0.645714
vt 0.744750 0.685079
vt 0.692546 0.703661
vt 0.704545 0.645714
vt 0.704545 0.645714
vt 0.692546 0.703661
vt 0.694043 0.606563
vt 0.692546 0.703661
vt 0.639829 0.719118
vt 0.694043 0.606563
vt 0.590909 0.763809
vt 0.568181 0.724444
vt 0.639829 0.719118
vt 0.567884 0.803689
vt 0.543482 0.767225
vt 0.590909 0.763809
vt 0.639829 0.719118
vt 0.568181 0.724444
vt 0.586764 0.685235
vt 0.590909 0.763809
vt 0.543482 0.767225
vt 0.568181 0.724444
vt 0.543482 0.767225
vt 0.586764 0.685235
vt 0.568181 0.724444
vt 0.543482 0.767225
vt 0.488935 0.775851
vt 0.586764 0.685235
vt 0.488935 0.775851
vt 0.438158 0.655672
vt 0.586764 0.685235
vt 0.405074 0.784020
vt 0.324098 0.670640
vt 0.438158 0.655672
vt 0.405074 0.784020
vt 0.346289 0.818176
vt 0.324098 0.670640
vt 0.250000 0.724444
vt 0.215952 0.704687
vt 0.324098 0.670640
vt 0.227272 0.763809
vt 0.215952 0.704687
vt 0.250000 0.724444
vt 0.190694 0.849184
vt 0.163806 0.795007
vt 0.227272 0.763809
vt 0.227272 0.763809
vt 0.163806 0.795007
vt 0.215952 0.704687
vt 0.163806 0.795007
vt 0.159688 0.723410
vt 0.215952 0.704687
vt 0.163806 0.795007
vt 0.118097 0.732170
vt 0.159688 0.723410
vt 0.159688 0.723410
vt 0.118097 0.732170
vt 0.157201 0.648986
vt 0.118097 0.732170
vt 0.074310 0.713829
vt 0.157201 0.648986
vt 0.931817 0.803174
vt 0.892320 0.734763
vt 0.954545 0.763809
vt 0.954545 0.763809
vt 0.892320 0.734763
vt 0.949958 0.713829
vt 0.949958 0.713829
vt 0.892320 0.734763
vt 0.913058 0.678206
vt 0.892320 0.734763
vt 0.854709 0.693403
vt 0.913058 0.678206
vt 0.931817 0.803174
vt 0.852747 0.787975
vt 0.892320 0.734763
vt 0.852747 0.787975
vt 0.854709 0.693403
vt 0.892320 0.734763
vt 0.816469 0.760843
vt 0.744750 0.685079
vt 0.854709 0.693403
vt 0.736096 0.803174
vt 0.727272 0.763809
vt 0.771349 0.761423
vt 0.816469 0.760843
vt 0.771349 0.761423
vt 0.744750 0.685079
vt 0.727272 0.763809
vt 0.692546 0.703661
vt 0.771349 0.761423
vt 0.771349 0.761423
vt 0.692546 0.703661
vt 0.744750 0.685079
vt 0.736096 0.803174
vt 0.681817 0.763809
vt 0.727272 0.763809
vt 0.727272 0.763809
vt 0.681817 0.763809
vt 0.692546 0.703661
vt 0.681817 0.763809
vt 0.639829 0.719118
vt 0.692546 0.703661
vt 0.438158 0.655672
vt 0.488935 0.775851
vt 0.405074 0.784020
vt 0.543482 0.767225
vt 0.468236 0.857360
vt 0.488935 0.775851
vt 0.488935 0.775851
vt 0.468236 0.857360
vt 0.405074 0.784020
vt 0.468236 0.857360
vt 0.407914 0.869514
vt 0.405074 0.784020
vt 0.407914 0.869514
vt 0.346289 0.818176
vt 0.405074 0.784020
vt 0.346289 0.818176
vt 0.274868 0.767517
vt 0.324098 0.670640
vt 0.324098 0.670640
vt 0.274868 0.767517
vt 0.250000 0.724444
vt 0.274868 0.767517
vt 0.227272 0.763809
vt 0.250000 0.724444
vt 0.274868 0.767517
vt 0.261151 0.847429
vt 0.227272 0.763809
vt 0.261151 0.847429
vt 0.190694 0.849184
vt 0.227272 0.763809
vt 0.346289 0.818176
vt 0.261151 0.847429
vt 0.274868 0.767517
vt 0.163806 0.795007
vt 0.069472 0.789299
vt 0.118097 0.732170
vt 0.118097 0.732170
vt 0.069472 0.789299
vt 0.074310 0.713829
vt 0.163806 0.795007
vt 0.173888 0.842094
vt 0.069472 0.789299
vt 0.173888 0.842094
vt 0.095477 0.850451
vt 0.069472 0.789299
vt 0.095477 0.850451
vt 0.030508 0.816650
vt 0.069472 0.789299
vt 0.852747 0.787975
vt 0.816469 0.760843
vt 0.854709 0.693403
vt 0.852747 0.787975
vt 0.803117 0.809550
vt 0.816469 0.760843
vt 0.816469 0.760843
vt 0.803117 0.809550
vt 0.771349 0.761423
vt 0.803117 0.809550
vt 0.736096 0.803174
vt 0.771349 0.761423
vt 0.803117 0.809550
vt 0.758598 0.867011
vt 0.736096 0.803174
vt 0.758598 0.867011
vt 0.706648 0.844515
vt 0.736096 0.803174
vt 0.681817 0.763809
vt 0.636363 0.763809
vt 0.639829 0.719118
vt 0.736096 0.803174
vt 0.659090 0.803174
vt 0.681817 0.763809
vt 0.636363 0.763809
vt 0.590909 0.763809
vt 0.639829 0.719118
vt 0.681817 0.763809
vt 0.659090 0.803174
vt 0.636363 0.763809
vt 0.659090 0.803174
vt 0.613636 0.803174
vt 0.636363 0.763809
vt 0.636363 0.763809
vt 0.613636 0.803174
vt 0.590909 0.763809
vt 0.613636 0.803174
vt 0.567884 0.803689
vt 0.590909 0.763809
vt 0.736096 0.803174
vt 0.706648 0.844515
vt 0.659090 0.803174
vt 0.706648 0.844515
vt 0.632005 0.842539
vt 0.659090 0.803174
vt 0.659090 0.803174
vt 0.632005 0.842539
vt 0.613636 0.803174
vt 0.613636 0.803174
vt 0.632005 0.842539
vt 0.567884 0.803689
vt 0.494960 0.929998
vt 0.468236 0.857360
vt 0.567884 0.803689
vt 0.494960 0.929998
vt 0.430930 0.928664
vt 0.468236 0.857360
vt 0.430930 0.928664
vt 0.407914 0.869514
vt 0.468236 0.857360
vt 0.312179 0.925662
vt 0.261151 0.847429
vt 0.340909 0.881904
vt 0.340909 0.881904
vt 0.261151 0.847429
vt 0.346289 0.818176
vt 0.262093 0.981582
vt 0.227272 0.921269
vt 0.312179 0.925662
vt 0.312179 0.925662
vt 0.227272 0.921269
vt 0.261151 0.847429
vt 0.227272 0.921269
vt 0.190694 0.849184
vt 0.261151 0.847429
vt 0.086306 0.962046
vt 0.030508 0.816650
vt 0.095477 0.850451
vt 0.086306 0.962046
vt 0.022727 0.881904
vt 0.030508 0.816650
vt 0.022727 0.881904
vt 0.000000 0.842539
vt 0.030508 0.816650
vt 0.632005 0.842539
vt 0.598279 0.925960
vt 0.567884 0.803689
vt 0.632005 0.842539
vt 0.706648 0.844515
vt 0.598279 0.925960
vt 0.704545 0.881904
vt 0.681817 0.921269
vt 0.706648 0.844515
vt 0.706648 0.844515
vt 0.681817 0.921269
vt 0.598279 0.925960
vt 0.681817 0.921269
vt 0.641338 0.991382
vt 0.598279 0.925960
vt 0.827336 0.881904
vt 0.758598 0.867011
vt 0.803117 0.809550
vt 0.826238 0.972807
vt 0.772726 0.921269
vt 0.827336 0.881904
vt 0.772726 0.921269
vt 0.758598 0.867011
vt 0.827336 0.881904
vn -0.0545 -0.9847 -0.1658
vn 0.2347 -0.7056 0.6687
vn -0.1502 -0.4295 -0.8905
vn -0.2675 0.4630 -0.8451
vn 0.3754 0.9208 0.1056
vn -0.6284 0.7624 0.1545
vn 0.2124 0.7376 0.6409
vn -0.1336 0.5911 0.7954
vn 0.1052 0.8321 0.5445
vn -0.2502 0.8508 0.4621
vn 0.2871 0.9513 -0.1119
vn 0.0190 0.2880 0.9574
vn 0.6569 0.7338 0.1730
vn 0.5652 0.3810 0.7317
vn 0.3415 0.6996 -0.6276
vn 0.3745 0.6042 -0.7033
vn 0.1984 0.6565 -0.7278
vn 0.0583 0.4542 -0.8890
vn -0.1718 0.5334 -0.8282
vn 0.2199 0.7885 0.5744
vn 0.1754 0.8760 0.4492
vn 0.0941 0.9336 0.3459
vn -0.2536 0.9434 0.2139
vn -0.4825 0.7921 -0.3738
vn -0.8350 0.5427 -0.0910
vn -0.5179 0.2105 0.8291
vn -0.6430 0.7462 -0.1726
vn -0.9063 0.3148 0.2821
vn -0.4758 -0.4515 0.7548
vn -0.7057 0.6001 0.3766
vn -0.4653 0.0391 0.8843
vn 0.1240 0.3316 0.9352
vn -0.0102 0.3320 0.9432
vn -0.1201 0.1803 0.9763
vn 0.2530 0.3080 0.9171
vn 0.3970 0.1603 0.9037
vn 0.3611 0.7864 0.5011
vn 0.8719 -0.4428 0.2093
vn 0.7264 0.3485 0.5923
vn 0.4968 -0.2065 0.8429
vn 0.9277 0.1377 0.3471
vn 0.8631 -0.2617 -0.4319
vn 0.5548 0.6606 -0.5058
vn 0.4559 0.6526 -0.6053
vn 0.0407 0.0815 -0.9958
vn 0.0244 0.0379 -0.9990
vn 0.0126 0.3993 -0.9167
vn 0.0539 0.3841 -0.9217
vn -0.0423 -0.0381 -0.9984
vn -0.1676 0.1545 -0.9737
vn -0.2944 0.3661 -0.8828
vn -0.2303 0.2014 -0.9521
vn -0.6612 0.0704 -0.7469
vn -0.2631 0.3494 -0.8993
vn -0.4960 0.0637 -0.8660
vn -0.5634 0.1122 -0.8186
vn -0.5472 0.5553 -0.6263
vn -0.5781 0.8080 -0.1134
vn 0.0265 0.1326 0.9908
vn 0.2713 -0.3007 0.9143
vn 0.0932 -0.4450 0.8906
vn 0.0559 -0.4107 0.9100
vn 0.1549 -0.3980 0.9042
vn 0.2025 0.2440 0.9484
vn -0.1318 0.0823 0.9879
vn 0.2369 -0.6662 0.7072
vn 0.3365 -0.3727 0.8648
vn 0.0160 -0.0542 0.9984
vn 0.3984 -0.3727 0.8381
vn 0.9366 0.3449 0.0623
vn 0.4628 0.5814 -0.6692
vn 0.9564 -0.2880 0.0479
vn 0.6093 -0.7842 -0.1172
vn 0.4433 -0.8435 -0.3033
vn -0.0332 0.1534 -0.9876
vn -0.1283 -0.4791 -0.8683
vn -0.6642 -0.0301 -0.7470
vn -0.3419 0.3380 -0.8768
vn -0.1930 -0.3730 -0.9075
vn -0.2886 -0.7126 -0.6394
vn -0.5791 0.8079 -0.1093
vn -0.6358 -0.1484 -0.7574
vn -0.1540 0.4805 0.8634
vn -0.8872 0.4571 -0.0623
vn -0.2375 -0.3279 0.9144
vn -0.3234 -0.8779 -0.3531
vn -0.2732 -0.8836 -0.3802
vn -0.4310 -0.7498 -0.5019
vn -0.0165 -0.9440 0.3295
vn -0.0081 -0.8567 0.5157
vn -0.4571 -0.8830 -0.1069
vn 0.2032 -0.9454 0.2548
vn -0.1251 -0.9080 0.3999
vn 0.0361 -0.8182 0.5738
vn 0.1978 -0.8228 0.5329
vn 0.2858 -0.5491 0.7854
vn -0.0195 -0.9860 -0.1654
vn 0.2090 -0.9369 0.2801
vn -0.1165 -0.9923 0.0417
vn -0.0174 -0.9878 -0.1548
vn -0.1837 -0.8594 -0.4771
vn -0.0900 -0.9951 0.0416
vn -0.1013 -0.9530 -0.2854
vn -0.0815 -0.9402 0.3309
vn 0.0466 -0.9851 0.1657
vn 0.0478 -0.9916 -0.1198
vn -0.0026 -0.9961 -0.0886
vn 0.0455 -0.5957 -0.8019
vn -0.0292 -0.7611 -0.6480
vn 0.1696 -0.8507 -0.4975
usemtl cloud.002
s off
f 1/1/1 2/2/1 3/3/1
f 4/4/2 5/5/2 6/6/2
f 7/7/3 8/8/3 9/9/3
f 10/10/4 11/11/4 12/12/4
f 13/13/5 14/14/5 15/15/5
f 16/16/6 17/17/6 18/18/6
f 19/19/7 20/20/7 21/21/7
f 22/22/8 23/23/8 24/24/8
f 25/25/9 26/26/9 27/27/9
f 28/28/10 29/29/10 30/30/10
f 31/31/11 32/32/11 33/33/11
f 34/34/12 35/35/12 36/36/12
f 37/37/13 38/38/13 39/39/13
f 40/40/14 41/41/14 42/42/14
f 43/43/15 44/44/15 45/45/15
f 46/46/16 47/47/16 48/48/16
f 49/49/17 50/50/17 51/51/17
f 52/52/18 53/53/18 54/54/18
f 55/55/19 56/56/19 57/57/19
f 58/58/20 59/59/20 60/60/20
f 61/61/21 62/62/21 63/63/21
f 64/64/22 65/65/22 66/66/22
f 67/67/23 68/68/23 69/69/23
f 70/70/24 71/71/24 72/72/24
f 73/73/25 74/74/25 75/75/25
f 76/76/26 77/77/26 78/78/26
f 79/79/27 80/80/27 81/81/27
f 82/82/28 83/83/28 84/84/28
f 85/85/29 86/86/29 87/87/29
f 88/88/30 89/89/30 90/90/30
f 91/91/31 92/92/31 93/93/31
f 94/94/32 95/95/32 96/96/32
f 97/97/33 98/98/33 99/99/33
f 100/100/34 101/101/34 102/102/34
f 103/103/35 104/104/35 105/105/35
f 106/106/36 107/107/36 108/108/36
f 109/109/37 110/110/37 111/111/37
f 112/112/38 113/113/38 114/114/38
f 115/115/39 116/116/39 117/117/39
f 118/118/40 119/119/40 120/120/40
f 121/121/41 122/122/41 123/123/41
f 124/124/42 125/125/42 126/126/42
f 127/127/43 128/128/43 129/129/43
f 130/130/44 131/131/44 132/132/44
f 133/133/45 134/134/45 135/135/45
f 136/136/46 137/137/46 138/138/46
f 139/139/47 140/140/47 141/141/47
f 142/142/48 143/143/48 144/144/48
f 145/145/49 146/146/49 147/147/49
f 148/148/50 149/149/50 150/150/50
f 151/151/51 152/152/51 153/153/51
f 154/154/52 155/155/52 156/156/52
f 157/157/53 158/158/53 159/159/53
f 160/160/54 161/161/54 162/162/54
f 163/163/55 164/164/55 165/165/55
f 166/166/56 167/167/56 168/168/56
f 169/169/57 170/170/57 171/171/57
f 172/172/58 173/173/58 174/174/58
f 175/175/59 176/176/59 177/177/59
f 178/178/60 179/179/60 180/180/60
f 181/181/61 182/182/61 183/183/61
f 184/184/62 185/185/62 186/186/62
f 187/187/63 188/188/63 189/189/63
f 190/190/64 191/191/64 192/192/64
f 193/193/65 194/194/65 195/195/65
f 196/196/66 197/197/66 198/198/66
f 199/199/67 200/200/67 201/201/67
f 202/202/68 203/203/68 204/204/68
f 205/205/69 206/206/69 207/207/69
f 208/208/70 209/209/70 210/210/70
f 211/211/71 212/212/71 213/213/71
f 214/214/72 215/215/72 216/216/72
f 217/217/73 218/218/73 219/219/73
f 220/220/74 221/221/74 222/222/74
f 223/223/75 224/224/75 225/225/75
f 226/226/76 227/227/76 228/228/76
f 229/229/77 230/230/77 231/231/77
f 232/232/78 233/233/78 234/234/78
f 235/235/79 236/236/79 237/237/79
f 238/238/80 239/239/80 240/240/80
f 241/241/81 242/242/81 243/243/81
f 244/244/82 245/245/82 246/246/82
f 247/247/83 248/248/83 249/249/83
f 250/250/84 251/251/84 252/252/84
f 253/253/85 254/254/85 255/255/85
f 256/256/86 257/257/86 258/258/86
f 259/259/87 260/260/87 261/261/87
f 262/262/88 263/263/88 264/264/88
f 265/265/89 266/266/89 267/267/89
f 268/268/90 269/269/90 270/270/90
f 271/271/91 272/272/91 273/273/91
f 274/274/92 275/275/92 276/276/92
f 277/277/93 278/278/93 279/279/93
f 280/280/94 281/281/94 282/282/94
f 283/283/95 284/284/95 285/285/95
f 286/286/96 287/287/96 288/288/96
f 289/289/97 290/290/97 291/291/97
f 292/292/98 293/293/98 294/294/98
f 295/295/99 296/296/99 297/297/99
f 298/298/100 299/299/100 300/300/100
f 301/301/101 302/302/101 303/303/101
f 304/304/102 305/305/102 306/306/102
f 307/307/103 308/308/103 309/309/103
f 310/310/104 311/311/104 312/312/104
f 313/313/105 314/314/105 315/315/105
f 316/316/106 317/317/106 318/318/106
f 319/319/107 320/320/107 321/321/107
f 322/322/108 323/323/108 324/324/108
f 325/325/109 326/326/109 327/327/109
f 328/328/110 329/329/110 330/330/110
