# Blender v2.82 (sub 7) OBJ File: 'RaceTrack1.blend'
# www.blender.org
mtllib Cloud6.mtl
o Cloud6_Object_92_Object_44.001
v -0.175283 -0.321175 0.082494
v -0.169172 -0.352753 -0.099697
v 0.055878 -0.334948 -0.065830
v 0.448507 -0.360644 -0.279573
v -0.010027 -0.283278 -0.207585
v 0.428473 -0.316554 -0.319653
v 0.237364 -0.203078 0.222441
v -0.059343 -0.113633 0.310180
v -0.679907 -0.289938 0.321401
v -0.065685 0.171524 0.264354
v 0.329071 0.220489 0.118479
v 0.103888 0.360150 0.109043
v -0.430918 0.126510 -0.118312
v -0.745440 0.002164 -0.091453
v -0.277111 0.199460 -0.035579
v 0.555645 -0.019420 -0.083891
v 0.433174 0.061424 -0.188885
v 0.172140 0.303202 -0.058600
v 0.172140 0.303202 -0.058600
v 0.006229 0.095567 -0.241777
v -0.277111 0.199460 -0.035579
v 0.172140 0.303202 -0.058600
v 0.433174 0.061424 -0.188885
v 0.006229 0.095567 -0.241777
v 0.006229 0.095567 -0.241777
v -0.430918 0.126510 -0.118312
v -0.277111 0.199460 -0.035579
v -0.277111 0.199460 -0.035579
v -0.468458 0.269181 -0.014137
v -0.328728 0.297654 0.115584
v -0.468458 0.269181 -0.014137
v -0.584124 0.227128 0.050863
v -0.328728 0.297654 0.115584
v -0.277111 0.199460 -0.035579
v -0.745440 0.002164 -0.091453
v -0.468458 0.269181 -0.014137
v -0.745440 0.002164 -0.091453
v -0.826265 -0.019451 0.106469
v -0.468458 0.269181 -0.014137
v -0.468458 0.269181 -0.014137
v -0.826265 -0.019451 0.106469
v -0.584124 0.227128 0.050863
v -0.584124 0.227128 0.050863
v -0.551222 0.018352 0.306957
v -0.328728 0.297654 0.115584
v -0.328728 0.297654 0.115584
v -0.306837 0.153186 0.254337
v -0.154171 0.355484 0.161749
v -0.328728 0.297654 0.115584
v -0.551222 0.018352 0.306957
v -0.306837 0.153186 0.254337
v -0.306837 0.153186 0.254337
v -0.065685 0.171524 0.264354
v -0.154171 0.355484 0.161749
v -0.154171 0.355484 0.161749
v -0.065685 0.171524 0.264354
v 0.103888 0.360150 0.109043
v -0.328728 0.297654 0.115584
v 0.172140 0.303202 -0.058600
v -0.277111 0.199460 -0.035579
v -0.154171 0.355484 0.161749
v 0.172140 0.303202 -0.058600
v -0.328728 0.297654 0.115584
v -0.154171 0.355484 0.161749
v 0.103888 0.360150 0.109043
v 0.172140 0.303202 -0.058600
v 0.103888 0.360150 0.109043
v 0.298117 0.286473 0.018454
v 0.172140 0.303202 -0.058600
v 0.103888 0.360150 0.109043
v 0.329071 0.220489 0.118479
v 0.298117 0.286473 0.018454
v 0.329071 0.220489 0.118479
v 0.463161 0.025647 0.059645
v 0.298117 0.286473 0.018454
v 0.298117 0.286473 0.018454
v 0.463161 0.025647 0.059645
v 0.172140 0.303202 -0.058600
v 0.463161 0.025647 0.059645
v 0.555645 -0.019420 -0.083891
v 0.172140 0.303202 -0.058600
v 0.606886 -0.286800 -0.221192
v 0.531219 -0.096084 -0.255074
v 0.555645 -0.019420 -0.083891
v 0.448507 -0.360644 -0.279573
v 0.428473 -0.316554 -0.319653
v 0.606886 -0.286800 -0.221192
v 0.555645 -0.019420 -0.083891
v 0.531219 -0.096084 -0.255074
v 0.433174 0.061424 -0.188885
v 0.606886 -0.286800 -0.221192
v 0.428473 -0.316554 -0.319653
v 0.531219 -0.096084 -0.255074
v 0.428473 -0.316554 -0.319653
v 0.433174 0.061424 -0.188885
v 0.531219 -0.096084 -0.255074
v 0.428473 -0.316554 -0.319653
v 0.095510 -0.166202 -0.276315
v 0.433174 0.061424 -0.188885
v 0.095510 -0.166202 -0.276315
v 0.006229 0.095567 -0.241777
v 0.433174 0.061424 -0.188885
v -0.178158 -0.132504 -0.268824
v -0.430918 0.126510 -0.118312
v 0.006229 0.095567 -0.241777
v -0.178158 -0.132504 -0.268824
v -0.316727 -0.192035 -0.220629
v -0.430918 0.126510 -0.118312
v -0.707153 -0.032962 -0.171781
v -0.745440 0.002164 -0.091453
v -0.430918 0.126510 -0.118312
v -0.681484 -0.119952 -0.097502
v -0.745440 0.002164 -0.091453
v -0.707153 -0.032962 -0.171781
v -0.782911 -0.310563 -0.085953
v -0.815723 -0.220778 0.004125
v -0.681484 -0.119952 -0.097502
v -0.681484 -0.119952 -0.097502
v -0.815723 -0.220778 0.004125
v -0.745440 0.002164 -0.091453
v -0.815723 -0.220778 0.004125
v -0.826265 -0.019451 0.106469
v -0.745440 0.002164 -0.091453
v -0.815723 -0.220778 0.004125
v -0.768759 -0.046701 0.208628
v -0.826265 -0.019451 0.106469
v -0.826265 -0.019451 0.106469
v -0.768759 -0.046701 0.208628
v -0.584124 0.227128 0.050863
v -0.768759 -0.046701 0.208628
v -0.551222 0.018352 0.306957
v -0.584124 0.227128 0.050863
v -0.679907 -0.289938 0.321401
v -0.247356 0.010268 0.319321
v -0.837639 -0.211638 0.305695
v -0.837639 -0.211638 0.305695
v -0.247356 0.010268 0.319321
v -0.551222 0.018352 0.306957
v -0.551222 0.018352 0.306957
v -0.247356 0.010268 0.319321
v -0.306837 0.153186 0.254337
v -0.247356 0.010268 0.319321
v -0.065685 0.171524 0.264354
v -0.306837 0.153186 0.254337
v -0.679907 -0.289938 0.321401
v -0.059343 -0.113633 0.310180
v -0.247356 0.010268 0.319321
v -0.059343 -0.113633 0.310180
v -0.065685 0.171524 0.264354
v -0.247356 0.010268 0.319321
v 0.151363 -0.079707 0.300801
v 0.329071 0.220489 0.118479
v -0.065685 0.171524 0.264354
v 0.592106 -0.282297 0.120821
v 0.614506 -0.151246 0.087345
v 0.348465 -0.075016 0.131007
v 0.151363 -0.079707 0.300801
v 0.348465 -0.075016 0.131007
v 0.329071 0.220489 0.118479
v 0.614506 -0.151246 0.087345
v 0.463161 0.025647 0.059645
v 0.348465 -0.075016 0.131007
v 0.348465 -0.075016 0.131007
v 0.463161 0.025647 0.059645
v 0.329071 0.220489 0.118479
v 0.592106 -0.282297 0.120821
v 0.789097 -0.194670 -0.022918
v 0.614506 -0.151246 0.087345
v 0.614506 -0.151246 0.087345
v 0.789097 -0.194670 -0.022918
v 0.463161 0.025647 0.059645
v 0.789097 -0.194670 -0.022918
v 0.555645 -0.019420 -0.083891
v 0.463161 0.025647 0.059645
v 0.006229 0.095567 -0.241777
v 0.095510 -0.166202 -0.276315
v -0.178158 -0.132504 -0.268824
v 0.428473 -0.316554 -0.319653
v -0.010027 -0.283278 -0.207585
v 0.095510 -0.166202 -0.276315
v 0.095510 -0.166202 -0.276315
v -0.010027 -0.283278 -0.207585
v -0.178158 -0.132504 -0.268824
v -0.010027 -0.283278 -0.207585
v -0.194624 -0.282943 -0.199167
v -0.178158 -0.132504 -0.268824
v -0.194624 -0.282943 -0.199167
v -0.316727 -0.192035 -0.220629
v -0.178158 -0.132504 -0.268824
v -0.316727 -0.192035 -0.220629
v -0.546988 -0.106158 -0.153641
v -0.430918 0.126510 -0.118312
v -0.430918 0.126510 -0.118312
v -0.546988 -0.106158 -0.153641
v -0.707153 -0.032962 -0.171781
v -0.546988 -0.106158 -0.153641
v -0.681484 -0.119952 -0.097502
v -0.707153 -0.032962 -0.171781
v -0.546988 -0.106158 -0.153641
v -0.520424 -0.279537 -0.088064
v -0.681484 -0.119952 -0.097502
v -0.520424 -0.279537 -0.088064
v -0.782911 -0.310563 -0.085953
v -0.681484 -0.119952 -0.097502
v -0.316727 -0.192035 -0.220629
v -0.520424 -0.279537 -0.088064
v -0.546988 -0.106158 -0.153641
v -0.815723 -0.220778 0.004125
v -0.837639 -0.211638 0.305695
v -0.768759 -0.046701 0.208628
v -0.768759 -0.046701 0.208628
v -0.837639 -0.211638 0.305695
v -0.551222 0.018352 0.306957
v -0.815723 -0.220778 0.004125
v -0.782911 -0.310563 -0.085953
v -0.837639 -0.211638 0.305695
v -0.782911 -0.310563 -0.085953
v -0.729904 -0.313524 0.181233
v -0.837639 -0.211638 0.305695
v -0.729904 -0.313524 0.181233
v -0.679907 -0.289938 0.321401
v -0.837639 -0.211638 0.305695
v -0.059343 -0.113633 0.310180
v 0.151363 -0.079707 0.300801
v -0.065685 0.171524 0.264354
v -0.059343 -0.113633 0.310180
v 0.237364 -0.203078 0.222441
v 0.151363 -0.079707 0.300801
v 0.151363 -0.079707 0.300801
v 0.237364 -0.203078 0.222441
v 0.348465 -0.075016 0.131007
v 0.237364 -0.203078 0.222441
v 0.592106 -0.282297 0.120821
v 0.348465 -0.075016 0.131007
v 0.237364 -0.203078 0.222441
v 0.411144 -0.343544 0.131694
v 0.592106 -0.282297 0.120821
v 0.411144 -0.343544 0.131694
v 0.538464 -0.340797 0.079890
v 0.592106 -0.282297 0.120821
v 0.789097 -0.194670 -0.022918
v 0.790766 -0.181196 -0.127494
v 0.555645 -0.019420 -0.083891
v 0.592106 -0.282297 0.120821
v 0.837639 -0.279842 -0.078370
v 0.789097 -0.194670 -0.022918
v 0.790766 -0.181196 -0.127494
v 0.606886 -0.286800 -0.221192
v 0.555645 -0.019420 -0.083891
v 0.789097 -0.194670 -0.022918
v 0.837639 -0.279842 -0.078370
v 0.790766 -0.181196 -0.127494
v 0.837639 -0.279842 -0.078370
v 0.641205 -0.243220 -0.146114
v 0.790766 -0.181196 -0.127494
v 0.790766 -0.181196 -0.127494
v 0.641205 -0.243220 -0.146114
v 0.606886 -0.286800 -0.221192
v 0.641205 -0.243220 -0.146114
v 0.448507 -0.360644 -0.279573
v 0.606886 -0.286800 -0.221192
v 0.592106 -0.282297 0.120821
v 0.538464 -0.340797 0.079890
v 0.837639 -0.279842 -0.078370
v 0.538464 -0.340797 0.079890
v 0.534515 -0.288464 -0.073245
v 0.837639 -0.279842 -0.078370
v 0.837639 -0.279842 -0.078370
v 0.534515 -0.288464 -0.073245
v 0.641205 -0.243220 -0.146114
v 0.641205 -0.243220 -0.146114
v 0.534515 -0.288464 -0.073245
v 0.448507 -0.360644 -0.279573
v 0.055878 -0.334948 -0.065830
v -0.010027 -0.283278 -0.207585
v 0.448507 -0.360644 -0.279573
v 0.055878 -0.334948 -0.065830
v -0.169172 -0.352753 -0.099697
v -0.010027 -0.283278 -0.207585
v -0.169172 -0.352753 -0.099697
v -0.194624 -0.282943 -0.199167
v -0.010027 -0.283278 -0.207585
v -0.169172 -0.352753 -0.099697
v -0.520424 -0.279537 -0.088064
v -0.194624 -0.282943 -0.199167
v -0.194624 -0.282943 -0.199167
v -0.520424 -0.279537 -0.088064
v -0.316727 -0.192035 -0.220629
v -0.175283 -0.321175 0.082494
v -0.729904 -0.313524 0.181233
v -0.169172 -0.352753 -0.099697
v -0.169172 -0.352753 -0.099697
v -0.729904 -0.313524 0.181233
v -0.520424 -0.279537 -0.088064
v -0.729904 -0.313524 0.181233
v -0.782911 -0.310563 -0.085953
v -0.520424 -0.279537 -0.088064
v -0.175283 -0.321175 0.082494
v -0.679907 -0.289938 0.321401
v -0.729904 -0.313524 0.181233
v -0.175283 -0.321175 0.082494
v 0.002329 -0.223357 0.190704
v -0.679907 -0.289938 0.321401
v 0.002329 -0.223357 0.190704
v 0.237364 -0.203078 0.222441
v -0.679907 -0.289938 0.321401
v 0.534515 -0.288464 -0.073245
v 0.055878 -0.334948 -0.065830
v 0.448507 -0.360644 -0.279573
v 0.534515 -0.288464 -0.073245
v 0.538464 -0.340797 0.079890
v 0.055878 -0.334948 -0.065830
v 0.411144 -0.343544 0.131694
v 0.139679 -0.321738 0.072470
v 0.538464 -0.340797 0.079890
v 0.538464 -0.340797 0.079890
v 0.139679 -0.321738 0.072470
v 0.055878 -0.334948 -0.065830
v 0.139679 -0.321738 0.072470
v -0.175283 -0.321175 0.082494
v 0.055878 -0.334948 -0.065830
v 0.002329 -0.223357 0.190704
v 0.411144 -0.343544 0.131694
v 0.237364 -0.203078 0.222441
v -0.175283 -0.321175 0.082494
v 0.139679 -0.321738 0.072470
v 0.002329 -0.223357 0.190704
v 0.139679 -0.321738 0.072470
v 0.411144 -0.343544 0.131694
v 0.002329 -0.223357 0.190704
vt 0.454545 1.000000
vt 0.430930 0.928664
vt 0.494960 0.929998
vt 0.567884 0.803689
vt 0.468236 0.857360
vt 0.543482 0.767225
vt 0.803117 0.809550
vt 0.852747 0.787975
vt 0.931817 0.803174
vt 0.854709 0.693403
vt 0.744750 0.685079
vt 0.769906 0.645714
vt 0.324098 0.670640
vt 0.215952 0.704687
vt 0.211207 0.578522
vt 0.639829 0.719118
vt 0.586764 0.685235
vt 0.584114 0.597156
vt 0.584114 0.597156
vt 0.475794 0.655672
vt 0.540997 0.535338
vt 0.584114 0.597156
vt 0.586764 0.685235
vt 0.475794 0.655672
vt 0.438158 0.655672
vt 0.324098 0.670640
vt 0.334924 0.579694
vt 0.211207 0.578522
vt 0.184044 0.610205
vt 0.147905 0.586357
vt 0.184044 0.610205
vt 0.157201 0.648986
vt 0.147905 0.586357
vt 0.211207 0.578522
vt 0.215952 0.704687
vt 0.184044 0.610205
vt 0.215952 0.704687
vt 0.159688 0.723410
vt 0.184044 0.610205
vt 0.184044 0.610205
vt 0.159688 0.723410
vt 0.157201 0.648986
vt 0.157201 0.648986
vt 0.074310 0.713829
vt 0.147905 0.586357
vt 0.942333 0.586357
vt 0.913058 0.678206
vt 0.894277 0.624905
vt 0.942333 0.586357
vt 0.949958 0.713829
vt 0.913058 0.678206
vt 0.913058 0.678206
vt 0.854709 0.693403
vt 0.894277 0.624905
vt 0.894277 0.624905
vt 0.854709 0.693403
vt 0.840908 0.645714
vt 0.749999 0.566983
vt 0.694043 0.606563
vt 0.727272 0.527618
vt 0.772726 0.606349
vt 0.694043 0.606563
vt 0.749999 0.566983
vt 0.772726 0.606349
vt 0.769906 0.645714
vt 0.694043 0.606563
vt 0.769906 0.645714
vt 0.704545 0.645714
vt 0.694043 0.606563
vt 0.769906 0.645714
vt 0.744750 0.685079
vt 0.704545 0.645714
vt 0.744750 0.685079
vt 0.692546 0.703661
vt 0.704545 0.645714
vt 0.704545 0.645714
vt 0.692546 0.703661
vt 0.694043 0.606563
vt 0.692546 0.703661
vt 0.639829 0.719118
vt 0.694043 0.606563
vt 0.590909 0.763809
vt 0.568181 0.724444
vt 0.639829 0.719118
vt 0.567884 0.803689
vt 0.543482 0.767225
vt 0.590909 0.763809
vt 0.639829 0.719118
vt 0.568181 0.724444
vt 0.586764 0.685235
vt 0.590909 0.763809
vt 0.543482 0.767225
vt 0.568181 0.724444
vt 0.543482 0.767225
vt 0.586764 0.685235
vt 0.568181 0.724444
vt 0.543482 0.767225
vt 0.488935 0.775851
vt 0.586764 0.685235
vt 0.488935 0.775851
vt 0.438158 0.655672
vt 0.586764 0.685235
vt 0.405074 0.784020
vt 0.324098 0.670640
vt 0.438158 0.655672
vt 0.405074 0.784020
vt 0.346289 0.818176
vt 0.324098 0.670640
vt 0.250000 0.724444
vt 0.215952 0.704687
vt 0.324098 0.670640
vt 0.227272 0.763809
vt 0.215952 0.704687
vt 0.250000 0.724444
vt 0.190694 0.849184
vt 0.163806 0.795007
vt 0.227272 0.763809
vt 0.227272 0.763809
vt 0.163806 0.795007
vt 0.215952 0.704687
vt 0.163806 0.795007
vt 0.159688 0.723410
vt 0.215952 0.704687
vt 0.163806 0.795007
vt 0.118097 0.732170
vt 0.159688 0.723410
vt 0.159688 0.723410
vt 0.118097 0.732170
vt 0.157201 0.648986
vt 0.118097 0.732170
vt 0.074310 0.713829
vt 0.157201 0.648986
vt 0.931817 0.803174
vt 0.892320 0.734763
vt 0.954545 0.763809
vt 0.954545 0.763809
vt 0.892320 0.734763
vt 0.949958 0.713829
vt 0.949958 0.713829
vt 0.892320 0.734763
vt 0.913058 0.678206
vt 0.892320 0.734763
vt 0.854709 0.693403
vt 0.913058 0.678206
vt 0.931817 0.803174
vt 0.852747 0.787975
vt 0.892320 0.734763
vt 0.852747 0.787975
vt 0.854709 0.693403
vt 0.892320 0.734763
vt 0.816469 0.760843
vt 0.744750 0.685079
vt 0.854709 0.693403
vt 0.736096 0.803174
vt 0.727272 0.763809
vt 0.771349 0.761423
vt 0.816469 0.760843
vt 0.771349 0.761423
vt 0.744750 0.685079
vt 0.727272 0.763809
vt 0.692546 0.703661
vt 0.771349 0.761423
vt 0.771349 0.761423
vt 0.692546 0.703661
vt 0.744750 0.685079
vt 0.736096 0.803174
vt 0.681817 0.763809
vt 0.727272 0.763809
vt 0.727272 0.763809
vt 0.681817 0.763809
vt 0.692546 0.703661
vt 0.681817 0.763809
vt 0.639829 0.719118
vt 0.692546 0.703661
vt 0.438158 0.655672
vt 0.488935 0.775851
vt 0.405074 0.784020
vt 0.543482 0.767225
vt 0.468236 0.857360
vt 0.488935 0.775851
vt 0.488935 0.775851
vt 0.468236 0.857360
vt 0.405074 0.784020
vt 0.468236 0.857360
vt 0.407914 0.869514
vt 0.405074 0.784020
vt 0.407914 0.869514
vt 0.346289 0.818176
vt 0.405074 0.784020
vt 0.346289 0.818176
vt 0.274868 0.767517
vt 0.324098 0.670640
vt 0.324098 0.670640
vt 0.274868 0.767517
vt 0.250000 0.724444
vt 0.274868 0.767517
vt 0.227272 0.763809
vt 0.250000 0.724444
vt 0.274868 0.767517
vt 0.261151 0.847429
vt 0.227272 0.763809
vt 0.261151 0.847429
vt 0.190694 0.849184
vt 0.227272 0.763809
vt 0.346289 0.818176
vt 0.261151 0.847429
vt 0.274868 0.767517
vt 0.163806 0.795007
vt 0.069472 0.789299
vt 0.118097 0.732170
vt 0.118097 0.732170
vt 0.069472 0.789299
vt 0.074310 0.713829
vt 0.163806 0.795007
vt 0.173888 0.842094
vt 0.069472 0.789299
vt 0.173888 0.842094
vt 0.095477 0.850451
vt 0.069472 0.789299
vt 0.095477 0.850451
vt 0.030508 0.816650
vt 0.069472 0.789299
vt 0.852747 0.787975
vt 0.816469 0.760843
vt 0.854709 0.693403
vt 0.852747 0.787975
vt 0.803117 0.809550
vt 0.816469 0.760843
vt 0.816469 0.760843
vt 0.803117 0.809550
vt 0.771349 0.761423
vt 0.803117 0.809550
vt 0.736096 0.803174
vt 0.771349 0.761423
vt 0.803117 0.809550
vt 0.758598 0.867011
vt 0.736096 0.803174
vt 0.758598 0.867011
vt 0.706648 0.844515
vt 0.736096 0.803174
vt 0.681817 0.763809
vt 0.636363 0.763809
vt 0.639829 0.719118
vt 0.736096 0.803174
vt 0.659090 0.803174
vt 0.681817 0.763809
vt 0.636363 0.763809
vt 0.590909 0.763809
vt 0.639829 0.719118
vt 0.681817 0.763809
vt 0.659090 0.803174
vt 0.636363 0.763809
vt 0.659090 0.803174
vt 0.613636 0.803174
vt 0.636363 0.763809
vt 0.636363 0.763809
vt 0.613636 0.803174
vt 0.590909 0.763809
vt 0.613636 0.803174
vt 0.567884 0.803689
vt 0.590909 0.763809
vt 0.736096 0.803174
vt 0.706648 0.844515
vt 0.659090 0.803174
vt 0.706648 0.844515
vt 0.632005 0.842539
vt 0.659090 0.803174
vt 0.659090 0.803174
vt 0.632005 0.842539
vt 0.613636 0.803174
vt 0.613636 0.803174
vt 0.632005 0.842539
vt 0.567884 0.803689
vt 0.494960 0.929998
vt 0.468236 0.857360
vt 0.567884 0.803689
vt 0.494960 0.929998
vt 0.430930 0.928664
vt 0.468236 0.857360
vt 0.430930 0.928664
vt 0.407914 0.869514
vt 0.468236 0.857360
vt 0.312179 0.925662
vt 0.261151 0.847429
vt 0.340909 0.881904
vt 0.340909 0.881904
vt 0.261151 0.847429
vt 0.346289 0.818176
vt 0.262093 0.981582
vt 0.227272 0.921269
vt 0.312179 0.925662
vt 0.312179 0.925662
vt 0.227272 0.921269
vt 0.261151 0.847429
vt 0.227272 0.921269
vt 0.190694 0.849184
vt 0.261151 0.847429
vt 0.086306 0.962046
vt 0.030508 0.816650
vt 0.095477 0.850451
vt 0.086306 0.962046
vt 0.022727 0.881904
vt 0.030508 0.816650
vt 0.022727 0.881904
vt 0.000000 0.842539
vt 0.030508 0.816650
vt 0.632005 0.842539
vt 0.598279 0.925960
vt 0.567884 0.803689
vt 0.632005 0.842539
vt 0.706648 0.844515
vt 0.598279 0.925960
vt 0.704545 0.881904
vt 0.681817 0.921269
vt 0.706648 0.844515
vt 0.706648 0.844515
vt 0.681817 0.921269
vt 0.598279 0.925960
vt 0.681817 0.921269
vt 0.641338 0.991382
vt 0.598279 0.925960
vt 0.827336 0.881904
vt 0.758598 0.867011
vt 0.803117 0.809550
vt 0.826238 0.972807
vt 0.772726 0.921269
vt 0.827336 0.881904
vt 0.772726 0.921269
vt 0.758598 0.867011
vt 0.827336 0.881904
vn 0.0519 -0.9837 0.1722
vn -0.2246 -0.7094 -0.6681
vn 0.1368 -0.4244 0.8951
vn 0.2547 0.4679 0.8463
vn -0.3737 0.9202 -0.1166
vn 0.6307 0.7615 -0.1494
vn -0.2027 0.7339 -0.6483
vn 0.1456 0.5865 -0.7967
vn -0.0969 0.8290 -0.5508
vn 0.2571 0.8482 -0.4631
vn -0.2887 0.9519 0.1021
vn -0.0046 0.2825 -0.9593
vn -0.6542 0.7328 -0.1871
vn -0.5541 0.3768 -0.7423
vn -0.3509 0.7032 0.6184
vn -0.3851 0.6083 0.6941
vn -0.2093 0.6607 0.7209
vn -0.0717 0.4593 0.8854
vn 0.1593 0.5382 0.8276
vn -0.2111 0.7852 -0.5821
vn -0.1685 0.8734 -0.4568
vn -0.0889 0.9315 -0.3526
vn 0.2569 0.9421 -0.2155
vn 0.4769 0.7943 0.3764
vn 0.8335 0.5433 0.1005
vn 0.5304 0.2057 -0.8224
vn 0.6403 0.7472 0.1780
vn 0.9104 0.3132 -0.2702
vn 0.4871 -0.4558 -0.7449
vn 0.7113 0.5980 -0.3693
vn 0.4785 0.0340 -0.8774
vn -0.1098 0.3262 -0.9389
vn 0.0245 0.3266 -0.9449
vn 0.1348 0.1747 -0.9754
vn -0.2391 0.3027 -0.9226
vn -0.3833 0.1551 -0.9105
vn -0.3534 0.7835 -0.5111
vn -0.8686 -0.4440 -0.2198
vn -0.7174 0.3451 -0.6052
vn -0.4840 -0.2114 -0.8491
vn -0.9223 0.1356 -0.3618
vn -0.8696 -0.2592 0.4203
vn -0.5623 0.6635 0.4935
vn -0.4649 0.6560 0.5945
vn -0.0557 0.0872 0.9946
vn -0.0395 0.0437 0.9983
vn -0.0264 0.4046 0.9141
vn -0.0678 0.3895 0.9185
vn 0.0273 -0.0324 0.9991
vn 0.1529 0.1601 0.9752
vn 0.2810 0.3712 0.8850
vn 0.2159 0.2069 0.9543
vn 0.6498 0.0747 0.7564
vn 0.2495 0.3546 0.9011
vn 0.4829 0.0687 0.8730
vn 0.5509 0.1169 0.8263
vn 0.5377 0.5589 0.6313
vn 0.5764 0.8087 0.1175
vn -0.0115 0.1269 -0.9918
vn -0.2575 -0.3060 -0.9166
vn -0.0798 -0.4502 -0.8894
vn -0.0422 -0.4160 -0.9084
vn -0.1413 -0.4032 -0.9042
vn -0.1882 0.2386 -0.9527
vn 0.1467 0.0766 -0.9862
vn -0.2263 -0.6703 -0.7068
vn -0.3234 -0.3777 -0.8676
vn -0.0009 -0.0600 -0.9982
vn -0.3857 -0.3775 -0.8419
vn -0.9355 0.3445 -0.0784
vn -0.4728 0.5852 0.6588
vn -0.9556 -0.2883 -0.0607
vn -0.6110 -0.7836 0.1125
vn -0.4479 -0.8418 0.3014
vn 0.0183 0.1590 0.9871
vn 0.1152 -0.4741 0.8729
vn 0.6528 -0.0258 0.7571
vn 0.3287 0.3431 0.8799
vn 0.1793 -0.3677 0.9125
vn 0.2789 -0.7089 0.6478
vn 0.5774 0.8086 0.1134
vn 0.6243 -0.1441 0.7678
vn 0.1670 0.4755 -0.8637
vn 0.8862 0.4575 0.0731
vn 0.2513 -0.3331 -0.9088
vn 0.3180 -0.8758 0.3630
vn 0.2674 -0.8814 0.3894
vn 0.4234 -0.7469 0.5127
vn 0.0214 -0.9459 -0.3238
vn 0.0158 -0.8597 -0.5106
vn 0.4554 -0.8823 0.1189
vn -0.1994 -0.9468 -0.2524
vn 0.1311 -0.9103 -0.3927
vn -0.0275 -0.8215 -0.5695
vn -0.1897 -0.8258 -0.5310
vn -0.2740 -0.5536 -0.7864
vn 0.0169 -0.9851 0.1713
vn -0.2048 -0.9385 -0.2778
vn 0.1170 -0.9925 -0.0342
vn 0.0150 -0.9869 0.1607
vn 0.1765 -0.8567 0.4847
vn 0.0905 -0.9953 -0.0345
vn 0.0969 -0.9514 0.2924
vn 0.0865 -0.9420 -0.3242
vn -0.0441 -0.9860 -0.1607
vn -0.0497 -0.9909 0.1248
vn 0.0012 -0.9955 0.0944
vn -0.0576 -0.5911 0.8045
vn 0.0194 -0.7573 0.6527
vn -0.1771 -0.8479 0.4997
usemtl cloud.002
s off
f 1/1/1 2/2/1 3/3/1
f 4/4/2 5/5/2 6/6/2
f 7/7/3 8/8/3 9/9/3
f 10/10/4 11/11/4 12/12/4
f 13/13/5 14/14/5 15/15/5
f 16/16/6 17/17/6 18/18/6
f 19/19/7 20/20/7 21/21/7
f 22/22/8 23/23/8 24/24/8
f 25/25/9 26/26/9 27/27/9
f 28/28/10 29/29/10 30/30/10
f 31/31/11 32/32/11 33/33/11
f 34/34/12 35/35/12 36/36/12
f 37/37/13 38/38/13 39/39/13
f 40/40/14 41/41/14 42/42/14
f 43/43/15 44/44/15 45/45/15
f 46/46/16 47/47/16 48/48/16
f 49/49/17 50/50/17 51/51/17
f 52/52/18 53/53/18 54/54/18
f 55/55/19 56/56/19 57/57/19
f 58/58/20 59/59/20 60/60/20
f 61/61/21 62/62/21 63/63/21
f 64/64/22 65/65/22 66/66/22
f 67/67/23 68/68/23 69/69/23
f 70/70/24 71/71/24 72/72/24
f 73/73/25 74/74/25 75/75/25
f 76/76/26 77/77/26 78/78/26
f 79/79/27 80/80/27 81/81/27
f 82/82/28 83/83/28 84/84/28
f 85/85/29 86/86/29 87/87/29
f 88/88/30 89/89/30 90/90/30
f 91/91/31 92/92/31 93/93/31
f 94/94/32 95/95/32 96/96/32
f 97/97/33 98/98/33 99/99/33
f 100/100/34 101/101/34 102/102/34
f 103/103/35 104/104/35 105/105/35
f 106/106/36 107/107/36 108/108/36
f 109/109/37 110/110/37 111/111/37
f 112/112/38 113/113/38 114/114/38
f 115/115/39 116/116/39 117/117/39
f 118/118/40 119/119/40 120/120/40
f 121/121/41 122/122/41 123/123/41
f 124/124/42 125/125/42 126/126/42
f 127/127/43 128/128/43 129/129/43
f 130/130/44 131/131/44 132/132/44
f 133/133/45 134/134/45 135/135/45
f 136/136/46 137/137/46 138/138/46
f 139/139/47 140/140/47 141/141/47
f 142/142/48 143/143/48 144/144/48
f 145/145/49 146/146/49 147/147/49
f 148/148/50 149/149/50 150/150/50
f 151/151/51 152/152/51 153/153/51
f 154/154/52 155/155/52 156/156/52
f 157/157/53 158/158/53 159/159/53
f 160/160/54 161/161/54 162/162/54
f 163/163/55 164/164/55 165/165/55
f 166/166/56 167/167/56 168/168/56
f 169/169/57 170/170/57 171/171/57
f 172/172/58 173/173/58 174/174/58
f 175/175/59 176/176/59 177/177/59
f 178/178/60 179/179/60 180/180/60
f 181/181/61 182/182/61 183/183/61
f 184/184/62 185/185/62 186/186/62
f 187/187/63 188/188/63 189/189/63
f 190/190/64 191/191/64 192/192/64
f 193/193/65 194/194/65 195/195/65
f 196/196/66 197/197/66 198/198/66
f 199/199/67 200/200/67 201/201/67
f 202/202/68 203/203/68 204/204/68
f 205/205/69 206/206/69 207/207/69
f 208/208/70 209/209/70 210/210/70
f 211/211/71 212/212/71 213/213/71
f 214/214/72 215/215/72 216/216/72
f 217/217/73 218/218/73 219/219/73
f 220/220/74 221/221/74 222/222/74
f 223/223/75 224/224/75 225/225/75
f 226/226/76 227/227/76 228/228/76
f 229/229/77 230/230/77 231/231/77
f 232/232/78 233/233/78 234/234/78
f 235/235/79 236/236/79 237/237/79
f 238/238/80 239/239/80 240/240/80
f 241/241/81 242/242/81 243/243/81
f 244/244/82 245/245/82 246/246/82
f 247/247/83 248/248/83 249/249/83
f 250/250/84 251/251/84 252/252/84
f 253/253/85 254/254/85 255/255/85
f 256/256/86 257/257/86 258/258/86
f 259/259/87 260/260/87 261/261/87
f 262/262/88 263/263/88 264/264/88
f 265/265/89 266/266/89 267/267/89
f 268/268/90 269/269/90 270/270/90
f 271/271/91 272/272/91 273/273/91
f 274/274/92 275/275/92 276/276/92
f 277/277/93 278/278/93 279/279/93
f 280/280/94 281/281/94 282/282/94
f 283/283/95 284/284/95 285/285/95
f 286/286/96 287/287/96 288/288/96
f 289/289/97 290/290/97 291/291/97
f 292/292/98 293/293/98 294/294/98
f 295/295/99 296/296/99 297/297/99
f 298/298/100 299/299/100 300/300/100
f 301/301/101 302/302/101 303/303/101
f 304/304/102 305/305/102 306/306/102
f 307/307/103 308/308/103 309/309/103
f 310/310/104 311/311/104 312/312/104
f 313/313/105 314/314/105 315/315/105
f 316/316/106 317/317/106 318/318/106
f 319/319/107 320/320/107 321/321/107
f 322/322/108 323/323/108 324/324/108
f 325/325/109 326/326/109 327/327/109
f 328/328/110 329/329/110 330/330/110
