# Blender v2.82 (sub 7) OBJ File: 'RaceTrack1.blend'
# www.blender.org
mtllib Cloud.mtl
o Cloud_Object_88_Object_42.001
v -0.299803 -0.390167 -0.037807
v -0.031076 -0.288109 -0.000148
v -0.194946 -0.295263 0.186986
v -0.194946 -0.295263 0.186986
v -0.031076 -0.288109 -0.000148
v -0.103901 -0.017211 0.206670
v -0.249197 -0.250156 -0.237206
v -0.300615 -0.030631 -0.271557
v -0.018660 -0.019324 -0.137146
v -0.194946 -0.295263 0.186986
v -0.103901 -0.017211 0.206670
v -0.342049 -0.097564 0.254579
v -0.394590 -0.248946 0.182721
v -0.342049 -0.097564 0.254579
v -0.524300 -0.183569 -0.040796
v -0.300615 -0.030631 -0.271557
v -0.476265 0.063427 -0.007885
v -0.206518 0.165291 -0.038000
v -0.018660 -0.019324 -0.137146
v -0.300615 -0.030631 -0.271557
v -0.206518 0.165291 -0.038000
v -0.103901 -0.017211 0.206670
v -0.018660 -0.019324 -0.137146
v -0.206518 0.165291 -0.038000
v -0.476265 0.063427 -0.007885
v -0.318121 0.071675 0.184069
v -0.206518 0.165291 -0.038000
v -0.318121 0.071675 0.184069
v -0.103901 -0.017211 0.206670
v -0.206518 0.165291 -0.038000
v -0.524300 -0.183569 -0.040796
v -0.342049 -0.097564 0.254579
v -0.476265 0.063427 -0.007885
v -0.342049 -0.097564 0.254579
v -0.318121 0.071675 0.184069
v -0.476265 0.063427 -0.007885
v -0.342049 -0.097564 0.254579
v -0.103901 -0.017211 0.206670
v -0.318121 0.071675 0.184069
v 0.019619 -0.126360 0.000151
v -0.018660 -0.019324 -0.137146
v -0.103901 -0.017211 0.206670
v -0.300615 -0.030631 -0.271557
v -0.524300 -0.183569 -0.040796
v -0.476265 0.063427 -0.007885
v -0.394590 -0.248946 0.182721
v -0.194946 -0.295263 0.186986
v -0.342049 -0.097564 0.254579
v -0.103901 -0.017211 0.206670
v -0.031076 -0.288109 -0.000148
v 0.019619 -0.126360 0.000151
v 0.019619 -0.126360 0.000151
v -0.031076 -0.288109 -0.000148
v -0.018660 -0.019324 -0.137146
v -0.031076 -0.288109 -0.000148
v -0.249197 -0.250156 -0.237206
v -0.018660 -0.019324 -0.137146
v -0.249197 -0.250156 -0.237206
v -0.524300 -0.183569 -0.040796
v -0.300615 -0.030631 -0.271557
v -0.299803 -0.390167 -0.037807
v -0.194946 -0.295263 0.186986
v -0.394590 -0.248946 0.182721
v -0.299803 -0.390167 -0.037807
v -0.249197 -0.250156 -0.237206
v -0.031076 -0.288109 -0.000148
v -0.524300 -0.183569 -0.040796
v -0.299803 -0.390167 -0.037807
v -0.394590 -0.248946 0.182721
v -0.299803 -0.390167 -0.037807
v -0.524300 -0.183569 -0.040796
v -0.249197 -0.250156 -0.237206
v 0.182838 -0.324067 -0.094573
v 0.401318 -0.229156 0.094611
v 0.230120 -0.217660 0.263528
v 0.182838 -0.324067 -0.094573
v 0.230120 -0.217660 0.263528
v -0.000755 -0.310644 0.000375
v 0.230120 -0.217660 0.263528
v 0.401318 -0.229156 0.094611
v 0.354950 0.163563 0.290515
v -0.153082 -0.155194 -0.102603
v -0.225084 0.052359 -0.004059
v 0.039200 0.051343 -0.356503
v 0.155741 -0.155817 -0.318060
v 0.039200 0.051343 -0.356503
v 0.364971 0.032310 -0.285548
v 0.230120 -0.217660 0.263528
v 0.354950 0.163563 0.290515
v 0.028439 0.053397 0.356203
v -0.043602 -0.154156 0.257682
v 0.028439 0.053397 0.356203
v -0.225084 0.052359 -0.004059
v 0.153145 0.220244 -0.319184
v -0.153921 0.220872 -0.101229
v 0.119328 0.389779 -0.097588
v 0.455322 0.220891 -0.094503
v 0.153145 0.220244 -0.319184
v 0.299969 0.376919 0.002934
v 0.354950 0.163563 0.290515
v 0.455322 0.220891 -0.094503
v 0.299969 0.376919 0.002934
v -0.104774 0.295938 0.085457
v 0.061247 0.285432 0.259528
v 0.119328 0.389779 -0.097588
v 0.061247 0.285432 0.259528
v 0.299969 0.376919 0.002934
v 0.119328 0.389779 -0.097588
v 0.061247 0.285432 0.259528
v 0.354950 0.163563 0.290515
v 0.299969 0.376919 0.002934
v 0.299969 0.376919 0.002934
v 0.153145 0.220244 -0.319184
v 0.119328 0.389779 -0.097588
v 0.119328 0.389779 -0.097588
v -0.153921 0.220872 -0.101229
v -0.104774 0.295938 0.085457
v -0.225084 0.052359 -0.004059
v -0.104774 0.295938 0.085457
v -0.153921 0.220872 -0.101229
v -0.225084 0.052359 -0.004059
v 0.028439 0.053397 0.356203
v -0.104774 0.295938 0.085457
v 0.028439 0.053397 0.356203
v 0.061247 0.285432 0.259528
v -0.104774 0.295938 0.085457
v 0.028439 0.053397 0.356203
v 0.354950 0.163563 0.290515
v 0.061247 0.285432 0.259528
v 0.524300 0.013916 0.007368
v 0.455322 0.220891 -0.094503
v 0.354950 0.163563 0.290515
v 0.364971 0.032310 -0.285548
v 0.153145 0.220244 -0.319184
v 0.455322 0.220891 -0.094503
v 0.364971 0.032310 -0.285548
v 0.039200 0.051343 -0.356503
v 0.153145 0.220244 -0.319184
v 0.039200 0.051343 -0.356503
v -0.153921 0.220872 -0.101229
v 0.153145 0.220244 -0.319184
v 0.039200 0.051343 -0.356503
v -0.225084 0.052359 -0.004059
v -0.153921 0.220872 -0.101229
v -0.043602 -0.154156 0.257682
v 0.230120 -0.217660 0.263528
v 0.028439 0.053397 0.356203
v 0.354950 0.163563 0.290515
v 0.401318 -0.229156 0.094611
v 0.524300 0.013916 0.007368
v 0.401318 -0.229156 0.094611
v 0.456087 -0.155160 -0.090934
v 0.524300 0.013916 0.007368
v 0.524300 0.013916 0.007368
v 0.364971 0.032310 -0.285548
v 0.455322 0.220891 -0.094503
v 0.524300 0.013916 0.007368
v 0.456087 -0.155160 -0.090934
v 0.364971 0.032310 -0.285548
v 0.456087 -0.155160 -0.090934
v 0.155741 -0.155817 -0.318060
v 0.364971 0.032310 -0.285548
v 0.155741 -0.155817 -0.318060
v -0.153082 -0.155194 -0.102603
v 0.039200 0.051343 -0.356503
v -0.153082 -0.155194 -0.102603
v -0.043602 -0.154156 0.257682
v -0.225084 0.052359 -0.004059
v -0.000755 -0.310644 0.000375
v 0.230120 -0.217660 0.263528
v -0.043602 -0.154156 0.257682
v 0.401318 -0.229156 0.094611
v 0.182838 -0.324067 -0.094573
v 0.456087 -0.155160 -0.090934
v 0.182838 -0.324067 -0.094573
v 0.155741 -0.155817 -0.318060
v 0.456087 -0.155160 -0.090934
v -0.153082 -0.155194 -0.102603
v -0.000755 -0.310644 0.000375
v -0.043602 -0.154156 0.257682
v 0.182838 -0.324067 -0.094573
v -0.000755 -0.310644 0.000375
v 0.155741 -0.155817 -0.318060
v -0.000755 -0.310644 0.000375
v -0.153082 -0.155194 -0.102603
v 0.155741 -0.155817 -0.318060
vt 0.272727 1.000000
vt 0.194689 0.862847
vt 0.340601 0.882438
vt 0.340601 0.882438
vt 0.194689 0.862847
vt 0.318592 0.711394
vt 0.863020 0.842539
vt 0.840484 0.725695
vt 0.985060 0.710955
vt 0.340601 0.882438
vt 0.318592 0.711394
vt 0.454545 0.763809
vt 0.499383 0.842539
vt 0.454545 0.763809
vt 0.658736 0.803093
vt 0.840484 0.725695
vt 0.623492 0.664771
vt 0.750307 0.567517
vt 0.985060 0.710955
vt 0.840484 0.725695
vt 0.921388 0.587550
vt 0.318592 0.711394
vt 0.106898 0.710955
vt 0.181818 0.606349
vt 0.623492 0.664771
vt 0.477580 0.645180
vt 0.545454 0.527618
vt 0.431510 0.645180
vt 0.318592 0.711394
vt 0.340187 0.568234
vt 0.658736 0.803093
vt 0.454545 0.763809
vt 0.623492 0.664771
vt 0.454545 0.763809
vt 0.477580 0.645180
vt 0.623492 0.664771
vt 0.454545 0.763809
vt 0.318592 0.711394
vt 0.477580 0.645180
vt 0.181818 0.763809
vt 0.106898 0.710955
vt 0.318592 0.711394
vt 0.840484 0.725695
vt 0.658736 0.803093
vt 0.623492 0.664771
vt 0.499383 0.842539
vt 0.340601 0.882438
vt 0.454545 0.763809
vt 0.318592 0.711394
vt 0.194689 0.862847
vt 0.181818 0.763809
vt 0.181818 0.763809
vt 0.136065 0.883155
vt 0.106898 0.710955
vt 0.136065 0.883155
vt 0.000000 0.842539
vt 0.106898 0.710955
vt 0.863020 0.842539
vt 0.658736 0.803093
vt 0.840484 0.725695
vt 0.477994 0.959384
vt 0.386671 0.882438
vt 0.499383 0.842539
vt 0.067874 0.960101
vt 0.000000 0.842539
vt 0.136065 0.883155
vt 0.658736 0.803093
vt 0.636363 0.921269
vt 0.499383 0.842539
vt 0.805883 0.940068
vt 0.658736 0.803093
vt 0.863020 0.842539
vt 0.272727 1.000000
vt 0.250000 0.881904
vt 0.340601 0.882438
vt 0.454545 1.000000
vt 0.386671 0.882438
vt 0.500000 0.921269
vt 0.340601 0.882438
vt 0.250000 0.881904
vt 0.318592 0.711394
vt 0.681202 0.842539
vt 0.636363 0.763809
vt 0.818181 0.763809
vt 0.863020 0.842539
vt 0.818181 0.763809
vt 0.954545 0.763809
vt 0.340601 0.882438
vt 0.318592 0.711394
vt 0.454545 0.763809
vt 0.499383 0.842539
vt 0.454545 0.763809
vt 0.636363 0.763809
vt 0.864252 0.685079
vt 0.682434 0.685079
vt 0.750307 0.567517
vt 1.000000 0.685079
vt 0.864252 0.685079
vt 0.954545 0.606349
vt 0.318592 0.711394
vt 0.136979 0.685079
vt 0.181818 0.606349
vt 0.568181 0.645714
vt 0.477580 0.645180
vt 0.545454 0.527618
vt 0.431510 0.645180
vt 0.318182 0.606349
vt 0.363636 0.527618
vt 0.431510 0.645180
vt 0.318592 0.711394
vt 0.318182 0.606349
vt 0.954545 0.606349
vt 0.864252 0.685079
vt 0.886055 0.567517
vt 0.750307 0.567517
vt 0.682434 0.685079
vt 0.681818 0.606349
vt 0.636363 0.763809
vt 0.568181 0.645714
vt 0.682434 0.685079
vt 0.636363 0.763809
vt 0.454545 0.763809
vt 0.568181 0.645714
vt 0.454545 0.763809
vt 0.477580 0.645180
vt 0.568181 0.645714
vt 0.454545 0.763809
vt 0.318592 0.711394
vt 0.477580 0.645180
vt 0.181818 0.763809
vt 0.136979 0.685079
vt 0.318592 0.711394
vt 0.954545 0.763809
vt 0.864252 0.685079
vt 1.000000 0.685079
vt 0.954545 0.763809
vt 0.818181 0.763809
vt 0.864252 0.685079
vt 0.818181 0.763809
vt 0.682434 0.685079
vt 0.864252 0.685079
vt 0.818181 0.763809
vt 0.636363 0.763809
vt 0.682434 0.685079
vt 0.499383 0.842539
vt 0.340601 0.882438
vt 0.454545 0.763809
vt 0.318592 0.711394
vt 0.250000 0.881904
vt 0.181818 0.763809
vt 0.250000 0.881904
vt 0.135747 0.842539
vt 0.181818 0.763809
vt 0.181818 0.763809
vt 0.045454 0.763809
vt 0.136979 0.685079
vt 0.181818 0.763809
vt 0.135747 0.842539
vt 0.045454 0.763809
vt 0.135747 0.842539
vt 0.000000 0.842539
vt 0.045454 0.763809
vt 0.863020 0.842539
vt 0.681202 0.842539
vt 0.818181 0.763809
vt 0.681202 0.842539
vt 0.499383 0.842539
vt 0.636363 0.763809
vt 0.500000 0.921269
vt 0.386671 0.882438
vt 0.499383 0.842539
vt 0.136363 0.921269
vt 0.067874 0.960101
vt 0.135747 0.842539
vt 0.067874 0.960101
vt 0.000000 0.842539
vt 0.135747 0.842539
vt 0.681202 0.842539
vt 0.636363 0.921270
vt 0.499383 0.842539
vt 0.841216 0.960101
vt 0.772726 0.921269
vt 0.863020 0.842539
vt 0.772726 0.921269
vt 0.681202 0.842539
vt 0.863020 0.842539
vn 0.3149 -0.9181 0.2407
vn 0.7270 -0.2824 0.6259
vn 0.4313 -0.0400 -0.9013
vn 0.2426 -0.1473 0.9589
vn -0.8567 0.0539 0.5129
vn -0.3527 0.7820 -0.5139
vn 0.2979 0.6689 -0.6811
vn 0.7360 0.6531 0.1785
vn -0.3220 0.9194 0.2258
vn 0.2890 0.8215 0.4916
vn -0.8595 0.1004 0.5011
vn -0.7309 0.3480 0.5872
vn 0.0588 0.3768 0.9244
vn 0.8141 0.5457 0.1985
vn -0.7704 0.2291 -0.5950
vn -0.1110 -0.3945 0.9122
vn 0.7707 -0.2426 0.5892
vn 0.8542 -0.2669 -0.4462
vn 0.6545 -0.3671 -0.6610
vn -0.6020 -0.2592 -0.7553
vn -0.2098 -0.8619 0.4617
vn 0.3703 -0.8018 -0.4690
vn -0.6679 -0.7232 0.1760
vn -0.5531 -0.6093 -0.5682
vn 0.1895 -0.9478 0.2566
vn 0.0723 -0.9586 0.2753
vn 0.6675 -0.2678 0.6948
vn -0.8000 0.0073 -0.5999
vn 0.2088 -0.0636 -0.9759
vn -0.8178 0.0107 0.5754
vn -0.4183 0.6895 -0.5913
vn 0.4015 0.7382 -0.5421
vn 0.7623 0.5809 0.2852
vn -0.1971 0.9492 0.2453
vn -0.0805 0.9602 0.2675
vn 0.2738 0.7967 0.5388
vn 0.3520 0.7685 -0.5343
vn -0.5132 0.8345 -0.2005
vn -0.9043 0.4214 0.0686
vn -0.8033 0.1892 0.5647
vn -0.6623 0.3660 0.6538
vn 0.8574 0.4271 0.2871
vn 0.5270 0.4669 -0.7101
vn 0.2162 0.0693 -0.9739
vn -0.5021 0.4954 -0.7089
vn -0.8000 -0.0081 -0.5999
vn 0.7933 -0.1942 0.5771
vn 0.9017 -0.4210 0.0983
vn 0.8785 0.0594 -0.4741
vn 0.8741 -0.0735 -0.4801
vn 0.5327 -0.4710 -0.7031
vn -0.5175 -0.4286 -0.7406
vn -0.8654 -0.4257 0.2642
vn -0.2077 -0.8507 0.4828
vn 0.5189 -0.8356 -0.1801
vn 0.4359 -0.6928 -0.5744
vn -0.7675 -0.5964 0.2349
vn -0.3358 -0.7716 -0.5402
vn -0.3850 -0.7414 -0.5497
usemtl cloud.002
s off
f 1/1/1 2/2/1 3/3/1
f 4/4/2 5/5/2 6/6/2
f 7/7/3 8/8/3 9/9/3
f 10/10/4 11/11/4 12/12/4
f 13/13/5 14/14/5 15/15/5
f 16/16/6 17/17/6 18/18/6
f 19/19/7 20/20/7 21/21/7
f 22/22/8 23/23/8 24/24/8
f 25/25/9 26/26/9 27/27/9
f 28/28/10 29/29/10 30/30/10
f 31/31/11 32/32/11 33/33/11
f 34/34/12 35/35/12 36/36/12
f 37/37/13 38/38/13 39/39/13
f 40/40/14 41/41/14 42/42/14
f 43/43/15 44/44/15 45/45/15
f 46/46/16 47/47/16 48/48/16
f 49/49/17 50/50/17 51/51/17
f 52/52/18 53/53/18 54/54/18
f 55/55/19 56/56/19 57/57/19
f 58/58/20 59/59/20 60/60/20
f 61/61/21 62/62/21 63/63/21
f 64/64/22 65/65/22 66/66/22
f 67/67/23 68/68/23 69/69/23
f 70/70/24 71/71/24 72/72/24
f 73/73/25 74/74/25 75/75/25
f 76/76/26 77/77/26 78/78/26
f 79/79/27 80/80/27 81/81/27
f 82/82/28 83/83/28 84/84/28
f 85/85/29 86/86/29 87/87/29
f 88/88/4 89/89/4 90/90/4
f 91/91/30 92/92/30 93/93/30
f 94/94/31 95/95/31 96/96/31
f 97/97/32 98/98/32 99/99/32
f 100/100/33 101/101/33 102/102/33
f 103/103/34 104/104/34 105/105/34
f 106/106/35 107/107/35 108/108/35
f 109/109/36 110/110/36 111/111/36
f 112/112/37 113/113/37 114/114/37
f 115/115/38 116/116/38 117/117/38
f 118/118/39 119/119/39 120/120/39
f 121/121/40 122/122/40 123/123/40
f 124/124/41 125/125/41 126/126/41
f 127/127/13 128/128/13 129/129/13
f 130/130/42 131/131/42 132/132/42
f 133/133/43 134/134/43 135/135/43
f 136/136/44 137/137/44 138/138/44
f 139/139/45 140/140/45 141/141/45
f 142/142/46 143/143/46 144/144/46
f 145/145/16 146/146/16 147/147/16
f 148/148/47 149/149/47 150/150/47
f 151/151/48 152/152/48 153/153/48
f 154/154/49 155/155/49 156/156/49
f 157/157/50 158/158/50 159/159/50
f 160/160/51 161/161/51 162/162/51
f 163/163/52 164/164/52 165/165/52
f 166/166/53 167/167/53 168/168/53
f 169/169/54 170/170/54 171/171/54
f 172/172/55 173/173/55 174/174/55
f 175/175/56 176/176/56 177/177/56
f 178/178/57 179/179/57 180/180/57
f 181/181/58 182/182/58 183/183/58
f 184/184/59 185/185/59 186/186/59
