# Blender v2.82 (sub 7) OBJ File: 'RaceTrack1.blend'
# www.blender.org
mtllib Cloud19.mtl
o Cloud19_Object_80_Object_38.001
v 0.065670 0.011052 -0.077755
v 0.113588 0.132706 -0.133737
v 0.160645 0.069718 -0.110931
v 0.034250 0.210769 -0.048684
v -0.024071 0.089084 -0.003723
v -0.004213 0.152276 0.044384
v 0.113588 0.132706 -0.133737
v 0.034250 0.210769 -0.048684
v 0.108076 0.224245 -0.061774
v 0.242329 0.100314 -0.007294
v 0.165142 0.014866 0.076200
v 0.178741 0.002814 -0.003624
v 0.078363 0.098084 0.133072
v 0.182180 0.207711 0.059566
v 0.101669 0.219559 0.068475
v -0.004213 0.152276 0.044384
v -0.024071 0.089084 -0.003723
v 0.078363 0.098084 0.133072
v 0.065670 0.011052 -0.077755
v 0.048355 -0.002251 -0.004770
v -0.024071 0.089084 -0.003723
v 0.242329 0.100314 -0.007294
v 0.218952 0.163955 -0.042028
v 0.182180 0.207711 0.059566
v -0.172091 -0.185521 -0.116381
v 0.016563 -0.148969 -0.126739
v -0.030016 -0.224598 -0.060562
v -0.010155 0.038416 -0.117027
v -0.198809 0.001804 -0.127173
v -0.152229 0.077815 -0.061433
v 0.016563 -0.148969 -0.126739
v -0.010155 0.038416 -0.117027
v 0.060083 -0.012284 -0.061174
v -0.010155 -0.184847 0.117245
v -0.198809 -0.148237 0.127393
v -0.152229 -0.224246 0.061652
v -0.207676 0.029772 0.102504
v 0.016563 0.002536 0.126959
v -0.030016 0.078167 0.060781
v -0.152229 0.077815 -0.061433
v -0.198809 0.001804 -0.127173
v -0.207676 0.029772 0.102504
v -0.172091 -0.185521 -0.116381
v -0.242329 -0.134499 -0.060821
v -0.198809 0.001804 -0.127173
v -0.010155 -0.184847 0.117245
v 0.060083 -0.134147 0.061392
v 0.016563 0.002536 0.126959
v 0.218952 0.163955 -0.042028
v 0.113588 0.132706 -0.133737
v 0.108076 0.224245 -0.061774
v 0.182180 0.207711 0.059566
v 0.101669 0.219559 0.068475
v 0.034250 0.210769 -0.048684
v -0.004213 0.152276 0.044384
v 0.078363 0.098084 0.133072
v 0.048355 -0.002251 -0.004770
v 0.165142 0.014866 0.076200
v 0.078363 0.098084 0.133072
v -0.024071 0.089084 -0.003723
v 0.113588 0.132706 -0.133737
v 0.065670 0.011052 -0.077755
v -0.024071 0.089084 -0.003723
v 0.034250 0.210769 -0.048684
v 0.048355 -0.002251 -0.004770
v 0.065670 0.011052 -0.077755
v 0.178741 0.002814 -0.003624
v 0.165142 0.014866 0.076200
v 0.218952 0.163955 -0.042028
v 0.242329 0.100314 -0.007294
v 0.160645 0.069718 -0.110931
v 0.113588 0.132706 -0.133737
v 0.165142 0.014866 0.076200
v 0.242329 0.100314 -0.007294
v 0.182180 0.207711 0.059566
v 0.078363 0.098084 0.133072
v 0.108076 0.224245 -0.061774
v 0.034250 0.210769 -0.048684
v 0.101669 0.219559 0.068475
v 0.182180 0.207711 0.059566
v 0.178741 0.002814 -0.003624
v 0.065670 0.011052 -0.077755
v 0.160645 0.069718 -0.110931
v 0.242329 0.100314 -0.007294
v 0.060083 -0.134147 0.061392
v 0.016563 -0.148969 -0.126739
v 0.060083 -0.012284 -0.061174
v 0.016563 0.002536 0.126959
v -0.030016 0.078167 0.060781
v -0.010155 0.038416 -0.117027
v -0.152229 0.077815 -0.061433
v -0.207676 0.029772 0.102504
v -0.242329 -0.134499 -0.060821
v -0.198809 -0.148237 0.127393
v -0.207676 0.029772 0.102504
v -0.198809 0.001804 -0.127173
v 0.016563 -0.148969 -0.126739
v -0.172091 -0.185521 -0.116381
v -0.198809 0.001804 -0.127173
v -0.010155 0.038416 -0.117027
v -0.242329 -0.134499 -0.060821
v -0.172091 -0.185521 -0.116381
v -0.152229 -0.224246 0.061652
v -0.198809 -0.148237 0.127393
v 0.060083 -0.134147 0.061392
v -0.010155 -0.184847 0.117245
v -0.030016 -0.224598 -0.060562
v 0.016563 -0.148969 -0.126739
v -0.198809 -0.148237 0.127393
v -0.010155 -0.184847 0.117245
v 0.016563 0.002536 0.126959
v -0.207676 0.029772 0.102504
v 0.060083 -0.012284 -0.061174
v -0.010155 0.038416 -0.117027
v -0.030016 0.078167 0.060781
v 0.016563 0.002536 0.126959
v -0.152229 -0.224246 0.061652
v -0.172091 -0.185521 -0.116381
v -0.030016 -0.224598 -0.060562
v -0.010155 -0.184847 0.117245
vt 0.199484 0.464760
vt 0.329748 0.470769
vt 0.300516 0.425516
vt 0.699484 0.464760
vt 0.829748 0.470769
vt 0.800516 0.425516
vt 0.449484 0.516021
vt 0.550516 0.574484
vt 0.550516 0.425516
vt 0.300516 0.285240
vt 0.170252 0.279231
vt 0.199484 0.324484
vt 0.826864 0.299122
vt 0.670252 0.279231
vt 0.699484 0.324484
vt 0.800516 0.425516
vt 0.829748 0.470769
vt 0.826864 0.299122
vt 0.449484 0.675516
vt 0.449484 0.824484
vt 0.550516 0.733979
vt 0.449484 0.175516
vt 0.449484 0.324484
vt 0.550516 0.233979
vt 0.199484 0.464760
vt 0.329748 0.470769
vt 0.300516 0.425516
vt 0.699484 0.464760
vt 0.829748 0.470769
vt 0.800516 0.425516
vt 0.449484 0.516021
vt 0.550516 0.574484
vt 0.550516 0.425516
vt 0.300516 0.285240
vt 0.170252 0.279231
vt 0.199484 0.324484
vt 0.826864 0.299122
vt 0.670252 0.279231
vt 0.699484 0.324484
vt 0.800516 0.425516
vt 0.829748 0.470769
vt 0.826864 0.299122
vt 0.449484 0.675516
vt 0.449484 0.824484
vt 0.550516 0.733979
vt 0.449484 0.175516
vt 0.449484 0.324484
vt 0.550516 0.233979
vt 0.449484 0.324484
vt 0.449484 0.516021
vt 0.550516 0.425516
vt 0.550516 0.233979
vt 0.699484 0.324484
vt 0.699484 0.464760
vt 0.800516 0.425516
vt 0.826864 0.299122
vt 0.449484 0.824484
vt 0.449484 0.925516
vt 0.550516 0.925516
vt 0.550516 0.733979
vt 0.449484 0.516021
vt 0.449484 0.675516
vt 0.550516 0.733979
vt 0.550516 0.574484
vt 0.125000 0.425516
vt 0.199484 0.464760
vt 0.199484 0.324484
vt 0.170252 0.279231
vt 0.449484 0.324484
vt 0.300516 0.285240
vt 0.300516 0.425516
vt 0.449484 0.516021
vt 0.449484 0.045252
vt 0.449484 0.175516
vt 0.550516 0.233979
vt 0.573290 0.048136
vt 0.550516 0.425516
vt 0.699484 0.464760
vt 0.699484 0.324484
vt 0.550516 0.233979
vt 0.199484 0.324484
vt 0.199484 0.464760
vt 0.300516 0.425516
vt 0.300516 0.285240
vt 0.449484 0.324484
vt 0.449484 0.516021
vt 0.550516 0.425516
vt 0.550516 0.233979
vt 0.699484 0.324484
vt 0.699484 0.464760
vt 0.800516 0.425516
vt 0.826864 0.299122
vt 0.449484 0.824484
vt 0.449484 0.925516
vt 0.550516 0.925516
vt 0.550516 0.733979
vt 0.449484 0.516021
vt 0.449484 0.675516
vt 0.550516 0.733979
vt 0.550516 0.574484
vt 0.125000 0.425516
vt 0.199484 0.464760
vt 0.199484 0.324484
vt 0.170252 0.279231
vt 0.449484 0.324484
vt 0.300516 0.285240
vt 0.300516 0.425516
vt 0.449484 0.516021
vt 0.449484 0.045252
vt 0.449484 0.175516
vt 0.550516 0.233979
vt 0.573290 0.048136
vt 0.550516 0.425516
vt 0.699484 0.464760
vt 0.699484 0.324484
vt 0.550516 0.233979
vt 0.199484 0.324484
vt 0.199484 0.464760
vt 0.300516 0.425516
vt 0.300516 0.285240
vn -0.0788 -0.3909 -0.9170
vn -0.9120 0.3879 -0.1331
vn -0.2442 0.5902 -0.7695
vn 0.8209 -0.5271 0.2195
vn 0.1624 0.4388 0.8838
vn -0.7761 -0.2090 0.5949
vn -0.7523 -0.5932 -0.2866
vn 0.8993 0.4113 0.1484
vn 0.0937 -0.6877 -0.7199
vn -0.0937 0.6835 -0.7239
vn 0.6742 0.1338 -0.7264
vn -0.0937 -0.6835 0.7239
vn -0.0023 0.6577 0.7533
vn -0.8064 0.5825 -0.1021
vn -0.6742 -0.1380 -0.7256
vn 0.6742 -0.1338 0.7264
vn 0.4859 0.7428 -0.4606
vn -0.5365 0.6528 0.5349
vn -0.5365 0.6527 0.5349
vn -0.4978 -0.6460 0.5787
vn -0.4978 -0.6460 0.5786
vn -0.6863 -0.0019 -0.7273
vn -0.6863 -0.0021 -0.7273
vn -0.6863 -0.0020 -0.7273
vn 0.0388 -0.9992 -0.0003
vn 0.0389 -0.9992 -0.0003
vn 0.7083 0.0749 -0.7019
vn 0.7083 0.0750 -0.7019
vn 0.6502 0.0081 0.7597
vn -0.0055 0.9993 0.0357
vn -0.0054 0.9993 0.0357
vn 0.5412 -0.6695 -0.5088
vn 0.5412 -0.6696 -0.5088
vn 1.0000 0.0000 0.0000
vn -0.0224 0.9996 0.0195
vn -0.0222 0.9996 0.0193
vn -0.0222 0.9996 0.0194
vn -0.9883 0.1314 0.0774
vn -0.9883 0.1314 0.0775
vn 0.0000 -0.0028 -1.0000
vn -0.0000 -0.0029 -1.0000
vn -0.0001 -0.0030 -1.0000
vn -0.7232 -0.6901 0.0263
vn -0.7232 -0.6902 0.0263
vn 0.7232 -0.6903 -0.0223
vn -0.0280 0.0428 0.9987
vn -0.0280 0.0429 0.9987
vn 0.7232 0.6903 0.0223
vn -0.0000 -1.0000 0.0029
usemtl cloud.002
s off
f 1/1/1 2/2/1 3/3/1
f 4/4/2 5/5/2 6/6/2
f 7/7/3 8/8/3 9/9/3
f 10/10/4 11/11/4 12/12/4
f 13/13/5 14/14/5 15/15/5
f 16/16/6 17/17/6 18/18/6
f 19/19/7 20/20/7 21/21/7
f 22/22/8 23/23/8 24/24/8
f 25/25/9 26/26/9 27/27/9
f 28/28/10 29/29/10 30/30/10
f 31/31/11 32/32/11 33/33/11
f 34/34/12 35/35/12 36/36/12
f 37/37/13 38/38/13 39/39/13
f 40/40/14 41/41/14 42/42/14
f 43/43/15 44/44/15 45/45/15
f 46/46/16 47/47/16 48/48/16
s 1
f 49/49/17 50/50/17 51/51/17
f 49/49/17 51/51/17 52/52/17
f 53/53/18 54/54/19 55/55/19
f 53/53/18 55/55/19 56/56/19
f 57/57/20 58/58/21 59/59/20
f 57/57/20 59/59/20 60/60/20
f 61/61/22 62/62/23 63/63/24
f 61/61/22 63/63/24 64/64/23
f 65/65/25 66/66/26 67/67/25
f 65/65/25 67/67/25 68/68/25
f 69/69/27 70/70/28 71/71/28
f 69/69/27 71/71/28 72/72/28
f 73/73/29 74/74/29 75/75/29
f 73/73/29 75/75/29 76/76/29
f 77/77/30 78/78/31 79/79/31
f 77/77/30 79/79/31 80/80/30
f 81/81/32 82/82/32 83/83/33
f 81/81/32 83/83/33 84/84/32
f 85/85/34 86/86/34 87/87/34
f 85/85/34 87/87/34 88/88/34
f 89/89/35 90/90/36 91/91/36
f 89/89/35 91/91/36 92/92/37
f 93/93/38 94/94/39 95/95/39
f 93/93/38 95/95/39 96/96/38
f 97/97/40 98/98/41 99/99/42
f 97/97/40 99/99/42 100/100/41
f 101/101/43 102/102/43 103/103/43
f 101/101/43 103/103/43 104/104/44
f 105/105/45 106/106/45 107/107/45
f 105/105/45 107/107/45 108/108/45
f 109/109/46 110/110/47 111/111/47
f 109/109/46 111/111/47 112/112/47
f 113/113/48 114/114/48 115/115/48
f 113/113/48 115/115/48 116/116/48
f 117/117/49 118/118/49 119/119/49
f 117/117/49 119/119/49 120/120/49
