# Blender v2.82 (sub 7) OBJ File: 'RaceTrack1.blend'
# www.blender.org
mtllib Cloud20.mtl
o Cloud20_Object_82_Object_39.001
v 0.300100 -0.389957 0.035016
v 0.030830 -0.288106 0.000830
v 0.191858 -0.296346 -0.188712
v 0.191858 -0.296346 -0.188712
v 0.030830 -0.288106 0.000830
v 0.100513 -0.018408 -0.208621
v 0.252504 -0.248797 0.234345
v 0.304426 -0.029080 0.266650
v 0.020473 -0.018535 0.136450
v 0.191858 -0.296346 -0.188712
v 0.100513 -0.018408 -0.208621
v 0.337912 -0.099046 -0.259659
v 0.391541 -0.250014 -0.187730
v 0.337912 -0.099046 -0.259659
v 0.524609 -0.183355 0.033425
v 0.304426 -0.029080 0.266650
v 0.476072 0.063450 -0.000183
v 0.206802 0.165497 0.033415
v 0.020473 -0.018535 0.136450
v 0.304426 -0.029080 0.266650
v 0.206802 0.165497 0.033415
v 0.100513 -0.018408 -0.208621
v 0.020473 -0.018535 0.136450
v 0.206802 0.165497 0.033415
v 0.476072 0.063450 -0.000183
v 0.315044 0.070597 -0.189770
v 0.206802 0.165497 0.033415
v 0.315044 0.070597 -0.189770
v 0.100513 -0.018408 -0.208621
v 0.206802 0.165497 0.033415
v 0.524609 -0.183355 0.033425
v 0.337912 -0.099046 -0.259659
v 0.476072 0.063450 -0.000183
v 0.337912 -0.099046 -0.259659
v 0.315044 0.070597 -0.189770
v 0.476072 0.063450 -0.000183
v 0.337912 -0.099046 -0.259659
v 0.100513 -0.018408 -0.208621
v 0.315044 0.070597 -0.189770
v -0.019869 -0.126359 0.000364
v 0.020473 -0.018535 0.136450
v 0.100513 -0.018408 -0.208621
v 0.304426 -0.029080 0.266650
v 0.524609 -0.183355 0.033425
v 0.476072 0.063450 -0.000183
v 0.391541 -0.250014 -0.187730
v 0.191858 -0.296346 -0.188712
v 0.337912 -0.099046 -0.259659
v 0.100513 -0.018408 -0.208621
v 0.030830 -0.288106 0.000830
v -0.019869 -0.126359 0.000364
v 0.030830 -0.288106 0.000830
v 0.252504 -0.248797 0.234345
v 0.020473 -0.018535 0.136450
v 0.252504 -0.248797 0.234345
v 0.524609 -0.183355 0.033425
v 0.304426 -0.029080 0.266650
v 0.300100 -0.389957 0.035016
v 0.191858 -0.296346 -0.188712
v 0.391541 -0.250014 -0.187730
v 0.300100 -0.389957 0.035016
v 0.252504 -0.248797 0.234345
v 0.030830 -0.288106 0.000830
v 0.524609 -0.183355 0.033425
v 0.300100 -0.389957 0.035016
v 0.391541 -0.250014 -0.187730
v 0.300100 -0.389957 0.035016
v 0.524609 -0.183355 0.033425
v 0.252504 -0.248797 0.234345
v -0.181631 -0.323510 0.098681
v -0.402946 -0.229679 -0.087729
v -0.234320 -0.219166 -0.259272
v -0.181631 -0.323510 0.098681
v -0.234320 -0.219166 -0.259272
v 0.000507 -0.310643 0.000895
v -0.234320 -0.219166 -0.259272
v -0.402946 -0.229679 -0.087729
v -0.359560 0.161900 -0.286570
v 0.154364 -0.154608 0.100664
v 0.224863 0.052370 -0.000151
v -0.034073 0.053397 0.356241
v -0.151171 -0.153976 0.320761
v -0.034073 0.053397 0.356241
v -0.360876 0.033969 0.290326
v -0.234320 -0.219166 -0.259272
v -0.359560 0.161900 -0.286570
v -0.034073 0.051343 -0.356543
v 0.039455 -0.155642 -0.257928
v -0.034073 0.051343 -0.356543
v 0.224863 0.052370 -0.000151
v -0.148575 0.222087 0.319678
v 0.155167 0.221444 0.097110
v -0.118114 0.390339 0.096623
v -0.454109 0.221451 0.099582
v -0.148575 0.222087 0.319678
v -0.300253 0.376908 -0.001086
v -0.359560 0.161900 -0.286570
v -0.454109 0.221451 0.099582
v -0.300253 0.376908 -0.001086
v 0.103203 0.295435 -0.089242
v -0.065426 0.283933 -0.260722
v -0.118114 0.390339 0.096623
v -0.065426 0.283933 -0.260722
v -0.300253 0.376908 -0.001086
v -0.118114 0.390339 0.096623
v -0.065426 0.283933 -0.260722
v -0.359560 0.161900 -0.286570
v -0.300253 0.376908 -0.001086
v -0.300253 0.376908 -0.001086
v -0.148575 0.222087 0.319678
v -0.118114 0.390339 0.096623
v -0.118114 0.390339 0.096623
v 0.155167 0.221444 0.097110
v 0.103203 0.295435 -0.089242
v 0.224863 0.052370 -0.000151
v 0.103203 0.295435 -0.089242
v 0.155167 0.221444 0.097110
v 0.224863 0.052370 -0.000151
v -0.034073 0.051343 -0.356543
v 0.103203 0.295435 -0.089242
v -0.034073 0.051343 -0.356543
v -0.065426 0.283933 -0.260722
v 0.103203 0.295435 -0.089242
v -0.034073 0.051343 -0.356543
v -0.359560 0.161900 -0.286570
v -0.065426 0.283933 -0.260722
v -0.524609 0.013895 -0.000040
v -0.454109 0.221451 0.099582
v -0.359560 0.161900 -0.286570
v -0.360876 0.033969 0.290326
v -0.148575 0.222087 0.319678
v -0.454109 0.221451 0.099582
v -0.360876 0.033969 0.290326
v -0.034073 0.053397 0.356241
v -0.148575 0.222087 0.319678
v -0.034073 0.053397 0.356241
v 0.155167 0.221444 0.097110
v -0.148575 0.222087 0.319678
v -0.034073 0.053397 0.356241
v 0.224863 0.052370 -0.000151
v 0.155167 0.221444 0.097110
v 0.039455 -0.155642 -0.257928
v -0.234320 -0.219166 -0.259272
v -0.034073 0.051343 -0.356543
v -0.359560 0.161900 -0.286570
v -0.402946 -0.229679 -0.087729
v -0.524609 0.013895 -0.000040
v -0.402946 -0.229679 -0.087729
v -0.454912 -0.154615 0.098194
v -0.524609 0.013895 -0.000040
v -0.524609 0.013895 -0.000040
v -0.360876 0.033969 0.290326
v -0.454109 0.221451 0.099582
v -0.524609 0.013895 -0.000040
v -0.454912 -0.154615 0.098194
v -0.360876 0.033969 0.290326
v -0.454912 -0.154615 0.098194
v -0.151171 -0.153976 0.320761
v -0.360876 0.033969 0.290326
v -0.151171 -0.153976 0.320761
v 0.154364 -0.154608 0.100664
v -0.034073 0.053397 0.356241
v 0.154364 -0.154608 0.100664
v 0.039455 -0.155642 -0.257928
v 0.224863 0.052370 -0.000151
v 0.000507 -0.310643 0.000895
v -0.234320 -0.219166 -0.259272
v 0.039455 -0.155642 -0.257928
v -0.402946 -0.229679 -0.087729
v -0.181631 -0.323510 0.098681
v -0.454912 -0.154615 0.098194
v -0.181631 -0.323510 0.098681
v -0.151171 -0.153976 0.320761
v -0.454912 -0.154615 0.098194
v 0.154364 -0.154608 0.100664
v 0.000507 -0.310643 0.000895
v 0.039455 -0.155642 -0.257928
v -0.181631 -0.323510 0.098681
v 0.000507 -0.310643 0.000895
v -0.151171 -0.153976 0.320761
v 0.000507 -0.310643 0.000895
v 0.154364 -0.154608 0.100664
v -0.151171 -0.153976 0.320761
v -0.019869 -0.126359 0.000364
v 0.030830 -0.288106 0.000830
v 0.020473 -0.018535 0.136450
vt 0.272727 1.000000
vt 0.194689 0.862847
vt 0.340601 0.882438
vt 0.340601 0.882438
vt 0.194689 0.862847
vt 0.318592 0.711394
vt 0.863020 0.842539
vt 0.840484 0.725695
vt 0.985060 0.710955
vt 0.340601 0.882438
vt 0.318592 0.711394
vt 0.454545 0.763809
vt 0.499383 0.842539
vt 0.454545 0.763809
vt 0.658736 0.803093
vt 0.840484 0.725695
vt 0.623492 0.664771
vt 0.750307 0.567517
vt 0.985060 0.710955
vt 0.840484 0.725695
vt 0.921388 0.587550
vt 0.318592 0.711394
vt 0.106898 0.710955
vt 0.181818 0.606349
vt 0.623492 0.664771
vt 0.477580 0.645180
vt 0.545454 0.527618
vt 0.431510 0.645180
vt 0.318592 0.711394
vt 0.340187 0.568234
vt 0.658736 0.803093
vt 0.454545 0.763809
vt 0.623492 0.664771
vt 0.454545 0.763809
vt 0.477580 0.645180
vt 0.623492 0.664771
vt 0.454545 0.763809
vt 0.318592 0.711394
vt 0.477580 0.645180
vt 0.181818 0.763809
vt 0.106898 0.710955
vt 0.318592 0.711394
vt 0.840484 0.725695
vt 0.658736 0.803093
vt 0.623492 0.664771
vt 0.499383 0.842539
vt 0.340601 0.882438
vt 0.454545 0.763809
vt 0.318592 0.711394
vt 0.194689 0.862847
vt 0.181818 0.763809
vt 0.136065 0.883155
vt 0.000000 0.842539
vt 0.106898 0.710955
vt 0.863020 0.842539
vt 0.658736 0.803093
vt 0.840484 0.725695
vt 0.477994 0.959384
vt 0.386671 0.882438
vt 0.499383 0.842539
vt 0.067874 0.960101
vt 0.000000 0.842539
vt 0.136065 0.883155
vt 0.658736 0.803093
vt 0.636363 0.921269
vt 0.499383 0.842539
vt 0.805883 0.940068
vt 0.658736 0.803093
vt 0.863020 0.842539
vt 0.272727 1.000000
vt 0.250000 0.881904
vt 0.340601 0.882438
vt 0.454545 1.000000
vt 0.386671 0.882438
vt 0.500000 0.921269
vt 0.340601 0.882438
vt 0.250000 0.881904
vt 0.318592 0.711394
vt 0.681202 0.842539
vt 0.636363 0.763809
vt 0.818181 0.763809
vt 0.863020 0.842539
vt 0.818181 0.763809
vt 0.954545 0.763809
vt 0.340601 0.882438
vt 0.318592 0.711394
vt 0.454545 0.763809
vt 0.499383 0.842539
vt 0.454545 0.763809
vt 0.636363 0.763809
vt 0.864252 0.685079
vt 0.682434 0.685079
vt 0.750307 0.567517
vt 1.000000 0.685079
vt 0.864252 0.685079
vt 0.954545 0.606349
vt 0.318592 0.711394
vt 0.136979 0.685079
vt 0.181818 0.606349
vt 0.568181 0.645714
vt 0.477580 0.645180
vt 0.545454 0.527618
vt 0.431510 0.645180
vt 0.318182 0.606349
vt 0.363636 0.527618
vt 0.431510 0.645180
vt 0.318592 0.711394
vt 0.318182 0.606349
vt 0.954545 0.606349
vt 0.864252 0.685079
vt 0.886055 0.567517
vt 0.750307 0.567517
vt 0.682434 0.685079
vt 0.681818 0.606349
vt 0.636363 0.763809
vt 0.568181 0.645714
vt 0.682434 0.685079
vt 0.636363 0.763809
vt 0.454545 0.763809
vt 0.568181 0.645714
vt 0.454545 0.763809
vt 0.477580 0.645180
vt 0.568181 0.645714
vt 0.454545 0.763809
vt 0.318592 0.711394
vt 0.477580 0.645180
vt 0.181818 0.763809
vt 0.136979 0.685079
vt 0.318592 0.711394
vt 0.954545 0.763809
vt 0.864252 0.685079
vt 1.000000 0.685079
vt 0.954545 0.763809
vt 0.818181 0.763809
vt 0.864252 0.685079
vt 0.818181 0.763809
vt 0.682434 0.685079
vt 0.864252 0.685079
vt 0.818181 0.763809
vt 0.636363 0.763809
vt 0.682434 0.685079
vt 0.499383 0.842539
vt 0.340601 0.882438
vt 0.454545 0.763809
vt 0.318592 0.711394
vt 0.250000 0.881904
vt 0.181818 0.763809
vt 0.250000 0.881904
vt 0.135747 0.842539
vt 0.181818 0.763809
vt 0.181818 0.763809
vt 0.045454 0.763809
vt 0.136979 0.685079
vt 0.181818 0.763809
vt 0.135747 0.842539
vt 0.045454 0.763809
vt 0.135747 0.842539
vt 0.000000 0.842539
vt 0.045454 0.763809
vt 0.863020 0.842539
vt 0.681202 0.842539
vt 0.818181 0.763809
vt 0.681202 0.842539
vt 0.499383 0.842539
vt 0.636363 0.763809
vt 0.500000 0.921269
vt 0.386671 0.882438
vt 0.499383 0.842539
vt 0.136363 0.921269
vt 0.067874 0.960101
vt 0.135747 0.842539
vt 0.067874 0.960101
vt 0.000000 0.842539
vt 0.135747 0.842539
vt 0.681202 0.842539
vt 0.636363 0.921270
vt 0.499383 0.842539
vt 0.841216 0.960101
vt 0.772726 0.921269
vt 0.863020 0.842539
vt 0.772726 0.921269
vt 0.681202 0.842539
vt 0.863020 0.842539
vt 0.181818 0.763809
vt 0.136065 0.883155
vt 0.106898 0.710955
vn -0.3185 -0.9194 -0.2306
vn -0.7364 -0.2859 -0.6132
vn -0.4176 -0.0348 0.9080
vn -0.2571 -0.1528 -0.9542
vn 0.8489 0.0509 -0.5261
vn 0.3604 0.7849 0.5040
vn -0.2876 0.6728 0.6816
vn -0.7386 0.6521 -0.1711
vn 0.3185 0.9181 -0.2359
vn -0.2964 0.8187 -0.4919
vn 0.8519 0.0975 -0.5146
vn 0.7219 0.3446 -0.6001
vn -0.0728 0.3715 -0.9256
vn -0.8170 0.5446 -0.1893
vn 0.7793 0.2325 0.5819
vn 0.0972 -0.3997 -0.9115
vn -0.7795 -0.2460 -0.5761
vn -0.6444 -0.3633 0.6729
vn 0.6133 -0.2549 0.7476
vn 0.2029 -0.8645 -0.4599
vn -0.3631 -0.7991 0.4792
vn 0.6652 -0.7242 -0.1819
vn 0.5617 -0.6060 0.5633
vn -0.1934 -0.9492 -0.2482
vn -0.0764 -0.9602 -0.2687
vn -0.6779 -0.2717 -0.6831
vn 0.8090 0.0107 0.5877
vn -0.1941 -0.0580 0.9793
vn 0.8090 0.0073 -0.5878
vn 0.4272 0.6928 0.5809
vn -0.3933 0.7414 0.5438
vn -0.7666 0.5793 -0.2770
vn 0.1933 0.9478 -0.2537
vn 0.0764 0.9586 -0.2742
vn -0.2819 0.7936 -0.5392
vn -0.3439 0.7716 0.5351
vn 0.5161 0.8357 0.1879
vn 0.9031 0.4210 -0.0847
vn 0.7947 0.1859 -0.5779
vn 0.6523 0.3622 -0.6658
vn -0.8617 0.4254 -0.2766
vn -0.5162 0.4710 0.7153
vn -0.2014 0.0750 0.9766
vn 0.5128 0.4994 0.6983
vn 0.8090 -0.0046 0.5878
vn -0.8019 -0.1975 -0.5639
vn -0.9031 -0.4215 -0.0823
vn -0.8712 0.0622 0.4870
vn -0.8668 -0.0707 0.4937
vn -0.5220 -0.4669 0.7138
vn 0.5287 -0.4243 0.7351
vn 0.8614 -0.4272 -0.2748
vn 0.2004 -0.8535 -0.4810
vn -0.5161 -0.8346 0.1927
vn -0.4272 -0.6895 0.5849
vn 0.7639 -0.5978 -0.2431
vn 0.3439 -0.7685 0.5395
vn 0.3933 -0.7382 0.5481
vn -0.8474 -0.2643 0.4606
usemtl cloud.002
s off
f 1/1/1 2/2/1 3/3/1
f 4/4/2 5/5/2 6/6/2
f 7/7/3 8/8/3 9/9/3
f 10/10/4 11/11/4 12/12/4
f 13/13/5 14/14/5 15/15/5
f 16/16/6 17/17/6 18/18/6
f 19/19/7 20/20/7 21/21/7
f 22/22/8 23/23/8 24/24/8
f 25/25/9 26/26/9 27/27/9
f 28/28/10 29/29/10 30/30/10
f 31/31/11 32/32/11 33/33/11
f 34/34/12 35/35/12 36/36/12
f 37/37/13 38/38/13 39/39/13
f 40/40/14 41/41/14 42/42/14
f 43/43/15 44/44/15 45/45/15
f 46/46/16 47/47/16 48/48/16
f 49/49/17 50/50/17 51/51/17
f 52/52/18 53/53/18 54/54/18
f 55/55/19 56/56/19 57/57/19
f 58/58/20 59/59/20 60/60/20
f 61/61/21 62/62/21 63/63/21
f 64/64/22 65/65/22 66/66/22
f 67/67/23 68/68/23 69/69/23
f 70/70/24 71/71/24 72/72/24
f 73/73/25 74/74/25 75/75/25
f 76/76/26 77/77/26 78/78/26
f 79/79/27 80/80/27 81/81/27
f 82/82/28 83/83/28 84/84/28
f 85/85/4 86/86/4 87/87/4
f 88/88/29 89/89/29 90/90/29
f 91/91/30 92/92/30 93/93/30
f 94/94/31 95/95/31 96/96/31
f 97/97/32 98/98/32 99/99/32
f 100/100/33 101/101/33 102/102/33
f 103/103/34 104/104/34 105/105/34
f 106/106/35 107/107/35 108/108/35
f 109/109/36 110/110/36 111/111/36
f 112/112/37 113/113/37 114/114/37
f 115/115/38 116/116/38 117/117/38
f 118/118/39 119/119/39 120/120/39
f 121/121/40 122/122/40 123/123/40
f 124/124/13 125/125/13 126/126/13
f 127/127/41 128/128/41 129/129/41
f 130/130/42 131/131/42 132/132/42
f 133/133/43 134/134/43 135/135/43
f 136/136/44 137/137/44 138/138/44
f 139/139/45 140/140/45 141/141/45
f 142/142/16 143/143/16 144/144/16
f 145/145/46 146/146/46 147/147/46
f 148/148/47 149/149/47 150/150/47
f 151/151/48 152/152/48 153/153/48
f 154/154/49 155/155/49 156/156/49
f 157/157/50 158/158/50 159/159/50
f 160/160/51 161/161/51 162/162/51
f 163/163/52 164/164/52 165/165/52
f 166/166/53 167/167/53 168/168/53
f 169/169/54 170/170/54 171/171/54
f 172/172/55 173/173/55 174/174/55
f 175/175/56 176/176/56 177/177/56
f 178/178/57 179/179/57 180/180/57
f 181/181/58 182/182/58 183/183/58
s 1
f 184/184/59 185/185/59 186/186/59
