# Blender v2.82 (sub 7) OBJ File: 'RaceTrack1.blend'
# www.blender.org
mtllib Cloud17.mtl
o Cloud17_Object_62_Object_29.001
v -0.223568 0.207920 -0.232478
v -0.025969 0.250125 -0.018461
v 0.220802 0.229446 -0.096548
v 0.080559 0.187245 -0.196712
v 0.245211 0.034519 -0.251703
v -0.173298 0.104661 -0.323539
v -0.173298 0.104661 -0.323539
v 0.245211 0.034519 -0.251703
v -0.233309 0.016062 -0.355854
v 0.245211 0.034519 -0.251703
v 0.490271 -0.036990 -0.241782
v 0.108387 -0.101065 -0.341572
v 0.336592 -0.143723 -0.308249
v 0.490271 -0.036990 -0.241782
v 0.552244 -0.120489 -0.207495
v 0.490271 -0.036990 -0.241782
v 0.620766 -0.007397 -0.088905
v 0.552244 -0.120489 -0.207495
v 0.552244 -0.120489 -0.207495
v 0.988432 -0.184745 -0.029184
v 0.337811 -0.216076 -0.236062
v 0.220802 0.229446 -0.096548
v 0.555738 0.175393 -0.053616
v 0.372581 0.095358 -0.185285
v 0.532486 -0.247213 -0.051187
v 0.389994 -0.291437 0.032884
v 0.069574 -0.296847 -0.156765
v 0.620766 -0.007397 -0.088905
v 0.944546 -0.072606 0.040201
v 0.552244 -0.120489 -0.207495
v -0.012457 -0.322507 -0.049425
v 0.389994 -0.291437 0.032884
v 0.231634 -0.333631 0.102427
v 0.555738 0.175393 -0.053616
v 0.830845 0.166897 0.103174
v 0.620766 -0.007397 -0.088905
v 0.944546 -0.072606 0.040201
v 0.926273 -0.082406 0.208878
v 0.988432 -0.184745 -0.029184
v 0.988432 -0.184745 -0.029184
v 0.926273 -0.082406 0.208878
v 0.797686 -0.188272 0.170610
v 0.988432 -0.184745 -0.029184
v 0.797686 -0.188272 0.170610
v 0.532486 -0.247213 -0.051187
v 0.389994 -0.291437 0.032884
v 0.797686 -0.188272 0.170610
v 0.231634 -0.333631 0.102427
v 0.830845 0.166897 0.103174
v 0.926273 -0.082406 0.208878
v 0.944546 -0.072606 0.040201
v 0.371901 0.317331 0.091571
v 0.414715 0.334512 0.203012
v 0.661810 0.299851 0.093882
v 0.830845 0.166897 0.103174
v 0.683794 0.330545 0.252152
v 0.718704 0.094180 0.307736
v 0.830845 0.166897 0.103174
v 0.718704 0.094180 0.307736
v 0.926273 -0.082406 0.208878
v 0.797686 -0.188272 0.170610
v 0.926273 -0.082406 0.208878
v 0.218491 -0.251060 0.309548
v 0.718704 0.094180 0.307736
v 0.218491 -0.251060 0.309548
v 0.926273 -0.082406 0.208878
v 0.218491 -0.251060 0.309548
v 0.062237 -0.318724 0.244690
v 0.797686 -0.188272 0.170610
v 0.414715 0.334512 0.203012
v 0.430984 0.195211 0.328395
v 0.683794 0.330545 0.252152
v -0.025969 0.250125 -0.018461
v -0.244129 0.234812 0.040877
v 0.371901 0.317331 0.091571
v 0.062237 -0.318724 0.244690
v -0.079000 -0.327624 0.081067
v 0.231634 -0.333631 0.102427
v 0.430984 0.195211 0.328395
v -0.017054 -0.061120 0.356632
v 0.718704 0.094180 0.307736
v -0.017054 -0.061120 0.356632
v -0.382925 -0.124304 0.305295
v 0.218491 -0.251060 0.309548
v -0.362835 0.134067 0.266403
v -0.522697 0.003064 0.291437
v -0.017054 -0.061120 0.356632
v -0.012457 -0.322507 -0.049425
v 0.231634 -0.333631 0.102427
v -0.079000 -0.327624 0.081067
v -0.382925 -0.124304 0.305295
v -0.225113 -0.271929 0.180237
v 0.062237 -0.318724 0.244690
v -0.022594 0.188056 0.230864
v -0.244129 0.234812 0.040877
v -0.664146 0.166689 0.055520
v -0.757614 0.016351 0.169822
v -0.664146 0.166689 0.055520
v -0.829311 -0.008442 0.011257
v -0.757614 0.016351 0.169822
v -0.906742 -0.183182 -0.101567
v -0.566870 -0.187671 0.139467
v -0.244129 0.234812 0.040877
v -0.025969 0.250125 -0.018461
v -0.223568 0.207920 -0.232478
v -0.906742 -0.183182 -0.101567
v -0.988432 -0.091211 -0.270430
v -0.706818 -0.263408 -0.252809
v -0.906742 -0.183182 -0.101567
v -0.706818 -0.263408 -0.252809
v -0.444553 -0.283691 -0.001462
v -0.291168 -0.291990 -0.134562
v -0.012457 -0.322507 -0.049425
v -0.079000 -0.327624 0.081067
v -0.771091 -0.057162 -0.313959
v -0.667746 -0.171819 -0.351620
v -0.988432 -0.091211 -0.270430
v -0.223568 0.207920 -0.232478
v -0.173298 0.104661 -0.323539
v -0.535261 0.111055 -0.257648
v -0.667746 -0.171819 -0.351620
v -0.288895 -0.205921 -0.296168
v -0.706818 -0.263408 -0.252809
v -0.771091 -0.057162 -0.313959
v -0.233309 0.016062 -0.355854
v -0.273653 -0.081490 -0.356221
v -0.233309 0.016062 -0.355854
v 0.245211 0.034519 -0.251703
v 0.108387 -0.101065 -0.341572
v 0.108387 -0.101065 -0.341572
v 0.490271 -0.036990 -0.241782
v 0.336592 -0.143723 -0.308249
v 0.005928 -0.218765 -0.299472
v 0.108387 -0.101065 -0.341572
v 0.336592 -0.143723 -0.308249
v 0.005928 -0.218765 -0.299472
v 0.336592 -0.143723 -0.308249
v 0.337811 -0.216076 -0.236062
v 0.005928 -0.218765 -0.299472
v 0.337811 -0.216076 -0.236062
v 0.069574 -0.296847 -0.156765
v 0.245211 0.034519 -0.251703
v 0.372581 0.095358 -0.185285
v 0.490271 -0.036990 -0.241782
v 0.336592 -0.143723 -0.308249
v 0.552244 -0.120489 -0.207495
v 0.337811 -0.216076 -0.236062
v 0.069574 -0.296847 -0.156765
v 0.337811 -0.216076 -0.236062
v 0.532486 -0.247213 -0.051187
v 0.532486 -0.247213 -0.051187
v 0.337811 -0.216076 -0.236062
v 0.988432 -0.184745 -0.029184
v -0.012457 -0.322507 -0.049425
v 0.069574 -0.296847 -0.156765
v 0.389994 -0.291437 0.032884
v 0.552244 -0.120489 -0.207495
v 0.944546 -0.072606 0.040201
v 0.988432 -0.184745 -0.029184
v 0.620766 -0.007397 -0.088905
v 0.830845 0.166897 0.103174
v 0.944546 -0.072606 0.040201
v 0.555738 0.175393 -0.053616
v 0.661810 0.299851 0.093882
v 0.830845 0.166897 0.103174
v 0.220802 0.229446 -0.096548
v -0.025969 0.250125 -0.018461
v 0.371901 0.317331 0.091571
v 0.532486 -0.247213 -0.051187
v 0.797686 -0.188272 0.170610
v 0.389994 -0.291437 0.032884
v 0.661810 0.299851 0.093882
v 0.683794 0.330545 0.252152
v 0.830845 0.166897 0.103174
v 0.661810 0.299851 0.093882
v 0.414715 0.334512 0.203012
v 0.683794 0.330545 0.252152
v 0.231634 -0.333631 0.102427
v 0.797686 -0.188272 0.170610
v 0.062237 -0.318724 0.244690
v 0.718704 0.094180 0.307736
v 0.683794 0.330545 0.252152
v 0.430984 0.195211 0.328395
v 0.718704 0.094180 0.307736
v -0.017054 -0.061120 0.356632
v 0.218491 -0.251060 0.309548
v 0.414715 0.334512 0.203012
v 0.371901 0.317331 0.091571
v -0.244129 0.234812 0.040877
v 0.414715 0.334512 0.203012
v -0.022594 0.188056 0.230864
v 0.430984 0.195211 0.328395
v 0.430984 0.195211 0.328395
v -0.022594 0.188056 0.230864
v -0.362835 0.134067 0.266403
v 0.430984 0.195211 0.328395
v -0.362835 0.134067 0.266403
v -0.017054 -0.061120 0.356632
v -0.022594 0.188056 0.230864
v 0.414715 0.334512 0.203012
v -0.244129 0.234812 0.040877
v 0.218491 -0.251060 0.309548
v -0.382925 -0.124304 0.305295
v 0.062237 -0.318724 0.244690
v -0.079000 -0.327624 0.081067
v 0.062237 -0.318724 0.244690
v -0.225113 -0.271929 0.180237
v -0.382925 -0.124304 0.305295
v -0.017054 -0.061120 0.356632
v -0.522697 0.003064 0.291437
v -0.382925 -0.124304 0.305295
v -0.566870 -0.187671 0.139467
v -0.225113 -0.271929 0.180237
v -0.362835 0.134067 0.266403
v -0.022594 0.188056 0.230864
v -0.664146 0.166689 0.055520
v -0.522697 0.003064 0.291437
v -0.362835 0.134067 0.266403
v -0.757614 0.016351 0.169822
v -0.225113 -0.271929 0.180237
v -0.566870 -0.187671 0.139467
v -0.444553 -0.283691 -0.001462
v -0.079000 -0.327624 0.081067
v -0.225113 -0.271929 0.180237
v -0.444553 -0.283691 -0.001462
v -0.757614 0.016351 0.169822
v -0.362835 0.134067 0.266403
v -0.664146 0.166689 0.055520
v -0.757614 0.016351 0.169822
v -0.829311 -0.008442 0.011257
v -0.906742 -0.183182 -0.101567
v -0.566870 -0.187671 0.139467
v -0.906742 -0.183182 -0.101567
v -0.444553 -0.283691 -0.001462
v -0.664146 0.166689 0.055520
v -0.498814 0.180903 -0.176703
v -0.697723 0.091012 -0.142156
v -0.906742 -0.183182 -0.101567
v -0.829311 -0.008442 0.011257
v -0.988432 -0.091211 -0.270430
v -0.664146 0.166689 0.055520
v -0.244129 0.234812 0.040877
v -0.498814 0.180903 -0.176703
v -0.244129 0.234812 0.040877
v -0.223568 0.207920 -0.232478
v -0.498814 0.180903 -0.176703
v -0.444553 -0.283691 -0.001462
v -0.291168 -0.291990 -0.134562
v -0.079000 -0.327624 0.081067
v -0.498814 0.180903 -0.176703
v -0.535261 0.111055 -0.257648
v -0.697723 0.091012 -0.142156
v -0.291168 -0.291990 -0.134562
v -0.444553 -0.283691 -0.001462
v -0.706818 -0.263408 -0.252809
v -0.706818 -0.263408 -0.252809
v -0.988432 -0.091211 -0.270430
v -0.667746 -0.171819 -0.351620
v -0.498814 0.180903 -0.176703
v -0.223568 0.207920 -0.232478
v -0.535261 0.111055 -0.257648
v -0.291168 -0.291990 -0.134562
v -0.706818 -0.263408 -0.252809
v -0.288895 -0.205921 -0.296168
v -0.535261 0.111055 -0.257648
v -0.173298 0.104661 -0.323539
v -0.233309 0.016062 -0.355854
v -0.771091 -0.057162 -0.313959
v -0.535261 0.111055 -0.257648
v -0.233309 0.016062 -0.355854
v -0.771091 -0.057162 -0.313959
v -0.273653 -0.081490 -0.356221
v -0.667746 -0.171819 -0.351620
v -0.667746 -0.171819 -0.351620
v -0.273653 -0.081490 -0.356221
v -0.288895 -0.205921 -0.296168
v -0.012457 -0.322507 -0.049425
v -0.291168 -0.291990 -0.134562
v 0.069574 -0.296847 -0.156765
v -0.273653 -0.081490 -0.356221
v -0.233309 0.016062 -0.355854
v 0.108387 -0.101065 -0.341572
v -0.173298 0.104661 -0.323539
v -0.223568 0.207920 -0.232478
v 0.080559 0.187245 -0.196712
v -0.223568 0.207920 -0.232478
v 0.220802 0.229446 -0.096548
v 0.080559 0.187245 -0.196712
v 0.372581 0.095358 -0.185285
v 0.245211 0.034519 -0.251703
v 0.080559 0.187245 -0.196712
v 0.220802 0.229446 -0.096548
v 0.620766 -0.007397 -0.088905
v 0.490271 -0.036990 -0.241782
v 0.372581 0.095358 -0.185285
v 0.555738 0.175393 -0.053616
v 0.661810 0.299851 0.093882
v 0.555738 0.175393 -0.053616
v 0.220802 0.229446 -0.096548
v 0.371901 0.317331 0.091571
v -0.566870 -0.187671 0.139467
v -0.382925 -0.124304 0.305295
v -0.522697 0.003064 0.291437
v -0.757614 0.016351 0.169822
v -0.697723 0.091012 -0.142156
v -0.988432 -0.091211 -0.270430
v -0.829311 -0.008442 0.011257
v -0.664146 0.166689 0.055520
v -0.535261 0.111055 -0.257648
v -0.771091 -0.057162 -0.313959
v -0.988432 -0.091211 -0.270430
v -0.697723 0.091012 -0.142156
v 0.069574 -0.296847 -0.156765
v -0.291168 -0.291990 -0.134562
v -0.288895 -0.205921 -0.296168
v 0.005928 -0.218765 -0.299472
v 0.005928 -0.218765 -0.299472
v -0.288895 -0.205921 -0.296168
v -0.273653 -0.081490 -0.356221
v 0.108387 -0.101065 -0.341572
vt 0.846846 0.125705
vt 0.734375 0.000000
vt 0.572158 0.133807
vt 0.681915 0.150100
vt 0.703196 0.311300
vt 0.797448 0.284274
vt 0.797448 0.284274
vt 0.703196 0.311300
vt 0.804285 0.403406
vt 0.703196 0.311300
vt 0.635334 0.411981
vt 0.734375 0.499824
vt 0.671875 0.555325
vt 0.635334 0.411981
vt 0.597860 0.540259
vt 0.635334 0.411981
vt 0.547374 0.435697
vt 0.597860 0.540259
vt 0.597860 0.540259
vt 0.516597 0.656376
vt 0.633507 0.682765
vt 0.572158 0.133807
vt 0.531041 0.282676
vt 0.624729 0.282502
vt 0.533197 0.764798
vt 0.470609 0.850093
vt 0.683873 0.845374
vt 0.547374 0.435697
vt 0.486135 0.531147
vt 0.597860 0.540259
vt 0.730366 0.951936
vt 0.470609 0.850093
vt 0.349433 0.883238
vt 0.531041 0.282676
vt 0.452981 0.406575
vt 0.547374 0.435697
vt 0.486135 0.531147
vt 0.400868 0.581667
vt 0.516597 0.656376
vt 0.516597 0.656376
vt 0.400868 0.581667
vt 0.396528 0.720528
vt 0.516597 0.656376
vt 0.396528 0.720528
vt 0.533197 0.764798
vt 0.470609 0.850093
vt 0.396528 0.720528
vt 0.349433 0.883238
vt 0.452981 0.406575
vt 0.400868 0.581667
vt 0.486135 0.531147
vt 0.387289 0.149435
vt 0.314857 0.222610
vt 0.443200 0.273705
vt 0.452981 0.406575
vt 0.352569 0.341064
vt 0.330856 0.490576
vt 0.452981 0.406575
vt 0.330856 0.490576
vt 0.400868 0.581667
vt 0.396528 0.720528
vt 0.400868 0.581667
vt 0.289311 0.659895
vt 0.330856 0.490576
vt 0.289311 0.659895
vt 0.400868 0.581667
vt 0.289311 0.659895
vt 0.253091 0.770476
vt 0.396528 0.720528
vt 0.314857 0.222610
vt 0.265149 0.374044
vt 0.352569 0.341064
vt 0.255021 0.048601
vt 0.128188 0.153110
vt 0.387289 0.149435
vt 0.253091 0.770476
vt 0.133051 0.907036
vt 0.349433 0.883238
vt 0.265149 0.374044
vt 0.251279 0.532040
vt 0.330856 0.490576
vt 0.251279 0.532040
vt 0.194062 0.638561
vt 0.289311 0.659895
vt 0.170431 0.383327
vt 0.171188 0.527502
vt 0.251279 0.532040
vt 0.203125 1.000000
vt 0.349433 0.883238
vt 0.133051 0.907036
vt 0.194062 0.638561
vt 0.152656 0.786476
vt 0.253091 0.770476
vt 0.200996 0.271041
vt 0.128188 0.153110
vt 0.070316 0.304857
vt 0.108531 0.498406
vt 0.070316 0.304857
vt 0.046180 0.467153
vt 0.108531 0.498406
vt 0.030787 0.623603
vt 0.098214 0.675414
vt 1.000000 0.125000
vt 0.966979 0.027708
vt 0.846846 0.125705
vt 1.000000 0.665313
vt 0.970796 0.518772
vt 0.932123 0.747105
vt 1.000000 0.665313
vt 0.932123 0.747105
vt 0.996354 0.825214
vt 0.874846 0.853323
vt 0.900162 0.972343
vt 0.986986 0.937500
vt 0.903807 0.501291
vt 0.875212 0.624305
vt 0.970796 0.518772
vt 0.846846 0.125705
vt 0.797448 0.284274
vt 0.896783 0.307314
vt 0.875212 0.624305
vt 0.813929 0.688870
vt 0.932123 0.747105
vt 0.903807 0.501291
vt 0.804285 0.403406
vt 0.803797 0.523125
vt 0.804285 0.403406
vt 0.703196 0.311300
vt 0.734375 0.499824
vt 0.734375 0.499824
vt 0.635334 0.411981
vt 0.671875 0.555325
vt 0.733717 0.698732
vt 0.734375 0.499824
vt 0.671875 0.555325
vt 0.733717 0.698732
vt 0.671875 0.555325
vt 0.633507 0.682765
vt 0.733717 0.698732
vt 0.633507 0.682765
vt 0.683873 0.845374
vt 0.703196 0.311300
vt 0.624729 0.282502
vt 0.635334 0.411981
vt 0.671875 0.555325
vt 0.597860 0.540259
vt 0.633507 0.682765
vt 0.683873 0.845374
vt 0.633507 0.682765
vt 0.533197 0.764798
vt 0.533197 0.764798
vt 0.633507 0.682765
vt 0.516597 0.656376
vt 0.730366 0.951936
vt 0.683873 0.845374
vt 0.470609 0.850093
vt 0.597860 0.540259
vt 0.486135 0.531147
vt 0.516597 0.656376
vt 0.547374 0.435697
vt 0.452981 0.406575
vt 0.486135 0.531147
vt 0.531041 0.282676
vt 0.443200 0.273705
vt 0.452981 0.406575
vt 0.572158 0.133807
vt 0.255021 0.048601
vt 0.387289 0.149435
vt 0.533197 0.764798
vt 0.396528 0.720528
vt 0.470609 0.850093
vt 0.443200 0.273705
vt 0.352569 0.341064
vt 0.452981 0.406575
vt 0.443200 0.273705
vt 0.314857 0.222610
vt 0.352569 0.341064
vt 0.349433 0.883238
vt 0.396528 0.720528
vt 0.253091 0.770476
vt 0.330856 0.490576
vt 0.352569 0.341064
vt 0.265149 0.374044
vt 0.330856 0.490576
vt 0.251279 0.532040
vt 0.289311 0.659895
vt 0.314857 0.222610
vt 0.387289 0.149435
vt 0.128188 0.153110
vt 0.314857 0.222610
vt 0.200996 0.271041
vt 0.265149 0.374044
vt 0.265149 0.374044
vt 0.200996 0.271041
vt 0.170431 0.383327
vt 0.265149 0.374044
vt 0.170431 0.383327
vt 0.251279 0.532040
vt 0.200996 0.271041
vt 0.314857 0.222610
vt 0.128188 0.153110
vt 0.289311 0.659895
vt 0.194062 0.638561
vt 0.253091 0.770476
vt 0.133051 0.907036
vt 0.253091 0.770476
vt 0.152656 0.786476
vt 0.194062 0.638561
vt 0.251279 0.532040
vt 0.171188 0.527502
vt 0.194062 0.638561
vt 0.098214 0.675414
vt 0.152656 0.786476
vt 0.170431 0.383327
vt 0.200996 0.271041
vt 0.070316 0.304857
vt 0.171188 0.527502
vt 0.170431 0.383327
vt 0.108531 0.498406
vt 0.152656 0.786476
vt 0.098214 0.675414
vt 0.038529 0.813573
vt 0.133051 0.907036
vt 0.152656 0.786476
vt 0.038529 0.813573
vt 0.108531 0.498406
vt 0.170431 0.383327
vt 0.070316 0.304857
vt 0.108531 0.498406
vt 0.046180 0.467153
vt 0.030787 0.623603
vt 0.098214 0.675414
vt 0.030787 0.623603
vt 0.038529 0.813573
vt 0.070316 0.304857
vt 0.000000 0.207269
vt 0.000000 0.341349
vt 0.030787 0.623603
vt 0.046180 0.467153
vt 0.000000 0.520133
vt 0.070316 0.304857
vt 0.128188 0.153110
vt 0.000000 0.207269
vt 1.000000 0.125000
vt 0.846846 0.125705
vt 0.962973 0.207269
vt 0.996354 0.825214
vt 0.874846 0.853323
vt 0.986986 0.937500
vt 0.962973 0.207269
vt 0.896783 0.307314
vt 0.969434 0.343196
vt 0.874846 0.853323
vt 0.996354 0.825214
vt 0.932123 0.747105
vt 0.932123 0.747105
vt 0.970796 0.518772
vt 0.875212 0.624305
vt 0.962973 0.207269
vt 0.846846 0.125705
vt 0.896783 0.307314
vt 0.874846 0.853323
vt 0.932123 0.747105
vt 0.813929 0.688870
vt 0.896783 0.307314
vt 0.797448 0.284274
vt 0.804285 0.403406
vt 0.903807 0.501291
vt 0.896783 0.307314
vt 0.804285 0.403406
vt 0.903807 0.501291
vt 0.803797 0.523125
vt 0.875212 0.624305
vt 0.875212 0.624305
vt 0.803797 0.523125
vt 0.813929 0.688870
vt 0.900162 0.972343
vt 0.874846 0.853323
vt 0.683873 0.845374
vt 0.803797 0.523125
vt 0.804285 0.403406
vt 0.734375 0.499824
vt 0.797448 0.284274
vt 0.846846 0.125705
vt 0.681915 0.150100
vt 0.846846 0.125705
vt 0.572158 0.133807
vt 0.681915 0.150100
vt 0.624729 0.282502
vt 0.703196 0.311300
vt 0.681915 0.150100
vt 0.572158 0.133807
vt 0.547374 0.435697
vt 0.635334 0.411981
vt 0.624729 0.282502
vt 0.531041 0.282676
vt 0.443200 0.273705
vt 0.531041 0.282676
vt 0.572158 0.133807
vt 0.387289 0.149435
vt 0.098214 0.675414
vt 0.194062 0.638561
vt 0.171188 0.527502
vt 0.108531 0.498406
vt 0.000000 0.341349
vt 0.000000 0.520133
vt 0.046180 0.467153
vt 0.070316 0.304857
vt 0.896783 0.307314
vt 0.903807 0.501291
vt 0.970796 0.518772
vt 0.969434 0.343196
vt 0.683873 0.845374
vt 0.874846 0.853323
vt 0.813929 0.688870
vt 0.733717 0.698732
vt 0.733717 0.698732
vt 0.813929 0.688870
vt 0.803797 0.523125
vt 0.734375 0.499824
vn 0.0162 0.9780 -0.2078
vn 0.2295 0.5391 -0.8104
vn 0.1999 0.2134 -0.9563
vn 0.1607 0.4275 -0.8896
vn 0.4274 -0.0534 -0.9025
vn 0.7097 0.2575 -0.6557
vn 0.2949 -0.4026 -0.8665
vn 0.2004 0.6883 -0.6972
vn 0.1571 -0.9585 -0.2380
vn 0.4037 0.5342 -0.7427
vn 0.1306 -0.9512 -0.2797
vn 0.4756 0.3269 -0.8167
vn 0.9474 0.2966 0.1199
vn 0.4844 -0.7507 0.4492
vn 0.1299 -0.9858 0.1066
vn 0.2506 -0.9680 -0.0167
vn 0.9087 0.3994 0.1216
vn 0.0606 0.9827 -0.1748
vn 0.8109 0.2448 0.5315
vn 0.6782 0.4913 0.5465
vn 0.2488 -0.5820 0.7742
vn 0.2016 -0.2872 0.9364
vn 0.1996 -0.8780 0.4352
vn -0.1263 0.6555 0.7446
vn -0.1165 0.9775 -0.1759
vn -0.0245 -0.9969 0.0753
vn 0.0683 -0.0095 0.9976
vn -0.0756 -0.3273 0.9419
vn -0.0865 0.2878 0.9538
vn -0.0161 -0.9987 -0.0474
vn -0.2565 -0.7696 0.5848
vn -0.1349 0.9141 0.3823
vn -0.7362 0.6352 0.2335
vn -0.4861 -0.5549 0.6751
vn -0.0980 0.9897 -0.1047
vn -0.4996 -0.8391 -0.2153
vn -0.2461 -0.9524 0.1799
vn -0.0838 -0.9931 -0.0817
vn -0.2137 0.1256 -0.9688
vn -0.1300 0.6194 -0.7742
vn 0.0319 -0.7393 -0.6726
vn -0.0828 0.0380 -0.9958
vn 0.1786 0.4120 -0.8935
vn 0.1930 0.3033 -0.9332
vn 0.0627 -0.3841 -0.9212
vn 0.1398 -0.6982 -0.7021
vn 0.1049 -0.8520 -0.5129
vn 0.1857 0.5208 -0.8332
vn 0.3778 -0.6507 -0.6586
vn 0.1769 -0.9230 -0.3417
vn 0.1437 -0.9399 -0.3096
vn 0.1071 -0.9824 -0.1530
vn 0.3785 0.5896 -0.7135
vn 0.4079 0.4084 -0.8166
vn 0.4388 0.5060 -0.7426
vn -0.0469 0.9189 -0.3916
vn 0.2637 -0.9628 -0.0595
vn 0.6092 0.7584 -0.2317
vn 0.0504 0.9791 -0.1969
vn 0.1970 -0.9227 0.3313
vn 0.1557 0.2479 0.9562
vn 0.0929 -0.1295 0.9872
vn -0.1236 0.9868 -0.1047
vn -0.1698 0.6483 0.7422
vn -0.1017 0.9081 0.4062
vn -0.0958 0.2729 0.9573
vn -0.2477 0.8335 0.4939
vn -0.1180 -0.5316 0.8388
vn -0.2065 -0.9511 0.2299
vn -0.1325 -0.0376 0.9905
vn -0.2594 -0.7705 0.5822
vn -0.1169 0.9426 0.3128
vn -0.3517 0.5710 0.7418
vn -0.2639 -0.8882 0.3762
vn -0.1753 -0.9459 0.2729
vn -0.3596 0.6961 0.6215
vn -0.9092 0.1529 0.3872
vn -0.2731 -0.8886 0.3685
vn -0.4347 0.8632 -0.2566
vn -0.8780 0.0849 0.4710
vn -0.1617 0.9853 -0.0548
vn -0.1184 0.9873 -0.1060
vn -0.1057 -0.9926 -0.0600
vn -0.4299 0.7702 -0.4711
vn -0.0650 -0.9978 -0.0127
vn -0.3354 -0.6211 -0.7083
vn -0.1962 0.7844 -0.5885
vn 0.0726 -0.8807 -0.4680
vn -0.1544 0.4292 -0.8899
vn -0.1326 0.4768 -0.8690
vn -0.0695 0.2542 -0.9647
vn 0.0909 -0.4419 -0.8925
vn -0.0286 -0.9670 -0.2530
vn 0.0377 -0.0118 -0.9992
vn 0.1306 0.6908 -0.7112
vn 0.1188 0.8445 -0.5222
vn 0.2256 0.6238 -0.7483
vn 0.4845 0.4917 -0.7235
vn 0.4845 0.4916 -0.7236
vn 0.1337 0.7880 -0.6010
vn -0.4532 -0.4889 0.7454
vn -0.4531 -0.4890 0.7454
vn -0.4531 -0.4889 0.7454
vn -0.6135 0.7896 -0.0144
vn -0.3330 0.7797 -0.5303
vn -0.3331 0.7797 -0.5302
vn -0.0421 -0.8829 -0.4677
vn -0.0420 -0.8828 -0.4678
vn -0.0031 -0.3875 -0.9219
vn -0.0031 -0.3874 -0.9219
usemtl cloud.002
s off
f 1/1/1 2/2/1 3/3/1
f 4/4/2 5/5/2 6/6/2
f 7/7/3 8/8/3 9/9/3
f 10/10/4 11/11/4 12/12/4
f 13/13/5 14/14/5 15/15/5
f 16/16/6 17/17/6 18/18/6
f 19/19/7 20/20/7 21/21/7
f 22/22/8 23/23/8 24/24/8
f 25/25/9 26/26/9 27/27/9
f 28/28/10 29/29/10 30/30/10
f 31/31/11 32/32/11 33/33/11
f 34/34/12 35/35/12 36/36/12
f 37/37/13 38/38/13 39/39/13
f 40/40/14 41/41/14 42/42/14
f 43/43/15 44/44/15 45/45/15
f 46/46/16 47/47/16 48/48/16
f 49/49/17 50/50/17 51/51/17
f 52/52/18 53/53/18 54/54/18
f 55/55/19 56/56/19 57/57/19
f 58/58/20 59/59/20 60/60/20
f 61/61/21 62/62/21 63/63/21
f 64/64/22 65/65/22 66/66/22
f 67/67/23 68/68/23 69/69/23
f 70/70/24 71/71/24 72/72/24
f 73/73/25 74/74/25 75/75/25
f 76/76/26 77/77/26 78/78/26
f 79/79/27 80/80/27 81/81/27
f 82/82/28 83/83/28 84/84/28
f 85/85/29 86/86/29 87/87/29
f 88/88/30 89/89/30 90/90/30
f 91/91/31 92/92/31 93/93/31
f 94/94/32 95/95/32 96/96/32
f 97/97/33 98/98/33 99/99/33
f 100/100/34 101/101/34 102/102/34
f 103/103/35 104/104/35 105/105/35
f 106/106/36 107/107/36 108/108/36
f 109/109/37 110/110/37 111/111/37
f 112/112/38 113/113/38 114/114/38
f 115/115/39 116/116/39 117/117/39
f 118/118/40 119/119/40 120/120/40
f 121/121/41 122/122/41 123/123/41
f 124/124/42 125/125/42 126/126/42
f 127/127/43 128/128/43 129/129/43
f 130/130/44 131/131/44 132/132/44
f 133/133/45 134/134/45 135/135/45
f 136/136/46 137/137/46 138/138/46
f 139/139/47 140/140/47 141/141/47
f 142/142/48 143/143/48 144/144/48
f 145/145/49 146/146/49 147/147/49
f 148/148/50 149/149/50 150/150/50
f 151/151/51 152/152/51 153/153/51
f 154/154/52 155/155/52 156/156/52
f 157/157/53 158/158/53 159/159/53
f 160/160/54 161/161/54 162/162/54
f 163/163/55 164/164/55 165/165/55
f 166/166/56 167/167/56 168/168/56
f 169/169/57 170/170/57 171/171/57
f 172/172/58 173/173/58 174/174/58
f 175/175/59 176/176/59 177/177/59
f 178/178/60 179/179/60 180/180/60
f 181/181/61 182/182/61 183/183/61
f 184/184/62 185/185/62 186/186/62
f 187/187/63 188/188/63 189/189/63
f 190/190/64 191/191/64 192/192/64
f 193/193/65 194/194/65 195/195/65
f 196/196/66 197/197/66 198/198/66
f 199/199/67 200/200/67 201/201/67
f 202/202/68 203/203/68 204/204/68
f 205/205/69 206/206/69 207/207/69
f 208/208/70 209/209/70 210/210/70
f 211/211/71 212/212/71 213/213/71
f 214/214/72 215/215/72 216/216/72
f 217/217/73 218/218/73 219/219/73
f 220/220/74 221/221/74 222/222/74
f 223/223/75 224/224/75 225/225/75
f 226/226/76 227/227/76 228/228/76
f 229/229/77 230/230/77 231/231/77
f 232/232/78 233/233/78 234/234/78
f 235/235/79 236/236/79 237/237/79
f 238/238/80 239/239/80 240/240/80
f 241/241/81 242/242/81 243/243/81
f 244/244/82 245/245/82 246/246/82
f 247/247/83 248/248/83 249/249/83
f 250/250/84 251/251/84 252/252/84
f 253/253/85 254/254/85 255/255/85
f 256/256/86 257/257/86 258/258/86
f 259/259/87 260/260/87 261/261/87
f 262/262/88 263/263/88 264/264/88
f 265/265/89 266/266/89 267/267/89
f 268/268/90 269/269/90 270/270/90
f 271/271/91 272/272/91 273/273/91
f 274/274/92 275/275/92 276/276/92
f 277/277/93 278/278/93 279/279/93
f 280/280/94 281/281/94 282/282/94
f 283/283/95 284/284/95 285/285/95
s 1
f 286/286/96 287/287/96 288/288/96
f 289/289/97 290/290/97 291/291/97
f 289/289/97 291/291/97 292/292/97
f 293/293/98 294/294/98 295/295/99
f 293/293/98 295/295/99 296/296/98
f 297/297/100 298/298/100 299/299/100
f 297/297/100 299/299/100 300/300/100
f 301/301/101 302/302/102 303/303/103
f 301/301/101 303/303/103 304/304/102
f 305/305/104 306/306/104 307/307/104
f 305/305/104 307/307/104 308/308/104
f 309/309/105 310/310/106 311/311/105
f 309/309/105 311/311/105 312/312/105
f 313/313/107 314/314/108 315/315/108
f 313/313/107 315/315/108 316/316/107
f 317/317/109 318/318/109 319/319/109
f 317/317/109 319/319/109 320/320/110
