# Blender v2.82 (sub 7) OBJ File: 'RaceTrack1.blend'
# www.blender.org
mtllib Cloud2.mtl
o Cloud2_Object_74_Object_35.001
v -0.002298 -0.642198 0.040925
v -0.237020 -0.539856 0.176865
v -0.223825 -0.548266 -0.071489
v -0.223825 -0.548266 -0.071489
v -0.237020 -0.539856 0.176865
v -0.308063 -0.270157 -0.032129
v 0.080895 -0.501072 0.228238
v 0.142158 -0.281465 0.222335
v -0.162596 -0.270348 0.290858
v -0.223825 -0.548266 -0.071489
v -0.308063 -0.270157 -0.032129
v -0.150303 -0.351179 -0.216554
v -0.064317 -0.502283 -0.191754
v -0.150303 -0.351179 -0.216554
v 0.175676 -0.435987 -0.096528
v 0.142158 -0.281465 0.222335
v 0.117132 -0.189078 -0.093989
v -0.076508 -0.086581 0.095867
v -0.162596 -0.270348 0.290858
v 0.142158 -0.281465 0.222335
v -0.076508 -0.086581 0.095867
v -0.308063 -0.270157 -0.032129
v -0.162596 -0.270348 0.290858
v -0.076508 -0.086581 0.095867
v 0.117132 -0.189078 -0.093989
v -0.125839 -0.181537 -0.147203
v -0.076508 -0.086581 0.095867
v -0.125839 -0.181537 -0.147203
v -0.308063 -0.270157 -0.032129
v -0.076508 -0.086581 0.095867
v 0.175676 -0.435987 -0.096528
v -0.150303 -0.351179 -0.216554
v 0.117132 -0.189078 -0.093989
v -0.150303 -0.351179 -0.216554
v -0.125839 -0.181537 -0.147203
v 0.117132 -0.189078 -0.093989
v -0.150303 -0.351179 -0.216554
v -0.308063 -0.270157 -0.032129
v -0.125839 -0.181537 -0.147203
v -0.277348 -0.378021 0.207126
v -0.162596 -0.270348 0.290858
v -0.308063 -0.270157 -0.032129
v 0.142158 -0.281465 0.222335
v 0.175676 -0.435987 -0.096528
v 0.117132 -0.189078 -0.093989
v -0.064317 -0.502283 -0.191754
v -0.223825 -0.548266 -0.071489
v -0.150303 -0.351179 -0.216554
v -0.308063 -0.270157 -0.032129
v -0.237020 -0.539856 0.176865
v -0.277348 -0.378021 0.207126
v -0.277348 -0.378021 0.207126
v -0.237020 -0.539856 0.176865
v -0.162596 -0.270348 0.290858
v -0.237020 -0.539856 0.176865
v 0.080895 -0.501072 0.228238
v -0.162596 -0.270348 0.290858
v 0.080895 -0.501072 0.228238
v 0.175676 -0.435987 -0.096528
v 0.142158 -0.281465 0.222335
v -0.002298 -0.642198 0.040925
v -0.223825 -0.548266 -0.071489
v -0.064317 -0.502283 -0.191754
v -0.002298 -0.642198 0.040925
v 0.080895 -0.501072 0.228238
v -0.237020 -0.539856 0.176865
v 0.175676 -0.435987 -0.096528
v -0.002298 -0.642198 0.040925
v -0.064317 -0.502283 -0.191754
v -0.002298 -0.642198 0.040925
v 0.175676 -0.435987 -0.096528
v 0.080895 -0.501072 0.228238
v -0.158559 -0.297134 0.132206
v -0.393281 -0.194792 0.268148
v -0.380085 -0.203200 0.019795
v -0.380085 -0.203200 0.019795
v -0.393281 -0.194792 0.268148
v -0.464324 0.074906 0.059154
v -0.075366 -0.156009 0.319520
v -0.014104 0.063601 0.313617
v -0.318857 0.074716 0.382139
v -0.380085 -0.203200 0.019795
v -0.464324 0.074906 0.059154
v -0.306564 -0.006116 -0.125271
v -0.220578 -0.157219 -0.100471
v -0.306564 -0.006116 -0.125271
v 0.019414 -0.090924 -0.005246
v -0.014104 0.063601 0.313617
v -0.039129 0.155985 -0.002708
v -0.232769 0.258485 0.187151
v -0.318857 0.074716 0.382139
v -0.014104 0.063601 0.313617
v -0.232769 0.258485 0.187151
v -0.464324 0.074906 0.059154
v -0.318857 0.074716 0.382139
v -0.232769 0.258485 0.187151
v -0.039129 0.155985 -0.002708
v -0.282102 0.163526 -0.055920
v -0.232769 0.258485 0.187151
v -0.282102 0.163526 -0.055920
v -0.464324 0.074906 0.059154
v -0.232769 0.258485 0.187151
v 0.019414 -0.090924 -0.005246
v -0.306564 -0.006116 -0.125271
v -0.039129 0.155985 -0.002708
v -0.306564 -0.006116 -0.125271
v -0.282102 0.163526 -0.055920
v -0.039129 0.155985 -0.002708
v -0.306564 -0.006116 -0.125271
v -0.464324 0.074906 0.059154
v -0.282102 0.163526 -0.055920
v -0.433608 -0.032957 0.298409
v -0.318857 0.074716 0.382139
v -0.464324 0.074906 0.059154
v -0.014104 0.063601 0.313617
v 0.019414 -0.090924 -0.005246
v -0.039129 0.155985 -0.002708
v -0.220578 -0.157219 -0.100471
v -0.380085 -0.203200 0.019795
v -0.306564 -0.006116 -0.125271
v -0.464324 0.074906 0.059154
v -0.393281 -0.194792 0.268148
v -0.433608 -0.032957 0.298409
v -0.433608 -0.032957 0.298409
v -0.393281 -0.194792 0.268148
v -0.318857 0.074716 0.382139
v -0.393281 -0.194792 0.268148
v -0.075366 -0.156009 0.319520
v -0.318857 0.074716 0.382139
v -0.075366 -0.156009 0.319520
v 0.019414 -0.090924 -0.005246
v -0.014104 0.063601 0.313617
v -0.158559 -0.297134 0.132206
v -0.380085 -0.203200 0.019795
v -0.220578 -0.157219 -0.100471
v -0.158559 -0.297134 0.132206
v -0.075366 -0.156009 0.319520
v -0.393281 -0.194792 0.268148
v 0.019414 -0.090924 -0.005246
v -0.158559 -0.297134 0.132206
v -0.220578 -0.157219 -0.100471
v -0.158559 -0.297134 0.132206
v 0.019414 -0.090924 -0.005246
v -0.075366 -0.156009 0.319520
v 0.286350 0.086478 -0.131632
v 0.024525 0.328443 0.088718
v 0.137908 0.238288 -0.383039
v 0.137908 0.238288 -0.383039
v 0.024525 0.328443 0.088718
v -0.019414 0.458518 -0.204686
v 0.431166 0.359797 0.092837
v 0.305190 0.595134 -0.291654
v 0.212139 0.642097 -0.076690
v 0.024525 0.328443 0.088718
v 0.431166 0.359797 0.092837
v 0.212139 0.642097 -0.076690
v -0.019414 0.458518 -0.204686
v 0.024525 0.328443 0.088718
v 0.212139 0.642097 -0.076690
v 0.305190 0.595134 -0.291654
v -0.019414 0.458518 -0.204686
v 0.212139 0.642097 -0.076690
v 0.464324 0.292688 -0.269085
v 0.137908 0.238288 -0.383039
v 0.305190 0.595134 -0.291654
v 0.137908 0.238288 -0.383039
v -0.019414 0.458518 -0.204686
v 0.305190 0.595134 -0.291654
v 0.431166 0.359797 0.092837
v 0.464324 0.292688 -0.269085
v 0.305190 0.595134 -0.291654
v 0.286350 0.086478 -0.131632
v 0.431166 0.359797 0.092837
v 0.024525 0.328443 0.088718
v 0.464324 0.292688 -0.269085
v 0.286350 0.086478 -0.131632
v 0.137908 0.238288 -0.383039
v 0.286350 0.086478 -0.131632
v 0.464324 0.292688 -0.269085
v 0.431166 0.359797 0.092837
v 0.224280 -0.352227 -0.093714
v -0.043141 -0.192458 0.067587
v 0.002754 -0.258295 -0.206126
v 0.002754 -0.258295 -0.206126
v -0.043141 -0.192458 0.067587
v -0.081485 0.019814 -0.166766
v 0.002754 -0.258295 -0.206126
v -0.081485 0.019814 -0.166766
v 0.108170 -0.161339 -0.360392
v 0.369097 -0.078910 0.130755
v 0.343710 0.100893 -0.228628
v 0.150070 0.203390 -0.038770
v 0.063982 0.019623 0.156219
v 0.369097 -0.078910 0.130755
v 0.150070 0.203390 -0.038770
v -0.081485 0.019814 -0.166766
v 0.063982 0.019623 0.156219
v 0.150070 0.203390 -0.038770
v 0.343710 0.100893 -0.228628
v 0.100739 0.108433 -0.281840
v 0.150070 0.203390 -0.038770
v 0.100739 0.108433 -0.281840
v -0.081485 0.019814 -0.166766
v 0.150070 0.203390 -0.038770
v 0.402254 -0.146016 -0.231167
v 0.108170 -0.161339 -0.360392
v 0.343710 0.100893 -0.228628
v 0.108170 -0.161339 -0.360392
v 0.100739 0.108433 -0.281840
v 0.343710 0.100893 -0.228628
v 0.108170 -0.161339 -0.360392
v -0.081485 0.019814 -0.166766
v 0.100739 0.108433 -0.281840
v -0.043141 -0.192458 0.067587
v 0.063982 0.019623 0.156219
v -0.081485 0.019814 -0.166766
v 0.369097 -0.078910 0.130755
v 0.402254 -0.146016 -0.231167
v 0.343710 0.100893 -0.228628
v -0.043141 -0.192458 0.067587
v 0.369097 -0.078910 0.130755
v 0.063982 0.019623 0.156219
v 0.224280 -0.352227 -0.093714
v 0.002754 -0.258295 -0.206126
v 0.108170 -0.161339 -0.360392
v 0.224280 -0.352227 -0.093714
v 0.369097 -0.078910 0.130755
v -0.043141 -0.192458 0.067587
v 0.402254 -0.146016 -0.231167
v 0.224280 -0.352227 -0.093714
v 0.108170 -0.161339 -0.360392
v 0.224280 -0.352227 -0.093714
v 0.402254 -0.146016 -0.231167
v 0.369097 -0.078910 0.130755
vt 0.272727 1.000000
vt 0.194689 0.862847
vt 0.340601 0.882438
vt 0.340601 0.882438
vt 0.194689 0.862847
vt 0.318592 0.711394
vt 0.863020 0.842539
vt 0.840484 0.725695
vt 0.985060 0.710955
vt 0.340601 0.882438
vt 0.318592 0.711394
vt 0.454545 0.763809
vt 0.499383 0.842539
vt 0.454545 0.763809
vt 0.658736 0.803093
vt 0.840484 0.725695
vt 0.623492 0.664771
vt 0.750307 0.567517
vt 0.985060 0.710955
vt 0.840484 0.725695
vt 0.921388 0.587550
vt 0.318592 0.711394
vt 0.106898 0.710955
vt 0.181818 0.606349
vt 0.623492 0.664771
vt 0.477580 0.645180
vt 0.545454 0.527618
vt 0.431510 0.645180
vt 0.318592 0.711394
vt 0.340187 0.568234
vt 0.658736 0.803093
vt 0.454545 0.763809
vt 0.623492 0.664771
vt 0.454545 0.763809
vt 0.477580 0.645180
vt 0.623492 0.664771
vt 0.454545 0.763809
vt 0.318592 0.711394
vt 0.477580 0.645180
vt 0.181818 0.763809
vt 0.106898 0.710955
vt 0.318592 0.711394
vt 0.840484 0.725695
vt 0.658736 0.803093
vt 0.623492 0.664771
vt 0.499383 0.842539
vt 0.340601 0.882438
vt 0.454545 0.763809
vt 0.318592 0.711394
vt 0.194689 0.862847
vt 0.181818 0.763809
vt 0.181818 0.763809
vt 0.136065 0.883155
vt 0.106898 0.710955
vt 0.136065 0.883155
vt 0.000000 0.842539
vt 0.106898 0.710955
vt 0.863020 0.842539
vt 0.658736 0.803093
vt 0.840484 0.725695
vt 0.477994 0.959384
vt 0.386671 0.882438
vt 0.499383 0.842539
vt 0.067874 0.960101
vt 0.000000 0.842539
vt 0.136065 0.883155
vt 0.658736 0.803093
vt 0.636363 0.921269
vt 0.499383 0.842539
vt 0.805883 0.940068
vt 0.658736 0.803093
vt 0.863020 0.842539
vt 0.272727 1.000000
vt 0.194689 0.862847
vt 0.340601 0.882438
vt 0.340601 0.882438
vt 0.194689 0.862847
vt 0.318592 0.711394
vt 0.863020 0.842539
vt 0.840484 0.725695
vt 0.985060 0.710955
vt 0.340601 0.882438
vt 0.318592 0.711394
vt 0.454545 0.763809
vt 0.499383 0.842539
vt 0.454545 0.763809
vt 0.658736 0.803093
vt 0.840484 0.725695
vt 0.623492 0.664771
vt 0.750307 0.567517
vt 0.985060 0.710955
vt 0.840484 0.725695
vt 0.921388 0.587550
vt 0.318592 0.711394
vt 0.106898 0.710955
vt 0.181818 0.606349
vt 0.623492 0.664771
vt 0.477580 0.645180
vt 0.545454 0.527618
vt 0.431510 0.645180
vt 0.318592 0.711394
vt 0.340187 0.568234
vt 0.658736 0.803093
vt 0.454545 0.763809
vt 0.623492 0.664771
vt 0.454545 0.763809
vt 0.477580 0.645180
vt 0.623492 0.664771
vt 0.454545 0.763809
vt 0.318592 0.711394
vt 0.477580 0.645180
vt 0.181818 0.763809
vt 0.106898 0.710955
vt 0.318592 0.711394
vt 0.840484 0.725695
vt 0.658736 0.803093
vt 0.623492 0.664771
vt 0.499383 0.842539
vt 0.340601 0.882438
vt 0.454545 0.763809
vt 0.318592 0.711394
vt 0.194689 0.862847
vt 0.181818 0.763809
vt 0.181818 0.763809
vt 0.136065 0.883155
vt 0.106898 0.710955
vt 0.136065 0.883155
vt 0.000000 0.842539
vt 0.106898 0.710955
vt 0.863020 0.842539
vt 0.658736 0.803093
vt 0.840484 0.725695
vt 0.477994 0.959384
vt 0.386671 0.882438
vt 0.499383 0.842539
vt 0.067874 0.960101
vt 0.000000 0.842539
vt 0.136065 0.883155
vt 0.658736 0.803093
vt 0.636363 0.921269
vt 0.499383 0.842539
vt 0.805883 0.940068
vt 0.658736 0.803093
vt 0.863020 0.842539
vt 0.272727 1.000000
vt 0.189591 0.823622
vt 0.450102 0.824716
vt 0.450102 0.824716
vt 0.189591 0.823622
vt 0.318592 0.711394
vt 0.848902 0.769339
vt 0.561767 0.656484
vt 0.750307 0.567517
vt 0.985060 0.710955
vt 0.848902 0.769339
vt 0.921388 0.587550
vt 0.318592 0.711394
vt 0.137078 0.790690
vt 0.181818 0.606349
vt 0.431510 0.645180
vt 0.318592 0.711394
vt 0.340187 0.568234
vt 0.658736 0.803093
vt 0.460034 0.824716
vt 0.561767 0.656484
vt 0.460034 0.824716
vt 0.318592 0.711394
vt 0.561767 0.656484
vt 0.848902 0.769339
vt 0.658736 0.803093
vt 0.561767 0.656484
vt 0.067874 0.960101
vt 0.000000 0.842539
vt 0.137078 0.790690
vt 0.658736 0.803093
vt 0.636363 0.921269
vt 0.460034 0.824716
vt 0.805883 0.940068
vt 0.658736 0.803093
vt 0.848902 0.769339
vt 0.272727 1.000000
vt 0.189591 0.823622
vt 0.340601 0.882438
vt 0.340601 0.882438
vt 0.189591 0.823622
vt 0.318592 0.711394
vt 0.340601 0.882438
vt 0.318592 0.711394
vt 0.480198 0.808851
vt 0.848902 0.769339
vt 0.623492 0.664771
vt 0.750307 0.567517
vt 0.985060 0.710955
vt 0.848902 0.769339
vt 0.921388 0.587550
vt 0.318592 0.711394
vt 0.106898 0.710955
vt 0.181818 0.606349
vt 0.623492 0.664771
vt 0.477580 0.645180
vt 0.545454 0.527618
vt 0.431510 0.645180
vt 0.318592 0.711394
vt 0.340187 0.568234
vt 0.658736 0.803093
vt 0.480198 0.808851
vt 0.623492 0.664771
vt 0.480198 0.808851
vt 0.477580 0.645180
vt 0.623492 0.664771
vt 0.480198 0.808851
vt 0.318592 0.711394
vt 0.477580 0.645180
vt 0.154186 0.835887
vt 0.106898 0.710955
vt 0.318592 0.711394
vt 0.848902 0.769339
vt 0.658736 0.803093
vt 0.623492 0.664771
vt 0.154186 0.835887
vt 0.000000 0.842539
vt 0.106898 0.710955
vt 0.477994 0.959384
vt 0.386671 0.882438
vt 0.480198 0.808851
vt 0.067874 0.960101
vt 0.000000 0.842539
vt 0.154186 0.835887
vt 0.658736 0.803093
vt 0.636363 0.921269
vt 0.480198 0.808851
vt 0.805883 0.940068
vt 0.658736 0.803093
vt 0.848902 0.769339
vn -0.3947 -0.9187 0.0101
vn -0.9579 -0.2843 -0.0413
vn 0.2180 -0.0346 0.9753
vn -0.7831 -0.1518 -0.6031
vn 0.3565 0.0497 -0.9330
vn 0.5935 0.7840 0.1820
vn 0.1856 0.6729 0.7161
vn -0.6901 0.6534 0.3112
vn 0.1120 0.9177 -0.3812
vn -0.5324 0.8195 -0.2121
vn 0.3659 0.0963 -0.9257
vn 0.2111 0.3436 -0.9151
vn -0.6182 0.3722 -0.6923
vn -0.7637 0.5462 0.3443
vn 0.9730 0.2308 -0.0096
vn -0.4758 -0.3994 -0.7837
vn -0.9696 -0.2443 0.0143
vn -0.3953 -0.2631 0.8801
vn -0.1054 -0.3626 0.9260
vn 0.9405 -0.2564 0.2231
vn -0.1189 -0.8646 -0.4882
vn 0.0002 -0.7987 0.6017
vn 0.4175 -0.7253 -0.5474
vn 0.7871 -0.6073 0.1080
vn -0.9578 -0.2843 -0.0413
vn -0.5325 0.8195 -0.2121
vn 0.2111 0.3437 -0.9151
vn -0.1054 -0.3625 0.9260
vn -0.6911 -0.7222 -0.0281
vn -0.8472 -0.5209 -0.1041
vn 0.7269 0.6656 0.1692
vn -0.0464 0.4876 0.8719
vn -0.6943 0.6136 0.3760
vn -0.4429 0.8166 -0.3701
vn 0.3140 0.0947 -0.9447
vn -0.3893 0.3955 -0.8318
vn 0.8851 0.4653 -0.0052
vn 0.0422 -0.6474 0.7610
vn 0.3355 -0.7056 -0.6242
vn 0.8007 -0.5715 0.1793
vn -0.4452 -0.8847 0.1381
vn -0.9564 -0.2764 -0.0939
vn -0.7716 -0.1461 -0.6191
vn 0.6586 0.6905 0.2990
vn 0.2668 0.6398 0.7208
vn 0.3956 0.1032 -0.9126
vn 0.2137 0.2785 -0.9363
vn -0.5930 0.2100 -0.7773
vn -0.8759 0.2775 0.3947
vn 0.9721 0.2300 0.0464
vn -0.0411 -0.3675 0.9291
vn -0.0643 -0.8245 -0.5622
vn 0.0644 -0.6535 0.7542
vn 0.3175 -0.7002 -0.6394
usemtl cloud.002
s off
f 1/1/1 2/2/1 3/3/1
f 4/4/2 5/5/2 6/6/2
f 7/7/3 8/8/3 9/9/3
f 10/10/4 11/11/4 12/12/4
f 13/13/5 14/14/5 15/15/5
f 16/16/6 17/17/6 18/18/6
f 19/19/7 20/20/7 21/21/7
f 22/22/8 23/23/8 24/24/8
f 25/25/9 26/26/9 27/27/9
f 28/28/10 29/29/10 30/30/10
f 31/31/11 32/32/11 33/33/11
f 34/34/12 35/35/12 36/36/12
f 37/37/13 38/38/13 39/39/13
f 40/40/14 41/41/14 42/42/14
f 43/43/15 44/44/15 45/45/15
f 46/46/16 47/47/16 48/48/16
f 49/49/17 50/50/17 51/51/17
f 52/52/18 53/53/18 54/54/18
f 55/55/19 56/56/19 57/57/19
f 58/58/20 59/59/20 60/60/20
f 61/61/21 62/62/21 63/63/21
f 64/64/22 65/65/22 66/66/22
f 67/67/23 68/68/23 69/69/23
f 70/70/24 71/71/24 72/72/24
f 73/73/1 74/74/1 75/75/1
f 76/76/25 77/77/25 78/78/25
f 79/79/3 80/80/3 81/81/3
f 82/82/4 83/83/4 84/84/4
f 85/85/5 86/86/5 87/87/5
f 88/88/6 89/89/6 90/90/6
f 91/91/7 92/92/7 93/93/7
f 94/94/8 95/95/8 96/96/8
f 97/97/9 98/98/9 99/99/9
f 100/100/26 101/101/26 102/102/26
f 103/103/11 104/104/11 105/105/11
f 106/106/27 107/107/27 108/108/27
f 109/109/13 110/110/13 111/111/13
f 112/112/14 113/113/14 114/114/14
f 115/115/15 116/116/15 117/117/15
f 118/118/16 119/119/16 120/120/16
f 121/121/17 122/122/17 123/123/17
f 124/124/18 125/125/18 126/126/18
f 127/127/28 128/128/28 129/129/28
f 130/130/20 131/131/20 132/132/20
f 133/133/21 134/134/21 135/135/21
f 136/136/22 137/137/22 138/138/22
f 139/139/23 140/140/23 141/141/23
f 142/142/24 143/143/24 144/144/24
f 145/145/29 146/146/29 147/147/29
f 148/148/30 149/149/30 150/150/30
f 151/151/31 152/152/31 153/153/31
f 154/154/32 155/155/32 156/156/32
f 157/157/33 158/158/33 159/159/33
f 160/160/34 161/161/34 162/162/34
f 163/163/35 164/164/35 165/165/35
f 166/166/36 167/167/36 168/168/36
f 169/169/37 170/170/37 171/171/37
f 172/172/38 173/173/38 174/174/38
f 175/175/39 176/176/39 177/177/39
f 178/178/40 179/179/40 180/180/40
f 181/181/41 182/182/41 183/183/41
f 184/184/42 185/185/42 186/186/42
f 187/187/43 188/188/43 189/189/43
f 190/190/44 191/191/44 192/192/44
f 193/193/45 194/194/45 195/195/45
f 196/196/8 197/197/8 198/198/8
f 199/199/9 200/200/9 201/201/9
f 202/202/10 203/203/10 204/204/10
f 205/205/46 206/206/46 207/207/46
f 208/208/47 209/209/47 210/210/47
f 211/211/48 212/212/48 213/213/48
f 214/214/49 215/215/49 216/216/49
f 217/217/50 218/218/50 219/219/50
f 220/220/51 221/221/51 222/222/51
f 223/223/52 224/224/52 225/225/52
f 226/226/53 227/227/53 228/228/53
f 229/229/54 230/230/54 231/231/54
f 232/232/40 233/233/40 234/234/40
