# Blender v2.82 (sub 7) OBJ File: 'RaceTrack1.blend'
# www.blender.org
mtllib Cloud22.mtl
o Cloud22_Object_54_Object_25.001
v 0.027428 -0.642352 -0.012471
v 0.298813 -0.540396 -0.010720
v 0.161156 -0.547494 0.196460
v 0.161156 -0.547494 0.196460
v 0.298813 -0.540396 -0.010720
v 0.254112 -0.269477 0.203912
v 0.051247 -0.502355 -0.216819
v -0.004185 -0.282809 -0.244065
v 0.293087 -0.271613 -0.148163
v -0.037281 -0.501100 0.218662
v 0.024372 -0.349740 0.282929
v -0.195412 -0.435668 0.014279
v -0.004185 -0.282809 -0.244065
v -0.143349 -0.188690 0.040539
v 0.120079 -0.086929 -0.025026
v 0.293087 -0.271613 -0.148163
v -0.004185 -0.282809 -0.244065
v 0.120079 -0.086929 -0.025026
v 0.254112 -0.269477 0.203912
v 0.293087 -0.271613 -0.148163
v 0.120079 -0.086929 -0.025026
v -0.143349 -0.188690 0.040539
v 0.038822 -0.180508 0.209866
v 0.120079 -0.086929 -0.025026
v 0.038822 -0.180508 0.209866
v 0.254112 -0.269477 0.203912
v 0.120079 -0.086929 -0.025026
v -0.195412 -0.435668 0.014279
v 0.024372 -0.349740 0.282929
v -0.143349 -0.188690 0.040539
v 0.024372 -0.349740 0.282929
v 0.038822 -0.180508 0.209866
v -0.143349 -0.188690 0.040539
v 0.024372 -0.349740 0.282929
v 0.254112 -0.269477 0.203912
v 0.038822 -0.180508 0.209866
v 0.349163 -0.378667 -0.017139
v 0.293087 -0.271613 -0.148163
v 0.254112 -0.269477 0.203912
v -0.004185 -0.282809 -0.244065
v -0.195412 -0.435668 0.014279
v -0.143349 -0.188690 0.040539
v -0.037281 -0.501100 0.218662
v 0.161156 -0.547494 0.196460
v 0.024372 -0.349740 0.282929
v 0.254112 -0.269477 0.203912
v 0.298813 -0.540396 -0.010720
v 0.349163 -0.378667 -0.017139
v 0.349163 -0.378667 -0.017139
v 0.298813 -0.540396 -0.010720
v 0.293087 -0.271613 -0.148163
v 0.298813 -0.540396 -0.010720
v 0.051247 -0.502355 -0.216819
v 0.293087 -0.271613 -0.148163
v 0.051247 -0.502355 -0.216819
v -0.195412 -0.435668 0.014279
v -0.004185 -0.282809 -0.244065
v 0.027428 -0.642352 -0.012471
v 0.161156 -0.547494 0.196460
v -0.037281 -0.501100 0.218662
v 0.027428 -0.642352 -0.012471
v 0.051247 -0.502355 -0.216819
v 0.298813 -0.540396 -0.010720
v -0.195412 -0.435668 0.014279
v 0.027428 -0.642352 -0.012471
v -0.037281 -0.501100 0.218662
v 0.027428 -0.642352 -0.012471
v -0.195412 -0.435668 0.014279
v 0.051247 -0.502355 -0.216819
v 0.208900 -0.297554 -0.013465
v 0.480286 -0.195599 -0.011714
v 0.342628 -0.202694 0.195466
v 0.342628 -0.202694 0.195466
v 0.480286 -0.195599 -0.011714
v 0.435585 0.075321 0.202918
v 0.232719 -0.157557 -0.217812
v 0.177288 0.061990 -0.245058
v 0.474560 0.073185 -0.149156
v 0.342628 -0.202694 0.195466
v 0.435585 0.075321 0.202918
v 0.205849 -0.004942 0.281935
v 0.144196 -0.156302 0.217668
v 0.205849 -0.004942 0.281935
v -0.013935 -0.090870 0.013285
v 0.177288 0.061990 -0.245058
v 0.038124 0.156107 0.039545
v 0.301552 0.257868 -0.026020
v 0.474560 0.073185 -0.149156
v 0.177288 0.061990 -0.245058
v 0.301552 0.257868 -0.026020
v 0.435585 0.075321 0.202918
v 0.474560 0.073185 -0.149156
v 0.301552 0.257868 -0.026020
v 0.038124 0.156107 0.039545
v 0.220295 0.164289 0.208872
v 0.301552 0.257868 -0.026020
v 0.220295 0.164289 0.208872
v 0.435585 0.075321 0.202918
v 0.301552 0.257868 -0.026020
v -0.013935 -0.090870 0.013285
v 0.205849 -0.004942 0.281935
v 0.038124 0.156107 0.039545
v 0.205849 -0.004942 0.281935
v 0.220295 0.164289 0.208872
v 0.038124 0.156107 0.039545
v 0.205849 -0.004942 0.281935
v 0.435585 0.075321 0.202918
v 0.220295 0.164289 0.208872
v 0.530636 -0.033870 -0.018133
v 0.474560 0.073185 -0.149156
v 0.435585 0.075321 0.202918
v 0.177288 0.061990 -0.245058
v -0.013935 -0.090870 0.013285
v 0.038124 0.156107 0.039545
v 0.144196 -0.156302 0.217668
v 0.342628 -0.202694 0.195466
v 0.205849 -0.004942 0.281935
v 0.435585 0.075321 0.202918
v 0.480286 -0.195599 -0.011714
v 0.530636 -0.033870 -0.018133
v 0.530636 -0.033870 -0.018133
v 0.480286 -0.195599 -0.011714
v 0.474560 0.073185 -0.149156
v 0.480286 -0.195599 -0.011714
v 0.232719 -0.157557 -0.217812
v 0.474560 0.073185 -0.149156
v 0.232719 -0.157557 -0.217812
v -0.013935 -0.090870 0.013285
v 0.177288 0.061990 -0.245058
v 0.208900 -0.297554 -0.013465
v 0.342628 -0.202694 0.195466
v 0.144196 -0.156302 0.217668
v 0.208900 -0.297554 -0.013465
v 0.232719 -0.157557 -0.217812
v 0.480286 -0.195599 -0.011714
v -0.013935 -0.090870 0.013285
v 0.208900 -0.297554 -0.013465
v 0.144196 -0.156302 0.217668
v 0.208900 -0.297554 -0.013465
v -0.013935 -0.090870 0.013285
v 0.232719 -0.157557 -0.217812
v -0.307793 0.086815 -0.014574
v 0.030056 0.327979 -0.072469
v -0.307587 0.240189 0.276569
v -0.307587 0.240189 0.276569
v 0.030056 0.327979 -0.072469
v -0.081108 0.459690 0.201810
v -0.317947 0.358714 -0.282956
v -0.404640 0.596294 0.110907
v -0.215141 0.642239 -0.027127
v 0.030056 0.327979 -0.072469
v -0.317947 0.358714 -0.282956
v -0.215141 0.642239 -0.027127
v -0.081108 0.459690 0.201810
v 0.030056 0.327979 -0.072469
v -0.215141 0.642239 -0.027127
v -0.404640 0.596294 0.110907
v -0.081108 0.459690 0.201810
v -0.215141 0.642239 -0.027127
v -0.530632 0.293499 0.012178
v -0.307587 0.240189 0.276569
v -0.404640 0.596294 0.110907
v -0.307587 0.240189 0.276569
v -0.081108 0.459690 0.201810
v -0.404640 0.596294 0.110907
v -0.317947 0.358714 -0.282956
v -0.530632 0.293499 0.012178
v -0.404640 0.596294 0.110907
v -0.307793 0.086815 -0.014574
v -0.317947 0.358714 -0.282956
v 0.030056 0.327979 -0.072469
v -0.530632 0.293499 0.012178
v -0.307793 0.086815 -0.014574
v -0.307587 0.240189 0.276569
v -0.307793 0.086815 -0.014574
v -0.530632 0.293499 0.012178
v -0.317947 0.358714 -0.282956
v -0.235710 -0.351995 -0.013310
v 0.076813 -0.192702 -0.017074
v -0.101982 -0.257137 0.195623
v -0.101982 -0.257137 0.195623
v 0.076813 -0.192702 -0.017074
v -0.009022 0.020880 0.203075
v -0.101982 -0.257137 0.195623
v -0.009022 0.020880 0.203075
v -0.271049 -0.159509 0.274331
v -0.245865 -0.080099 -0.281692
v -0.406483 0.101666 0.039702
v -0.143055 0.203427 -0.025863
v 0.029953 0.018743 -0.148999
v -0.245865 -0.080099 -0.281692
v -0.143055 0.203427 -0.025863
v -0.009022 0.020880 0.203075
v 0.029953 0.018743 -0.148999
v -0.143055 0.203427 -0.025863
v -0.406483 0.101666 0.039702
v -0.224316 0.109848 0.209029
v -0.143055 0.203427 -0.025863
v -0.224316 0.109848 0.209029
v -0.009022 0.020880 0.203075
v -0.143055 0.203427 -0.025863
v -0.458546 -0.145311 0.013442
v -0.271049 -0.159509 0.274331
v -0.406483 0.101666 0.039702
v -0.271049 -0.159509 0.274331
v -0.224316 0.109848 0.209029
v -0.406483 0.101666 0.039702
v -0.271049 -0.159509 0.274331
v -0.009022 0.020880 0.203075
v -0.224316 0.109848 0.209029
v 0.076813 -0.192702 -0.017074
v 0.029953 0.018743 -0.148999
v -0.009022 0.020880 0.203075
v -0.245865 -0.080099 -0.281692
v -0.458546 -0.145311 0.013442
v -0.406483 0.101666 0.039702
v 0.076813 -0.192702 -0.017074
v -0.245865 -0.080099 -0.281692
v 0.029953 0.018743 -0.148999
v -0.235710 -0.351995 -0.013310
v -0.101982 -0.257137 0.195623
v -0.271049 -0.159509 0.274331
v -0.235710 -0.351995 -0.013310
v -0.245865 -0.080099 -0.281692
v 0.076813 -0.192702 -0.017074
v -0.458546 -0.145311 0.013442
v -0.235710 -0.351995 -0.013310
v -0.271049 -0.159509 0.274331
v -0.235710 -0.351995 -0.013310
v -0.458546 -0.145311 0.013442
v -0.245865 -0.080099 -0.281692
v 0.161156 -0.547494 0.196460
v 0.254112 -0.269477 0.203912
v 0.024372 -0.349740 0.282929
vt 0.272727 1.000000
vt 0.194689 0.862847
vt 0.340601 0.882438
vt 0.340601 0.882438
vt 0.194689 0.862847
vt 0.318592 0.711394
vt 0.863020 0.842539
vt 0.840484 0.725695
vt 0.985060 0.710955
vt 0.499383 0.842539
vt 0.454545 0.763809
vt 0.658736 0.803093
vt 0.840484 0.725695
vt 0.623492 0.664771
vt 0.750307 0.567517
vt 0.985060 0.710955
vt 0.840484 0.725695
vt 0.921388 0.587550
vt 0.318592 0.711394
vt 0.106898 0.710955
vt 0.181818 0.606349
vt 0.623492 0.664771
vt 0.477580 0.645180
vt 0.545454 0.527618
vt 0.431510 0.645180
vt 0.318592 0.711394
vt 0.340187 0.568234
vt 0.658736 0.803093
vt 0.454545 0.763809
vt 0.623492 0.664771
vt 0.454545 0.763809
vt 0.477580 0.645180
vt 0.623492 0.664771
vt 0.454545 0.763809
vt 0.318592 0.711394
vt 0.477580 0.645180
vt 0.181818 0.763809
vt 0.106898 0.710955
vt 0.318592 0.711394
vt 0.840484 0.725695
vt 0.658736 0.803093
vt 0.623492 0.664771
vt 0.499383 0.842539
vt 0.340601 0.882438
vt 0.454545 0.763809
vt 0.318592 0.711394
vt 0.194689 0.862847
vt 0.181818 0.763809
vt 0.181818 0.763809
vt 0.136065 0.883155
vt 0.106898 0.710955
vt 0.136065 0.883155
vt 0.000000 0.842539
vt 0.106898 0.710955
vt 0.863020 0.842539
vt 0.658736 0.803093
vt 0.840484 0.725695
vt 0.477994 0.959384
vt 0.386671 0.882438
vt 0.499383 0.842539
vt 0.067874 0.960101
vt 0.000000 0.842539
vt 0.136065 0.883155
vt 0.658736 0.803093
vt 0.636363 0.921269
vt 0.499383 0.842539
vt 0.805883 0.940068
vt 0.658736 0.803093
vt 0.863020 0.842539
vt 0.272727 1.000000
vt 0.194689 0.862847
vt 0.340601 0.882438
vt 0.340601 0.882438
vt 0.194689 0.862847
vt 0.318592 0.711394
vt 0.863020 0.842539
vt 0.840484 0.725695
vt 0.985060 0.710955
vt 0.340601 0.882438
vt 0.318592 0.711394
vt 0.454545 0.763809
vt 0.499383 0.842539
vt 0.454545 0.763809
vt 0.658736 0.803093
vt 0.840484 0.725695
vt 0.623492 0.664771
vt 0.750307 0.567517
vt 0.985060 0.710955
vt 0.840484 0.725695
vt 0.921388 0.587550
vt 0.318592 0.711394
vt 0.106898 0.710955
vt 0.181818 0.606349
vt 0.623492 0.664771
vt 0.477580 0.645180
vt 0.545454 0.527618
vt 0.431510 0.645180
vt 0.318592 0.711394
vt 0.340187 0.568234
vt 0.658736 0.803093
vt 0.454545 0.763809
vt 0.623492 0.664771
vt 0.454545 0.763809
vt 0.477580 0.645180
vt 0.623492 0.664771
vt 0.454545 0.763809
vt 0.318592 0.711394
vt 0.477580 0.645180
vt 0.181818 0.763809
vt 0.106898 0.710955
vt 0.318592 0.711394
vt 0.840484 0.725695
vt 0.658736 0.803093
vt 0.623492 0.664771
vt 0.499383 0.842539
vt 0.340601 0.882438
vt 0.454545 0.763809
vt 0.318592 0.711394
vt 0.194689 0.862847
vt 0.181818 0.763809
vt 0.181818 0.763809
vt 0.136065 0.883155
vt 0.106898 0.710955
vt 0.136065 0.883155
vt 0.000000 0.842539
vt 0.106898 0.710955
vt 0.863020 0.842539
vt 0.658736 0.803093
vt 0.840484 0.725695
vt 0.477994 0.959384
vt 0.386671 0.882438
vt 0.499383 0.842539
vt 0.067874 0.960101
vt 0.000000 0.842539
vt 0.136065 0.883155
vt 0.658736 0.803093
vt 0.636363 0.921269
vt 0.499383 0.842539
vt 0.805883 0.940068
vt 0.658736 0.803093
vt 0.863020 0.842539
vt 0.272727 1.000000
vt 0.189591 0.823622
vt 0.450102 0.824716
vt 0.450102 0.824716
vt 0.189591 0.823622
vt 0.318592 0.711394
vt 0.848902 0.769339
vt 0.561767 0.656484
vt 0.750307 0.567517
vt 0.985060 0.710955
vt 0.848902 0.769339
vt 0.921388 0.587550
vt 0.318592 0.711394
vt 0.137078 0.790690
vt 0.181818 0.606349
vt 0.431510 0.645180
vt 0.318592 0.711394
vt 0.340187 0.568234
vt 0.658736 0.803093
vt 0.460034 0.824716
vt 0.561767 0.656484
vt 0.460034 0.824716
vt 0.318592 0.711394
vt 0.561767 0.656484
vt 0.848902 0.769339
vt 0.658736 0.803093
vt 0.561767 0.656484
vt 0.067874 0.960101
vt 0.000000 0.842539
vt 0.137078 0.790690
vt 0.658736 0.803093
vt 0.636363 0.921269
vt 0.460034 0.824716
vt 0.805883 0.940068
vt 0.658736 0.803093
vt 0.848902 0.769339
vt 0.272727 1.000000
vt 0.189591 0.823622
vt 0.340601 0.882438
vt 0.340601 0.882438
vt 0.189591 0.823622
vt 0.318592 0.711394
vt 0.340601 0.882438
vt 0.318592 0.711394
vt 0.480198 0.808851
vt 0.848902 0.769339
vt 0.623492 0.664771
vt 0.750307 0.567517
vt 0.985060 0.710955
vt 0.848902 0.769339
vt 0.921388 0.587550
vt 0.318592 0.711394
vt 0.106898 0.710955
vt 0.181818 0.606349
vt 0.623492 0.664771
vt 0.477580 0.645180
vt 0.545454 0.527618
vt 0.431510 0.645180
vt 0.318592 0.711394
vt 0.340187 0.568234
vt 0.658736 0.803093
vt 0.480198 0.808851
vt 0.623492 0.664771
vt 0.480198 0.808851
vt 0.477580 0.645180
vt 0.623492 0.664771
vt 0.480198 0.808851
vt 0.318592 0.711394
vt 0.477580 0.645180
vt 0.154186 0.835887
vt 0.106898 0.710955
vt 0.318592 0.711394
vt 0.848902 0.769339
vt 0.658736 0.803093
vt 0.623492 0.664771
vt 0.154186 0.835887
vt 0.000000 0.842539
vt 0.106898 0.710955
vt 0.477994 0.959384
vt 0.386671 0.882438
vt 0.480198 0.808851
vt 0.067874 0.960101
vt 0.000000 0.842539
vt 0.154186 0.835887
vt 0.658736 0.803093
vt 0.636363 0.921269
vt 0.480198 0.808851
vt 0.805883 0.940068
vt 0.658736 0.803093
vt 0.848902 0.769339
vt 0.340601 0.882438
vt 0.318592 0.711394
vt 0.454545 0.763809
vn 0.3437 -0.9182 0.1969
vn 0.8034 -0.2827 0.5241
vn 0.3081 -0.0402 -0.9505
vn -0.7813 0.0542 0.6218
vn -0.4173 0.7821 -0.4627
vn 0.2053 0.6688 -0.7146
vn 0.7534 0.6528 0.0794
vn -0.2889 0.9195 0.2664
vn 0.3518 0.8214 0.4489
vn -0.7856 0.1007 0.6105
vn -0.6465 0.3482 0.6788
vn 0.1808 0.3768 0.9085
vn 0.8334 0.5454 0.0890
vn -0.8423 0.2294 -0.4877
vn 0.0106 -0.3945 0.9189
vn 0.8418 -0.2429 0.4820
vn 0.7875 -0.2672 -0.5554
vn 0.5611 -0.3674 -0.7418
vn -0.6968 -0.2589 -0.6689
vn -0.1472 -0.8618 0.4855
vn 0.3046 -0.8020 -0.5139
vn -0.6390 -0.7229 0.2629
vn -0.6237 -0.6090 -0.4900
vn 0.3674 -0.1474 0.9183
vn -0.4173 0.7822 -0.4627
vn 0.2053 0.6688 -0.7145
vn -0.6237 -0.6090 -0.4899
vn 0.5797 -0.7211 0.3794
vn 0.6758 -0.5191 0.5232
vn -0.5389 0.6636 -0.5189
vn 0.4840 0.4829 -0.7297
vn 0.7900 0.6126 0.0260
vn 0.1943 0.8193 0.5395
vn -0.7506 0.0993 0.6532
vn -0.0871 0.4006 0.9121
vn -0.7641 0.4641 -0.4481
vn 0.3497 -0.6515 -0.6733
vn -0.6073 -0.7027 0.3706
vn -0.5991 -0.5737 -0.5585
vn 0.4523 -0.8848 0.1122
vn 0.7754 -0.2745 0.5687
vn 0.3494 -0.1417 0.9262
vn -0.4141 0.6880 -0.5960
vn 0.1377 0.6355 -0.7597
vn -0.8046 0.1075 0.5841
vn -0.6597 0.2832 0.6961
vn 0.1157 0.2150 0.9697
vn 0.9553 0.2766 0.1041
vn -0.8131 0.2283 -0.5355
vn 0.5073 -0.3724 -0.7771
vn -0.2317 -0.8214 0.5212
vn 0.3270 -0.6577 -0.6786
vn -0.5995 -0.6972 0.3929
usemtl cloud.002
s off
f 1/1/1 2/2/1 3/3/1
f 4/4/2 5/5/2 6/6/2
f 7/7/3 8/8/3 9/9/3
f 10/10/4 11/11/4 12/12/4
f 13/13/5 14/14/5 15/15/5
f 16/16/6 17/17/6 18/18/6
f 19/19/7 20/20/7 21/21/7
f 22/22/8 23/23/8 24/24/8
f 25/25/9 26/26/9 27/27/9
f 28/28/10 29/29/10 30/30/10
f 31/31/11 32/32/11 33/33/11
f 34/34/12 35/35/12 36/36/12
f 37/37/13 38/38/13 39/39/13
f 40/40/14 41/41/14 42/42/14
f 43/43/15 44/44/15 45/45/15
f 46/46/16 47/47/16 48/48/16
f 49/49/17 50/50/17 51/51/17
f 52/52/18 53/53/18 54/54/18
f 55/55/19 56/56/19 57/57/19
f 58/58/20 59/59/20 60/60/20
f 61/61/21 62/62/21 63/63/21
f 64/64/22 65/65/22 66/66/22
f 67/67/23 68/68/23 69/69/23
f 70/70/1 71/71/1 72/72/1
f 73/73/2 74/74/2 75/75/2
f 76/76/3 77/77/3 78/78/3
f 79/79/24 80/80/24 81/81/24
f 82/82/4 83/83/4 84/84/4
f 85/85/25 86/86/25 87/87/25
f 88/88/26 89/89/26 90/90/26
f 91/91/7 92/92/7 93/93/7
f 94/94/8 95/95/8 96/96/8
f 97/97/9 98/98/9 99/99/9
f 100/100/10 101/101/10 102/102/10
f 103/103/11 104/104/11 105/105/11
f 106/106/12 107/107/12 108/108/12
f 109/109/13 110/110/13 111/111/13
f 112/112/14 113/113/14 114/114/14
f 115/115/15 116/116/15 117/117/15
f 118/118/16 119/119/16 120/120/16
f 121/121/17 122/122/17 123/123/17
f 124/124/18 125/125/18 126/126/18
f 127/127/19 128/128/19 129/129/19
f 130/130/20 131/131/20 132/132/20
f 133/133/21 134/134/21 135/135/21
f 136/136/22 137/137/22 138/138/22
f 139/139/27 140/140/27 141/141/27
f 142/142/28 143/143/28 144/144/28
f 145/145/29 146/146/29 147/147/29
f 148/148/30 149/149/30 150/150/30
f 151/151/31 152/152/31 153/153/31
f 154/154/32 155/155/32 156/156/32
f 157/157/33 158/158/33 159/159/33
f 160/160/34 161/161/34 162/162/34
f 163/163/35 164/164/35 165/165/35
f 166/166/36 167/167/36 168/168/36
f 169/169/37 170/170/37 171/171/37
f 172/172/38 173/173/38 174/174/38
f 175/175/39 176/176/39 177/177/39
f 178/178/40 179/179/40 180/180/40
f 181/181/41 182/182/41 183/183/41
f 184/184/42 185/185/42 186/186/42
f 187/187/43 188/188/43 189/189/43
f 190/190/44 191/191/44 192/192/44
f 193/193/7 194/194/7 195/195/7
f 196/196/8 197/197/8 198/198/8
f 199/199/9 200/200/9 201/201/9
f 202/202/45 203/203/45 204/204/45
f 205/205/46 206/206/46 207/207/46
f 208/208/47 209/209/47 210/210/47
f 211/211/48 212/212/48 213/213/48
f 214/214/49 215/215/49 216/216/49
f 217/217/50 218/218/50 219/219/50
f 220/220/51 221/221/51 222/222/51
f 223/223/52 224/224/52 225/225/52
f 226/226/53 227/227/53 228/228/53
f 229/229/39 230/230/39 231/231/39
s 1
f 232/232/24 233/233/24 234/234/24
