# Blender v2.82 (sub 7) OBJ File: 'RaceTrack1.blend'
# www.blender.org
mtllib Cloud1.mtl
o Cloud1_Object_90_Object_43.001
v -0.150162 -0.187490 0.534415
v -0.470875 -0.337404 0.115179
v -0.418680 0.430121 0.047051
v 0.153017 -0.557264 -0.365753
v 0.469921 -0.169757 -0.133857
v -0.453070 0.014502 -0.311576
v 0.461163 -0.364825 0.041230
v 0.532120 0.205558 0.037232
v -0.186707 -0.412504 0.368548
v -0.432358 0.178687 0.292691
v -0.054670 0.207031 0.548371
v -0.126040 0.382708 0.465997
v -0.254070 -0.396141 -0.325150
v -0.254070 0.475853 -0.327663
v 0.076519 0.525360 -0.440090
v 0.327824 -0.425668 0.178352
v -0.009249 -0.337107 0.501988
v -0.529877 0.321542 -0.089281
v 0.010780 -0.399285 -0.527847
v 0.020981 0.246498 -0.549678
v 0.045351 0.557310 0.380889
v 0.384991 0.429842 -0.049529
v 0.517029 -0.188645 0.133862
v 0.404762 0.186589 0.277377
v 0.450254 0.381676 0.108096
v -0.532120 -0.305590 -0.073289
v 0.294687 -0.000109 -0.436227
v -0.264900 -0.464612 -0.037867
vt 0.546958 0.623099
vt 0.394234 0.578042
vt 0.453042 0.734818
vt 0.501901 0.421958
vt 0.598488 0.500000
vt 0.625000 0.375000
vt 0.144234 0.328042
vt 0.125000 0.456587
vt 0.203042 0.484818
vt 0.546958 0.015182
vt 0.453042 0.000000
vt 0.453042 0.078042
vt 0.855766 0.421958
vt 0.875000 0.293413
vt 0.796958 0.265182
vt 0.546958 0.765182
vt 0.296958 0.500000
vt 0.296958 0.421958
vt 0.703042 0.484818
vt 0.831587 0.500000
vt 0.625000 0.578042
vt 0.599649 0.731938
vt 0.375000 0.375000
vt 0.296958 0.265182
vt 0.638903 0.256003
vt 0.168413 0.250000
vt 0.501901 0.171958
vt 0.546958 0.265182
vt 0.410692 0.263903
vt 0.400351 0.018062
vt 0.453042 0.984818
vt 0.375000 0.921958
vt 0.375000 0.967016
vt 0.625000 0.078042
vt 0.625000 0.032984
vt 0.546958 0.921958
vt 0.546958 1.000000
vt 0.599649 0.981938
vt 0.375000 0.671958
vt 0.375000 0.717016
vt 0.625000 0.828042
vt 0.625000 0.782984
vt 0.375000 0.171958
vt 0.393062 0.491550
vt 0.410846 0.780009
vn -0.7549 -0.1622 0.6355
vn -0.7131 0.2853 -0.6404
vn 0.1133 -0.9220 0.3703
vn 0.9806 -0.0812 -0.1783
vn 0.4456 0.8909 0.0878
vn -0.5629 0.1072 0.8196
vn -0.4078 -0.8924 0.1929
vn -0.5204 0.7282 0.4459
vn -0.6574 0.5446 0.5208
vn -0.3779 -0.8973 -0.2281
vn -0.1260 0.9899 0.0655
vn 0.4673 -0.8818 0.0631
vn 0.8794 0.0690 -0.4710
vn -0.4395 -0.0234 -0.8979
vn 0.9607 -0.2080 -0.1837
vn 0.7243 -0.4865 0.4885
vn 0.8529 0.4796 -0.2066
vn 0.8570 0.2089 0.4710
vn -0.3660 -0.5130 0.7765
vn -0.5618 0.1530 0.8130
vn 0.0121 0.4285 0.9034
vn -0.3655 -0.8063 -0.4651
vn 0.5954 -0.2481 -0.7642
vn 0.5331 0.2153 -0.8182
vn -0.3482 0.4021 -0.8468
vn -0.6915 -0.3136 -0.6507
vn -0.5831 0.7967 -0.1589
vn -0.8398 0.4021 0.3648
vn 0.6014 -0.3448 0.7207
vn 0.8778 0.0821 0.4720
vn 0.1510 -0.0714 0.9859
vn -0.6713 -0.3660 0.6445
vn -0.9472 -0.0048 -0.3207
vn -0.5888 -0.2600 -0.7653
vn -0.5141 0.1926 -0.8358
vn 0.3539 -0.0372 -0.9346
vn -0.0044 0.9992 -0.0391
vn -0.0043 0.9992 -0.0391
vn 0.5495 -0.0776 0.8319
vn -0.4945 -0.8596 -0.1288
vn 0.5553 0.3246 0.7657
vn -0.9637 -0.0033 0.2671
vn -0.9637 -0.0034 0.2671
vn -0.9636 -0.0034 0.2672
vn 0.7854 -0.3284 -0.5247
vn 0.7856 -0.3287 -0.5243
vn 0.7854 -0.3283 -0.5247
vn 0.7829 0.3170 -0.5353
vn 0.7830 0.3169 -0.5352
vn 0.7831 0.3168 -0.5351
vn -0.0051 -0.9816 0.1908
vn -0.0052 -0.9816 0.1910
vn -0.0052 -0.9815 0.1911
vn -0.0052 -0.9816 0.1911
usemtl cloud.002
s off
f 10/1/1 2/2/1 1/3/1
f 6/4/2 18/5/2 14/6/2
f 16/7/3 17/8/3 9/9/3
f 8/10/4 23/11/4 5/12/4
f 21/13/5 25/14/5 22/15/5
f 1/3/6 11/16/6 10/1/6
f 9/9/7 2/17/7 28/18/7
f 3/19/8 12/20/8 21/13/8
f 3/21/9 10/1/9 12/22/9
f 28/18/10 13/23/10 4/24/10
f 15/25/11 14/6/11 3/19/11
f 4/24/12 7/26/12 16/7/12
f 27/27/13 8/10/13 5/12/13
f 6/4/14 20/28/14 19/29/14
f 5/12/15 23/11/15 7/30/15
f 23/31/16 16/32/16 7/33/16
f 8/10/17 22/34/17 25/35/17
f 24/36/18 8/37/18 25/38/18
f 1/3/19 9/39/19 17/40/19
f 10/1/20 11/16/20 12/22/20
f 11/16/21 21/41/21 12/42/21
f 4/24/22 13/23/22 19/29/22
f 27/27/23 4/43/23 19/29/23
f 27/27/24 20/28/24 15/25/24
f 20/28/25 14/6/25 15/25/25
f 6/4/26 13/23/26 26/44/26
f 3/19/27 14/6/27 18/5/27
f 10/1/28 3/21/28 18/5/28
f 16/32/29 23/31/29 17/45/29
f 8/37/30 24/36/30 23/31/30
f 1/3/31 17/45/31 11/16/31
f 9/39/32 1/3/32 2/2/32
f 6/4/33 26/44/33 18/5/33
f 13/23/34 6/4/34 19/29/34
f 14/6/35 20/28/35 6/4/35
f 27/27/36 19/29/36 20/28/36
s 1
f 15/25/37 3/19/37 21/13/37
f 15/25/37 21/13/37 22/15/38
f 17/45/39 23/31/39 24/36/39
f 17/45/39 24/36/39 11/16/39
f 26/44/40 13/23/40 28/18/40
f 26/44/40 28/18/40 2/17/40
f 24/36/41 25/38/41 21/41/41
f 24/36/41 21/41/41 11/16/41
f 10/1/42 18/5/43 26/44/44
f 10/1/42 26/44/44 2/2/42
f 5/12/45 7/30/45 4/43/46
f 5/12/45 4/43/46 27/27/47
f 27/27/48 15/25/49 22/34/50
f 27/27/48 22/34/50 8/10/50
f 16/7/51 9/9/52 28/18/53
f 16/7/51 28/18/53 4/24/54
