# Blender v2.82 (sub 7) OBJ File: 'RaceTrack1.blend'
# www.blender.org
mtllib Wheel2.mtl
o FrontLeft_Car_Cube.002
v -0.100000 -0.000000 0.400000
v 0.100000 -0.000000 0.400000
v -0.100000 -0.078036 0.392314
v 0.100000 -0.078036 0.392314
v -0.100000 -0.153074 0.369551
v 0.100000 -0.153074 0.369551
v -0.100000 -0.222228 0.332587
v 0.100000 -0.222228 0.332587
v -0.100000 -0.282843 0.282842
v 0.100000 -0.282843 0.282842
v -0.100000 -0.332588 0.222228
v 0.100000 -0.332588 0.222228
v -0.100000 -0.369552 0.153073
v 0.100000 -0.369552 0.153073
v -0.100000 -0.392314 0.078036
v 0.100000 -0.392314 0.078036
v -0.100000 -0.400000 -0.000000
v 0.100000 -0.400000 -0.000000
v -0.100000 -0.392314 -0.078037
v 0.100000 -0.392314 -0.078037
v -0.100000 -0.369552 -0.153074
v 0.100000 -0.369552 -0.153074
v -0.100000 -0.332588 -0.222229
v 0.100000 -0.332588 -0.222229
v -0.100000 -0.282843 -0.282843
v 0.100000 -0.282843 -0.282843
v -0.100000 -0.222228 -0.332588
v 0.100000 -0.222228 -0.332588
v -0.100000 -0.153074 -0.369552
v 0.100000 -0.153074 -0.369552
v -0.100000 -0.078036 -0.392314
v 0.100000 -0.078036 -0.392314
v -0.100000 0.000000 -0.400000
v 0.142500 -0.158338 0.236969
v 0.142500 0.000000 -0.380000
v -0.100000 0.369551 -0.153074
v 0.142500 -0.315959 -0.211117
v 0.100000 0.332587 -0.222229
v 0.100000 0.332588 0.222228
v -0.100000 0.153073 -0.369552
v -0.100000 0.222227 -0.332588
v -0.100000 0.332587 -0.222229
v 0.100000 0.153073 -0.369552
v -0.142500 0.211117 0.315958
v 0.142500 -0.145420 0.351074
v 0.142500 0.211117 0.315958
v 0.142500 0.268700 -0.268701
v 0.142500 0.380000 -0.000001
v 0.142500 0.372698 -0.074135
v 0.142500 0.074134 0.372698
v 0.142500 -0.145420 -0.351075
v -0.142500 0.268700 0.268700
v 0.142500 -0.315959 0.211116
v 0.142500 0.351074 -0.145421
v -0.142500 0.211116 -0.315959
v 0.100000 0.282843 0.282842
v -0.100000 0.282843 0.282842
v -0.100000 0.153073 0.369551
v -0.100000 0.332588 0.222228
v 0.100000 0.392314 -0.078037
v 0.100000 0.400000 -0.000001
v -0.100000 0.400000 -0.000001
v 0.100000 0.282842 -0.282843
v 0.142500 0.372698 0.074134
v 0.100000 0.078035 -0.392315
v 0.142500 0.351074 0.145419
v -0.100000 0.392314 -0.078037
v 0.100000 0.369552 0.153073
v 0.100000 0.392314 0.078035
v 0.100000 0.000000 -0.400000
v -0.100000 0.282842 -0.282843
v 0.142500 0.236968 -0.158338
v 0.142500 -0.263306 -0.109065
v 0.142500 0.055601 0.279523
v 0.142500 -0.000000 0.285000
v 0.142500 -0.279524 -0.055601
v 0.128250 -0.000000 0.256500
v 0.142500 -0.109065 0.263305
v 0.142500 0.236969 0.158337
v 0.128250 0.050041 0.251571
v 0.142500 0.000000 -0.285000
v -0.142500 0.285000 -0.000001
v 0.142500 -0.055601 -0.279524
v 0.142500 0.201525 -0.201526
v 0.142500 -0.285000 -0.000000
v 0.142500 -0.055601 0.279523
v 0.142500 0.158337 0.236969
v 0.142500 0.201525 0.201525
v 0.142500 0.263305 0.109064
v 0.142500 -0.109065 -0.263306
v 0.142500 0.158337 -0.236969
v 0.142500 -0.201526 0.201525
v 0.142500 -0.211117 0.315958
v -0.142500 0.315958 -0.211117
v 0.100000 0.222227 -0.332588
v 0.142500 0.268700 0.268700
v 0.142500 0.211116 -0.315959
v 0.142500 -0.211117 -0.315959
v 0.142500 -0.372699 0.074134
v -0.100000 0.369552 0.153073
v -0.100000 0.392314 0.078035
v 0.100000 0.153073 0.369551
v 0.142500 0.145420 0.351074
v 0.142500 0.315958 -0.211117
v 0.142500 -0.268701 0.268700
v 0.142500 0.074133 -0.372699
v 0.100000 0.369551 -0.153074
v 0.142500 0.315958 0.211116
v 0.100000 0.222228 0.332587
v 0.142500 -0.279524 0.055600
v 0.142500 0.145419 -0.351075
v -0.128250 0.251571 0.050040
v -0.142500 0.279524 0.055600
v -0.142500 0.263306 0.109064
v -0.142500 0.236969 0.158337
v 0.100000 0.078036 0.392314
v -0.100000 0.078036 0.392314
v -0.100000 0.222228 0.332587
v -0.100000 0.078035 -0.392315
v -0.142500 0.000000 -0.380000
v -0.142500 0.074134 -0.372699
v -0.142500 0.351074 -0.145421
v -0.142500 0.236968 -0.158338
v -0.142500 0.263305 -0.109066
v -0.142500 -0.351074 -0.145420
v -0.142500 -0.315959 -0.211117
v -0.142500 -0.074134 0.372698
v -0.142500 -0.145420 0.351074
v 0.142500 -0.351074 -0.145420
v -0.142500 0.380000 -0.000001
v -0.142500 0.372698 0.074134
v 0.142500 -0.074135 0.372698
v -0.142500 -0.372699 -0.074135
v -0.142500 -0.000000 0.380000
v 0.142500 -0.372699 -0.074135
v -0.142500 0.372698 -0.074135
v 0.142500 -0.000000 0.380000
v -0.142500 -0.380000 -0.000000
v -0.142500 0.074134 0.372698
v 0.142500 -0.380000 -0.000000
v -0.142500 -0.372699 0.074134
v -0.142500 0.145420 0.351074
v -0.142500 -0.074135 -0.372699
v 0.142500 -0.074135 -0.372699
v -0.142500 -0.351074 0.145419
v 0.142500 -0.351074 0.145419
v -0.142500 0.268700 -0.268701
v -0.142500 -0.145420 -0.351075
v -0.142500 -0.315959 0.211116
v -0.142500 -0.211117 -0.315959
v -0.142500 -0.268701 0.268700
v -0.142500 0.315958 0.211116
v -0.142500 0.145419 -0.351075
v -0.142500 -0.268701 -0.268701
v -0.142500 -0.211117 0.315958
v 0.142500 -0.268701 -0.268701
v -0.142500 0.351074 0.145419
v -0.142500 -0.279524 -0.055601
v -0.142500 -0.263306 -0.109065
v -0.142500 -0.109065 0.263305
v -0.142500 -0.158338 0.236969
v -0.142500 0.201525 0.201525
v -0.142500 -0.055601 -0.279524
v -0.142500 0.000000 -0.285000
v -0.142500 0.201525 -0.201526
v -0.142500 -0.285000 -0.000000
v -0.142500 -0.055601 0.279523
v -0.142500 -0.109065 -0.263306
v -0.142500 0.158337 -0.236969
v -0.142500 -0.279524 0.055600
v -0.142500 -0.000000 0.285000
v -0.142500 -0.158338 -0.236969
v -0.142500 0.109064 -0.263306
v -0.142500 -0.263306 0.109064
v -0.142500 0.055601 0.279523
v -0.142500 -0.201526 -0.201526
v -0.142500 0.055600 -0.279524
v -0.142500 -0.236969 0.158337
v -0.142500 0.109065 0.263305
v -0.142500 0.279523 -0.055601
v -0.142500 -0.236969 -0.158338
v -0.142500 -0.201526 0.201525
v -0.142500 0.158337 0.236969
v -0.128250 -0.098159 -0.236975
v -0.128250 -0.050041 -0.251572
v 0.142500 0.263305 -0.109066
v 0.142500 0.279523 0.055600
v -0.128250 0.181372 -0.181374
v -0.128250 -0.142504 -0.213272
v -0.128250 -0.213272 -0.142504
v -0.128250 -0.236975 -0.098159
v -0.128250 -0.251572 0.050040
v 0.128250 0.256500 -0.000001
v 0.128250 0.251571 -0.050041
v -0.128250 -0.213272 0.142503
v -0.128250 -0.142504 0.213272
v -0.128250 0.050041 0.251571
v -0.128250 0.256500 -0.000001
v -0.128250 0.236975 -0.098159
v -0.128250 0.213271 -0.142504
v -0.128250 0.000000 -0.256500
v -0.128250 -0.181373 -0.181373
v -0.128250 -0.251572 -0.050041
v -0.128250 -0.256500 -0.000000
v -0.128250 -0.236975 0.098158
v -0.128250 -0.181373 0.181372
v -0.128250 -0.098158 0.236975
v -0.128250 -0.050041 0.251571
v -0.128250 -0.000000 0.256500
v -0.128250 0.098158 0.236975
v -0.128250 0.142504 0.213272
v -0.128250 0.181373 0.181372
v -0.128250 0.213272 0.142503
v -0.128250 0.236975 0.098158
v -0.128250 0.251571 -0.050041
v -0.128250 0.142503 -0.213273
v -0.128250 0.098158 -0.236976
v -0.128250 0.050040 -0.251572
v 0.142500 -0.158338 -0.236969
v 0.142500 0.109064 -0.263306
v 0.142500 -0.263306 0.109064
v 0.142500 0.285000 -0.000001
v 0.142500 -0.201526 -0.201526
v 0.142500 0.055600 -0.279524
v 0.142500 -0.236969 0.158337
v 0.142500 0.109065 0.263305
v 0.142500 0.279523 -0.055601
v 0.142500 -0.236969 -0.158338
v 0.128250 0.098158 0.236975
v 0.128250 0.251571 0.050040
v 0.128250 0.213271 -0.142504
v 0.128250 0.181372 -0.181374
v 0.128250 -0.098159 -0.236975
v 0.128250 0.098158 -0.236976
v 0.128250 -0.181373 -0.181373
v 0.128250 0.050040 -0.251572
v 0.128250 -0.251572 -0.050041
v 0.128250 -0.256500 -0.000000
v 0.128250 -0.213272 0.142503
v 0.128250 -0.142504 0.213272
v 0.128250 -0.098159 0.236975
v 0.128250 -0.050041 0.251571
v 0.128250 -0.050041 -0.251572
v 0.128250 0.000000 -0.256500
v 0.128250 0.142503 -0.213273
v 0.128250 0.236975 -0.098159
v 0.128250 0.236975 0.098158
v 0.128250 0.213272 0.142503
v 0.128250 0.181373 0.181372
v 0.128250 0.142504 0.213272
v 0.128250 -0.181373 0.181372
v 0.128250 -0.236975 0.098158
v 0.128250 -0.251572 0.050040
v 0.128250 -0.236975 -0.098159
v 0.128250 -0.213272 -0.142504
v 0.128250 -0.142504 -0.213272
vn -0.9764 -0.1797 -0.1200
vn -0.9764 -0.1996 -0.0827
vn -0.8944 -0.4132 -0.1711
vn -0.8944 -0.3718 -0.2485
vn -0.9764 -0.2119 -0.0422
vn -0.8944 -0.4386 -0.0872
vn 0.8293 0.0000 0.5589
vn 0.8293 -0.1090 0.5481
vn 0.9764 0.0422 -0.2119
vn 0.9764 -0.0000 -0.2161
vn 0.8293 -0.5481 0.1090
vn 0.8293 -0.5589 0.0000
vn 0.9764 0.2161 -0.0000
vn 0.9764 0.2119 -0.0422
vn 0.8293 0.3105 -0.4647
vn 0.8293 0.3952 -0.3952
vn 0.9764 -0.1528 0.1528
vn 0.9764 -0.1200 0.1797
vn 0.8293 -0.2139 -0.5163
vn 0.8293 -0.1090 -0.5481
vn 0.9764 0.0422 0.2119
vn 0.9764 0.0827 0.1996
vn 0.8293 0.5163 0.2139
vn 0.8293 0.4647 0.3105
vn 0.9764 -0.1797 -0.1200
vn 0.9764 -0.1996 -0.0827
vn 0.8293 -0.2139 0.5163
vn 0.9764 0.0827 -0.1996
vn 0.8293 -0.5481 -0.1090
vn 0.9764 0.2119 0.0422
vn -0.2153 0.5425 0.8120
vn -0.2153 0.6905 0.6905
vn -0.8293 0.3952 0.3952
vn -0.8293 0.3105 0.4647
vn 0.8293 0.5481 -0.1090
vn 0.8293 0.5589 -0.0000
vn 0.9764 -0.2161 0.0000
vn 0.9764 -0.2119 0.0422
vn 0.8293 0.2139 0.5163
vn 0.8293 0.1090 0.5481
vn 0.9764 -0.0422 -0.2119
vn 0.9764 -0.0827 -0.1996
vn 0.8293 -0.4647 0.3105
vn 0.8293 -0.5163 0.2139
vn 0.9764 0.1996 -0.0827
vn 0.9764 0.1797 -0.1200
vn 0.8293 0.1090 -0.5481
vn 0.8293 0.2139 -0.5163
vn 0.9764 -0.0827 0.1996
vn 0.9764 -0.0422 0.2119
vn 0.8293 -0.3952 -0.3952
vn 0.8293 -0.3105 -0.4647
vn 0.9764 0.1200 0.1797
vn 0.9764 0.1528 0.1528
vn 0.8293 0.5481 0.1090
vn 0.9764 -0.2119 -0.0422
vn 0.8293 -0.4647 -0.3105
vn 0.9764 0.1797 0.1200
vn 0.2153 -0.1905 -0.9578
vn 0.2153 -0.0000 -0.9765
vn 0.8293 -0.0000 -0.5588
vn 0.2153 0.8120 -0.5425
vn 0.2153 0.9022 -0.3737
vn 0.8293 0.5163 -0.2139
vn 0.8293 0.4647 -0.3105
vn -0.2153 0.9022 0.3737
vn 0.2153 0.9022 0.3737
vn 0.2153 0.9578 0.1905
vn -0.2153 0.9578 0.1905
vn 0.2153 0.5425 0.8120
vn 0.2153 0.6905 0.6905
vn -0.2153 0.9765 -0.0000
vn 0.2153 0.9765 -0.0000
vn 0.2153 0.9578 -0.1905
vn -0.2153 0.9578 -0.1905
vn -0.2153 0.6905 -0.6905
vn 0.2153 0.6905 -0.6905
vn 0.2153 0.5425 -0.8120
vn -0.2153 0.5425 -0.8120
vn 0.2153 0.1905 -0.9578
vn 0.2153 0.1905 0.9578
vn 0.2153 0.0000 0.9765
vn -0.2153 0.9022 -0.3737
vn -0.8293 0.5163 -0.2139
vn -0.8293 0.5481 -0.1090
vn -0.2153 0.3737 -0.9022
vn 0.2153 0.3737 -0.9022
vn -0.2153 0.1905 -0.9578
vn -0.2153 0.1905 0.9578
vn 0.2153 0.3737 0.9022
vn -0.2153 0.3737 0.9022
vn -0.2153 0.8120 0.5425
vn 0.2153 0.8120 0.5425
vn -0.8293 0.5163 0.2139
vn -0.8293 0.4647 0.3105
vn 0.8293 0.3952 0.3952
vn 0.9764 -0.1797 0.1200
vn 0.9764 -0.0000 0.2161
vn 0.9764 -0.1528 -0.1528
vn 0.8293 -0.3105 0.4647
vn 0.9764 0.1200 -0.1797
vn 0.8293 -0.5163 -0.2139
vn 0.9764 0.1996 0.0827
vn 0.9764 -0.1996 0.0827
vn -0.8293 0.2139 -0.5163
vn -0.8293 0.3105 -0.4647
vn 0.8293 0.3105 0.4647
vn 0.9764 -0.1200 -0.1797
vn -0.8293 0.5481 0.1090
vn -0.8293 0.5589 -0.0000
vn -0.9764 -0.2161 0.0000
vn 0.8944 -0.0000 -0.4472
vn 0.8944 -0.0872 -0.4386
vn -0.2153 0.8120 -0.5425
vn -0.8293 0.3952 -0.3952
vn -0.8293 0.4647 -0.3105
vn -0.2153 -0.0000 -0.9765
vn 0.8293 -0.3952 0.3952
vn 0.9764 0.1528 -0.1528
vn -0.8293 0.1090 -0.5481
vn -0.2153 -0.1905 -0.9578
vn 0.2153 -0.3737 -0.9022
vn -0.2153 -0.3737 -0.9022
vn 0.2153 -0.5425 -0.8120
vn -0.2153 -0.5425 -0.8120
vn 0.2153 -0.6905 -0.6905
vn -0.2153 -0.6905 -0.6905
vn 0.2153 -0.8120 -0.5425
vn -0.2153 -0.8120 -0.5425
vn 0.2153 -0.9022 -0.3737
vn -0.2153 -0.9022 -0.3737
vn 0.2153 -0.9578 -0.1905
vn -0.2153 -0.9578 -0.1905
vn 0.2153 -0.9765 0.0000
vn -0.2153 -0.9765 0.0000
vn 0.2153 -0.9578 0.1905
vn -0.2153 -0.9578 0.1905
vn 0.2153 -0.9022 0.3737
vn -0.2153 -0.9022 0.3737
vn 0.2153 -0.8120 0.5425
vn -0.2153 -0.8120 0.5425
vn 0.2153 -0.6905 0.6905
vn -0.2153 -0.6905 0.6905
vn 0.2153 -0.5425 0.8120
vn -0.2153 -0.5425 0.8120
vn 0.2153 -0.3737 0.9022
vn -0.2153 -0.3737 0.9022
vn 0.2153 -0.1905 0.9578
vn -0.2153 -0.1905 0.9578
vn -0.2153 -0.0000 0.9765
vn -0.8293 -0.0000 -0.5589
vn -0.9764 -0.1797 0.1200
vn -0.9764 -0.1996 0.0827
vn -0.8293 -0.5163 -0.2139
vn -0.8293 -0.4647 -0.3105
vn -0.8293 -0.1090 0.5481
vn -0.8293 -0.2139 0.5163
vn -0.8293 -0.5481 -0.1090
vn -0.8293 -0.0000 0.5589
vn -0.8293 -0.5589 0.0000
vn -0.8293 0.1090 0.5481
vn -0.8293 -0.5481 0.1090
vn -0.8293 0.2139 0.5163
vn -0.8293 -0.1090 -0.5481
vn -0.8293 -0.5163 0.2139
vn -0.8293 -0.2139 -0.5163
vn -0.8293 -0.4647 0.3105
vn -0.8293 -0.3105 -0.4647
vn -0.8293 -0.3952 0.3952
vn -0.8293 -0.3952 -0.3952
vn -0.8293 -0.3105 0.4647
vn -0.9764 0.2119 0.0422
vn -0.9764 0.1996 0.0827
vn -0.9764 0.0827 -0.1996
vn -0.9764 0.1200 -0.1796
vn -0.9764 -0.1528 -0.1528
vn -0.9764 0.0422 0.2119
vn -0.9764 -0.0000 0.2161
vn -0.9764 -0.1528 0.1528
vn -0.9764 0.2161 -0.0000
vn -0.9764 0.0422 -0.2119
vn -0.9764 0.0827 0.1996
vn -0.9764 -0.1200 0.1797
vn -0.9764 0.2119 -0.0422
vn -0.9764 -0.0000 -0.2161
vn -0.9764 0.1200 0.1797
vn -0.9764 -0.0827 0.1996
vn -0.9764 0.1996 -0.0827
vn -0.9764 -0.0422 -0.2119
vn -0.9764 0.1528 0.1528
vn -0.9764 -0.0422 0.2119
vn -0.9764 0.1797 -0.1200
vn -0.9764 -0.0827 -0.1996
vn -0.9764 -0.2119 0.0422
vn -0.9764 0.1797 0.1200
vn -0.9764 0.1528 -0.1528
vn -0.9764 -0.1200 -0.1797
vn -0.8944 0.1711 0.4132
vn -0.8944 0.0872 0.4386
vn -0.8944 -0.2485 0.3719
vn -0.8944 -0.3162 0.3162
vn -0.8944 0.2485 0.3718
vn -0.8944 -0.1711 0.4132
vn -0.8944 0.3162 0.3162
vn -0.8944 -0.0872 0.4386
vn -0.8944 0.3718 0.2485
vn -0.8944 -0.0000 0.4472
vn -0.8944 0.4132 0.1711
vn -0.8944 0.4386 0.0872
vn -0.8944 0.4472 -0.0000
vn -0.8944 0.4386 -0.0872
vn 0.8944 -0.4386 -0.0872
vn 0.8944 -0.4472 0.0000
vn -0.8944 0.4132 -0.1711
vn 0.8944 -0.4386 0.0872
vn -0.8944 0.3718 -0.2485
vn 0.8944 -0.4132 0.1711
vn -0.8944 0.3162 -0.3162
vn -0.8944 0.2485 -0.3718
vn -0.8944 0.1711 -0.4132
vn -0.8944 0.0872 -0.4386
vn -0.8944 -0.0000 -0.4472
vn -0.8944 -0.0872 -0.4386
vn -0.8944 -0.1711 -0.4132
vn -0.8944 -0.2485 -0.3718
vn -0.8944 -0.3162 -0.3162
vn -0.8944 -0.4472 0.0000
vn -0.8944 -0.4386 0.0872
vn -0.8944 -0.4132 0.1711
vn -0.8944 -0.3718 0.2485
vn 0.8944 -0.1711 -0.4132
vn 0.8944 -0.2485 -0.3718
vn 0.8944 -0.3162 -0.3162
vn 0.8944 -0.3718 -0.2485
vn 0.8944 -0.4132 -0.1711
vn 0.8944 -0.3718 0.2485
vn 0.8944 -0.0000 0.4472
vn 0.8944 0.0872 0.4386
vn 0.8944 -0.3162 0.3162
vn 0.8944 0.1711 0.4132
vn 0.8944 -0.2485 0.3719
vn 0.8944 0.2485 0.3718
vn 0.8944 -0.1711 0.4132
vn 0.8944 0.3162 0.3162
vn 0.8944 -0.0872 0.4386
vn 0.8944 0.3718 0.2485
vn 0.8944 0.4132 0.1711
vn 0.8944 0.4386 0.0872
vn 0.8944 0.4472 -0.0000
vn 0.8944 0.4386 -0.0872
vn 0.8944 0.4132 -0.1711
vn 0.8944 0.3718 -0.2485
vn 0.8944 0.3162 -0.3162
vn 0.8944 0.2485 -0.3718
vn 0.8944 0.1711 -0.4132
vn 0.8944 0.0872 -0.4386
vn -1.0000 -0.0000 0.0000
vn 1.0000 -0.0000 0.0000
usemtl Tires.002
s 1
f 115//1 114//2 214//3 213//4
f 114//2 113//5 112//6 214//3
f 137//7 132//8 86//9 75//10
f 99//11 140//12 85//13 110//14
f 97//15 47//16 84//17 91//18
f 51//19 144//20 83//21 90//22
f 66//23 108//24 79//25 89//26
f 132//8 45//27 78//28 86//9
f 140//12 135//29 76//30 85//13
f 118//31 57//32 52//33 44//34
f 49//35 48//36 222//37 227//38
f 103//39 50//40 74//41 226//42
f 53//43 146//44 221//45 225//46
f 50//40 137//7 75//10 74//41
f 146//44 99//11 110//14 221//45
f 106//47 111//48 220//49 224//50
f 111//48 97//15 91//18 220//49
f 156//51 98//52 219//53 223//54
f 48//36 64//55 187//56 222//37
f 98//52 51//19 90//22 219//53
f 37//57 156//51 223//54 228//58
f 32//59 70//60 35//61 144//20
f 38//62 107//63 54//64 104//65
f 100//66 68//67 69//68 101//69
f 118//31 109//70 56//71 57//32
f 62//72 61//73 60//74 67//75
f 71//76 63//77 95//78 41//79
f 70//60 65//80 106//47 35//61
f 107//63 60//74 49//35 54//64
f 116//81 2//82 137//7 50//40
f 67//75 36//83 122//84 136//85
f 69//68 68//67 66//23 64//55
f 40//86 43//87 65//80 119//88
f 41//79 95//78 43//87 40//86
f 117//89 116//81 102//90 58//91
f 101//69 69//68 61//73 62//72
f 58//91 102//90 109//70 118//31
f 59//92 39//93 68//67 100//66
f 59//92 100//66 157//94 152//95
f 43//87 95//78 97//15 111//48
f 39//93 56//71 96//96 108//24
f 47//16 104//65 72//97 84//17
f 144//20 35//61 81//98 83//21
f 108//24 96//96 88//99 79//25
f 45//27 93//100 34//101 78//28
f 135//29 129//102 73//103 76//30
f 104//65 54//64 186//104 72//97
f 41//79 40//86 153//105 55//106
f 96//96 46//107 87//108 88//99
f 57//32 59//92 152//95 52//33
f 131//109 130//110 82//111 113//5
f 74//41 75//10 77//112 80//113
f 100//66 101//69 131//109 157//94
f 65//80 43//87 111//48 106//47
f 42//114 71//76 147//115 94//116
f 119//88 65//80 70//60 33//117
f 36//83 42//114 94//116 122//84
f 102//90 116//81 50//40 103//39
f 61//73 69//68 64//55 48//36
f 62//72 67//75 136//85 130//110
f 60//74 61//73 48//36 49//35
f 93//100 105//118 92//119 34//101
f 67//75 60//74 107//63 36//83
f 36//83 107//63 38//62 42//114
f 68//67 39//93 108//24 66//23
f 42//114 38//62 63//77 71//76
f 57//32 56//71 39//93 59//92
f 109//70 102//90 103//39 46//107
f 95//78 63//77 47//16 97//15
f 56//71 109//70 46//107 96//96
f 40//86 119//88 121//120 153//105
f 101//69 62//72 130//110 131//109
f 64//55 66//23 89//26 187//56
f 63//77 38//62 104//65 47//16
f 71//76 41//79 55//106 147//115
f 33//117 70//60 32//59 31//121
f 31//121 32//59 30//122 29//123
f 29//123 30//122 28//124 27//125
f 27//125 28//124 26//126 25//127
f 25//127 26//126 24//128 23//129
f 23//129 24//128 22//130 21//131
f 21//131 22//130 20//132 19//133
f 19//133 20//132 18//134 17//135
f 17//135 18//134 16//136 15//137
f 15//137 16//136 14//138 13//139
f 13//139 14//138 12//140 11//141
f 11//141 12//140 10//142 9//143
f 9//143 10//142 8//144 7//145
f 7//145 8//144 6//146 5//147
f 5//147 6//146 4//148 3//149
f 3//149 4//148 2//82 1//150
f 1//150 2//82 116//81 117//89
f 119//88 33//117 120//151 121//120
f 122//84 94//116 123//152 124//153
f 23//129 21//131 125//154 126//155
f 5//147 3//149 127//156 128//157
f 22//130 24//128 37//57 129//102
f 4//148 6//146 45//27 132//8
f 21//131 19//133 133//158 125//154
f 3//149 1//150 134//159 127//156
f 20//132 22//130 129//102 135//29
f 2//82 4//148 132//8 137//7
f 19//133 17//135 138//160 133//158
f 1//150 117//89 139//161 134//159
f 18//134 20//132 135//29 140//12
f 17//135 15//137 141//162 138//160
f 117//89 58//91 142//163 139//161
f 16//136 18//134 140//12 99//11
f 33//117 31//121 143//164 120//151
f 15//137 13//139 145//165 141//162
f 58//91 118//31 44//34 142//163
f 14//138 16//136 99//11 146//44
f 31//121 29//123 148//166 143//164
f 13//139 11//141 149//167 145//165
f 30//122 32//59 144//20 51//19
f 12//140 14//138 146//44 53//43
f 29//123 27//125 150//168 148//166
f 11//141 9//143 151//169 149//167
f 28//124 30//122 51//19 98//52
f 10//142 12//140 53//43 105//118
f 27//125 25//127 154//170 150//168
f 9//143 7//145 155//171 151//169
f 26//126 28//124 98//52 156//51
f 8//144 10//142 105//118 93//100
f 25//127 23//129 126//155 154//170
f 7//145 5//147 128//157 155//171
f 24//128 26//126 156//51 37//57
f 6//146 8//144 93//100 45//27
f 125//154 133//158 158//172 159//173
f 155//171 128//157 160//174 161//175
f 52//33 152//95 115//1 162//176
f 120//151 143//164 163//177 164//178
f 94//116 147//115 165//179 123//152
f 133//158 138//160 166//180 158//172
f 128//157 127//156 167//181 160//174
f 152//95 157//94 114//2 115//1
f 143//164 148//166 168//182 163//177
f 147//115 55//106 169//183 165//179
f 138//160 141//162 170//184 166//180
f 127//156 134//159 171//185 167//181
f 157//94 131//109 113//5 114//2
f 148//166 150//168 172//186 168//182
f 55//106 153//105 173//187 169//183
f 141//162 145//165 174//188 170//184
f 134//159 139//161 175//189 171//185
f 150//168 154//170 176//190 172//186
f 153//105 121//120 177//191 173//187
f 145//165 149//167 178//192 174//188
f 139//161 142//163 179//193 175//189
f 130//110 136//85 180//194 82//111
f 154//170 126//155 181//195 176//190
f 121//120 120//151 164//178 177//191
f 149//167 151//169 182//196 178//192
f 142//163 44//34 183//197 179//193
f 136//85 122//84 124//153 180//194
f 126//155 125//154 159//173 181//195
f 151//169 155//171 161//175 182//196
f 44//34 52//33 162//176 183//197
f 163//177 168//182 184//198 185//199
f 165//179 169//183 216//200 188//201
f 168//182 172//186 189//202 184//198
f 169//183 173//187 217//203 216//200
f 172//186 176//190 202//204 189//202
f 173//187 177//191 218//205 217//203
f 176//190 181//195 190//206 202//204
f 177//191 164//178 201//207 218//205
f 181//195 159//173 191//208 190//206
f 159//173 158//172 203//209 191//208
f 158//172 166//180 204//210 203//209
f 166//180 170//184 192//211 204//210
f 222//37 187//56 230//212 193//213
f 170//184 174//188 205//214 192//211
f 227//38 222//37 193//213 194//215
f 174//188 178//192 195//216 205//214
f 186//104 227//38 194//215 246//217
f 178//192 182//196 206//218 195//216
f 182//196 161//175 196//219 206//218
f 161//175 160//174 207//220 196//219
f 160//174 167//181 208//221 207//220
f 167//181 171//185 209//222 208//221
f 171//185 175//189 197//223 209//222
f 175//189 179//193 210//224 197//223
f 179//193 183//197 211//225 210//224
f 183//197 162//176 212//226 211//225
f 162//176 115//1 213//4 212//226
f 113//5 82//111 198//227 112//6
f 82//111 180//194 215//228 198//227
f 180//194 124//153 199//229 215//228
f 124//153 123//152 200//230 199//229
f 164//178 163//177 185//199 201//207
f 123//152 165//179 188//201 200//230
f 35//61 106//47 224//50 81//98
f 105//118 53//43 225//46 92//119
f 46//107 103//39 226//42 87//108
f 54//64 49//35 227//38 186//104
f 129//102 37//57 228//58 73//103
f 226//42 74//41 80//113 229//231
f 87//108 226//42 229//231 250//232
f 88//99 87//108 250//232 249//233
f 79//25 88//99 249//233 248//234
f 89//26 79//25 248//234 247//235
f 187//56 89//26 247//235 230//212
f 72//97 186//104 246//217 231//236
f 83//21 81//98 244//237 243//238
f 84//17 72//97 231//236 232//239
f 90//22 83//21 243//238 233//240
f 91//18 84//17 232//239 245//241
f 219//53 90//22 233//240 256//242
f 220//49 91//18 245//241 234//243
f 223//54 219//53 256//242 235//244
f 224//50 220//49 234//243 236//245
f 228//58 223//54 235//244 255//246
f 81//98 224//50 236//245 244//237
f 73//103 228//58 255//246 254//247
f 76//30 73//103 254//247 237//248
f 85//13 76//30 237//248 238//249
f 110//14 85//13 238//249 253//250
f 221//45 110//14 253//250 252//251
f 225//46 221//45 252//251 239//252
f 92//119 225//46 239//252 251//253
f 34//101 92//119 251//253 240//254
f 78//28 34//101 240//254 241//255
f 86//9 78//28 241//255 242//256
f 75//10 86//9 242//256 77//112
usemtl Wheels.002
s off
f 201//257 185//257 184//257 189//257 202//257 190//257 191//257 203//257 204//257 192//257 205//257 195//257 206//257 196//257 207//257 208//257 209//257 197//257 210//257 211//257 212//257 213//257 214//257 112//257 198//257 215//257 199//257 200//257 188//257 216//257 217//257 218//257
f 243//258 244//258 236//258 234//258 245//258 232//258 231//258 246//258 194//258 193//258 230//258 247//258 248//258 249//258 250//258 229//258 80//258 77//258 242//258 241//258 240//258 251//258 239//258 252//258 253//258 238//258 237//258 254//258 255//258 235//258 256//258 233//258
