# Blender v2.82 (sub 7) OBJ File: 'RaceTrack1.blend'
# www.blender.org
mtllib CarBody2.mtl
o CarBody_Car_Cube.003
v 0.007443 1.064997 -2.124808
v 0.491660 1.049997 -2.124808
v 0.975877 0.999997 -2.124808
v 1.007443 0.974997 -2.111530
v 0.007443 0.976237 -2.122556
v -0.670682 1.524997 -0.499808
v -0.961307 0.999997 -0.374808
v -0.946775 1.025622 -0.334777
v -0.685213 1.498122 -0.447277
v -0.476932 1.049997 -1.612308
v -0.961307 0.999997 -1.537308
v -0.912869 1.014147 -1.528589
v -0.452713 1.061647 -1.603589
v 0.685568 1.499997 -1.188558
v 0.976193 0.999997 -1.537308
v 0.927756 1.014147 -1.528589
v 0.651662 1.489147 -1.197277
v 0.685568 1.524997 -0.499808
v 0.976193 0.999997 -0.374808
v 0.961662 1.025622 -0.427339
v 0.700100 1.498122 -0.539839
v -0.992557 0.924997 2.025192
v -0.992557 0.662497 2.125192
v -0.962295 0.949997 2.075192
v -0.961307 0.999997 0.787692
v -0.992557 0.974997 -0.374808
v 0.685568 1.499997 0.188942
v 0.976193 0.999997 0.787692
v 0.961662 1.025622 0.711473
v 0.700100 1.475622 0.172598
v -0.685213 1.498122 -0.539839
v -0.946775 1.025622 -0.427339
v 0.007443 1.064997 -1.637308
v 0.007443 1.075897 -1.628589
v 1.007443 0.974997 -0.959183
v 1.007443 0.974997 -0.374808
v 1.007443 0.662497 -0.374808
v 1.007443 0.762497 -1.021996
v 1.007443 0.937497 1.425192
v 1.007443 0.924997 2.025192
v 1.007443 0.662497 2.125192
v 1.007443 0.762497 1.491989
v -0.992557 0.946872 0.975192
v -0.992557 0.974997 -0.374808
v -0.992557 0.662497 -0.374808
v -0.992557 0.762497 1.081832
v -0.992557 0.974997 -1.587308
v -0.992557 0.974997 -2.111530
v -0.992557 0.662497 -2.174808
v -0.992557 0.762497 -1.524496
v -0.953354 0.679826 2.102824
v -0.927631 0.924201 2.060324
v 0.977347 0.949997 2.075192
v -0.492557 0.662495 2.225192
v -0.528354 0.679825 2.187824
v -0.892557 0.662497 -2.174808
v -0.992557 0.610414 -2.174808
v 1.007443 0.610414 -0.374808
v 1.007443 0.452080 -0.374808
v 1.007443 0.452080 -0.859183
v 1.007443 0.762497 1.081832
v 1.007443 0.452080 0.876754
v -0.477426 0.999997 2.125192
v -0.515493 0.931701 2.102824
v 0.492395 0.999997 2.125192
v 0.530460 0.931701 2.102824
v 0.942668 0.924201 2.060324
v 0.507443 0.662495 2.225192
v 0.968251 0.679826 2.102824
v 0.543251 0.679825 2.187824
v 1.007443 0.974997 -1.587308
v 1.007443 0.946872 0.975192
v -0.960193 0.999997 -2.124808
v -0.670682 1.499997 0.188942
v -0.685213 1.475622 0.172598
v -0.946775 1.025622 0.711473
v -0.670682 1.499997 -1.188558
v -0.946775 1.025622 -1.473589
v -0.685213 1.475622 -1.159714
v -0.946775 1.025622 -1.015855
v -0.946775 1.025622 -1.212027
v 0.700100 1.498122 -0.447277
v 0.961662 1.025622 -0.334777
v 0.700100 1.475622 -1.159714
v 0.961662 1.025622 -1.473589
v 1.007443 0.610414 -2.174808
v 0.907443 0.662497 -2.174808
v 1.007443 0.662497 -2.174808
v -0.992557 0.610414 -0.374808
v -0.992557 0.452080 -0.374808
v -0.992557 0.452080 0.876754
v -0.992557 0.937497 1.425192
v -0.992557 0.762497 1.491989
v -0.992557 0.974997 -0.959183
v -0.992557 0.762497 -1.021996
v 1.007443 0.762497 -1.524496
v -0.685213 1.481247 -1.004745
v -0.685213 1.485466 -0.888519
v 0.491818 1.049997 -1.612308
v 0.467600 1.061647 -1.603589
v -0.636775 1.489147 -1.197277
v -0.476375 1.049997 -2.124808
v 0.007443 0.662497 -2.174808
v -0.992557 0.452080 -0.859183
v 1.007443 0.452080 -1.687308
v 1.007443 0.452080 -2.174808
v -0.992557 0.452080 -2.174808
v -0.992557 0.452080 -1.687308
v 0.491818 1.049997 0.837692
v 0.346506 1.574997 -0.499808
v 0.346506 1.549997 -1.263558
v 0.007443 1.564997 -1.288558
v 0.007443 1.589997 -0.499808
v 0.007443 1.564997 0.238942
v -0.331619 1.549997 0.238942
v -0.314666 1.536497 0.253911
v 0.007443 1.551497 0.253911
v -0.636775 1.488997 0.203911
v -0.476932 1.049997 0.837692
v 0.007443 0.999997 2.140192
v 0.007443 1.064997 0.837692
v -0.331619 1.574997 -0.499808
v 0.346506 1.549997 0.238942
v 0.329553 1.536497 0.253911
v 0.651662 1.488997 0.203911
v 0.927756 1.013997 0.772723
v 0.329553 1.536647 -1.272277
v 0.007443 1.550897 -1.297277
v -0.912869 1.013997 0.772723
v 0.467600 1.061497 0.822723
v 0.007443 1.076497 0.822723
v -0.452713 1.061497 0.822723
v -0.331619 1.549997 -1.263558
v -0.314666 1.536647 -1.272277
v 0.007443 0.999997 2.140192
v 0.007443 0.662494 2.240192
v 0.507443 0.662495 2.225192
v 0.492395 0.999997 2.125192
v -0.477426 0.999997 2.125192
v -0.492557 0.662495 2.225192
v -0.946775 1.025622 -0.427339
v -0.946775 1.025622 -1.015855
v -0.945468 1.027928 0.704613
v -0.945468 1.027928 -0.331174
v 0.957117 1.033636 -0.322257
v 0.957117 1.033636 0.687636
v -0.946775 1.025622 -1.212027
v -0.946775 1.025622 -1.473589
v -0.945468 1.027928 -0.432067
v -0.945468 1.027928 -1.467854
v 0.957117 1.033636 -1.453661
v 0.957117 1.033636 -0.443769
v -0.604564 1.478839 -1.205559
v -0.866854 1.027589 -1.520307
v 0.881740 1.027589 -1.520307
v 0.619451 1.478839 -1.205559
v -0.429705 1.072714 -1.595307
v 0.444592 1.072714 -1.595307
v 0.007443 1.086252 -1.620306
v -0.298561 1.523822 0.267131
v 0.007443 1.538072 0.267131
v 0.444592 1.072572 0.807503
v 0.007443 1.086822 0.807503
v 0.881740 1.027447 0.760003
v -0.429705 1.072572 0.807503
v -0.866854 1.027447 0.760003
v 0.007443 1.537502 -1.305560
v -0.298561 1.523964 -1.280560
v 0.313447 1.523964 -1.280560
v -0.604564 1.478697 0.219631
v 0.313447 1.523822 0.267131
v 0.619451 1.478697 0.219631
v -0.686521 1.495703 -0.442549
v -0.685213 1.475622 -1.159714
v -0.685213 1.498122 -0.539839
v -0.685213 1.481247 -1.004745
v -0.686521 1.495703 -0.543442
v -0.686521 1.473428 -1.157118
v -0.686521 1.473428 0.171127
v 0.704644 1.489717 -0.430848
v 0.704644 1.467999 -1.150693
v 0.704644 1.489717 -0.552359
v 0.704644 1.467999 0.167487
v -0.685213 1.485466 -0.888519
v -0.686521 1.483173 -0.888635
v -1.042557 0.427080 0.876754
v -1.042557 0.737497 1.081832
v -1.042557 0.737497 1.491989
v 1.057443 0.427080 -0.859183
v 1.057443 0.737497 -1.021996
v 1.057443 0.737497 -1.524496
v 1.057443 0.427080 -1.687308
v 1.057443 0.737497 1.081832
v 1.057443 0.427080 0.876754
v 1.057443 0.737497 1.491989
v -1.042557 0.450362 0.938278
v -1.042557 0.714216 1.112594
v -1.042557 0.714216 1.461227
v -0.967557 0.299997 0.876754
v 1.057443 0.714216 1.112594
v 1.057443 0.450362 0.938278
v 1.057443 0.714216 1.461227
v 0.982443 0.299997 0.876754
v 1.057443 0.721970 -1.486808
v 1.057443 0.442607 -1.625199
v 1.057443 0.442607 -0.921292
v 1.057443 0.721970 -1.059683
v 0.982443 0.299997 -1.687308
v 0.982443 0.299997 -0.859183
v -1.042557 0.427080 -0.859183
v -1.042557 0.450362 -0.921292
v -0.967557 0.299997 -0.859183
v -0.967557 0.299997 -2.174808
v -0.967557 0.299997 -1.687308
v 1.007443 0.452080 1.697067
v 1.007443 0.402080 2.125192
v 0.982443 0.299997 2.125192
v 0.982443 0.299997 1.697067
v 0.982443 0.299997 -0.374808
v -0.967557 0.299997 -0.374808
v 0.007443 0.662494 2.240192
v 0.007443 0.646869 2.375192
v 0.457460 0.646870 2.360192
v 0.952443 0.356765 -2.274808
v 0.982443 0.299997 -2.174808
v -0.937557 0.356765 -2.274808
v 0.007443 0.356765 -2.274808
v 0.007443 0.299997 -2.174808
v -0.870057 0.299997 -2.174808
v 0.907476 0.646872 2.260192
v 0.007443 0.299997 2.225192
v 0.494943 0.299997 2.225192
v 0.457460 0.365622 2.360192
v 0.007443 0.365622 2.375192
v 0.884943 0.299997 -2.174808
v -0.967557 0.299997 2.125192
v -0.480057 0.299997 2.225192
v -0.442573 0.365622 2.360192
v -0.892590 0.365622 2.260192
v 0.907476 0.412497 2.275192
v 0.457460 0.412496 2.375192
v 0.907476 0.365622 2.260192
v 0.007443 0.412495 2.390192
v -0.442573 0.412496 2.375192
v -0.892590 0.412497 2.275192
v 1.007443 0.610414 2.125192
v 0.907476 0.599997 2.275192
v -0.892590 0.646872 2.260192
v -0.442573 0.646870 2.360192
v -0.992557 0.402080 2.125192
v -0.992557 0.610414 2.125192
v -0.892590 0.599997 2.275192
v -0.442573 0.599995 2.375192
v 0.007443 0.599993 2.390192
v 0.457460 0.599995 2.375192
v -0.937557 0.630622 -2.274808
v 0.952443 0.630622 -2.274808
v 0.007443 0.630622 -2.274808
v -0.992557 0.452080 1.697067
v -0.967557 0.299997 1.697067
v -1.042557 0.737497 -1.021996
v -1.042557 0.737497 -1.524496
v 1.057443 0.427080 1.697067
v -1.042557 0.427080 1.697067
v -1.042557 0.427080 -1.687308
v -1.042557 0.450362 1.635544
v 1.057443 0.450362 1.635543
v -1.042557 0.450362 -1.625199
v -1.042557 0.714216 -1.486808
v -1.042557 0.714216 -1.059683
v 0.787443 0.299997 -1.687308
v -0.772557 0.299997 -1.687308
v 0.007443 0.299997 -1.687308
v -0.480057 0.299997 0.975192
v -0.480057 0.299997 -0.374808
v 0.007443 0.299997 -0.374808
v 0.007443 0.299997 0.975192
v 0.494943 0.299997 0.975192
v 0.494943 0.299997 -0.374808
v -0.480057 0.299997 1.575192
v 0.007443 0.299997 1.575192
v 0.494943 0.299997 1.575192
v -0.699432 0.299997 -0.859183
v 0.007443 0.299997 -0.859183
v 0.714318 0.299997 -0.859183
vn 0.0009 -0.1174 -0.9931
vn -0.8742 0.4855 0.0066
vn -0.1696 0.8333 -0.5262
vn 0.0233 0.5810 -0.8136
vn 0.8755 0.4831 -0.0065
vn -0.8784 0.1701 0.4466
vn -0.7707 0.6371 0.0129
vn 0.8609 0.5087 0.0069
vn -0.8755 0.4831 -0.0065
vn -0.0602 0.6503 -0.7573
vn 1.0000 0.0000 0.0000
vn -1.0000 -0.0000 0.0000
vn 0.4572 0.1054 0.8831
vn 0.8795 0.1694 0.4447
vn -0.0990 0.8631 0.4952
vn 0.0000 0.0000 -1.0000
vn -0.7057 0.2425 0.6657
vn 0.0723 -0.3648 0.9283
vn 0.0990 0.8631 0.4952
vn -0.0723 -0.3647 0.9283
vn -0.4572 0.1057 0.8830
vn 0.7056 0.2423 0.6659
vn 0.6247 0.7809 0.0000
vn 0.6209 0.7839 -0.0003
vn 0.7711 0.6365 0.0129
vn -0.6225 0.7826 -0.0002
vn -0.8641 0.5029 0.0183
vn -0.8610 0.5086 0.0069
vn -0.8699 0.4933 0.0000
vn -0.8625 0.5061 -0.0068
vn 0.8641 0.5029 0.0183
vn 0.8742 0.4855 0.0065
vn 0.8699 0.4933 0.0000
vn 0.8625 0.5061 -0.0068
vn 0.8680 0.4962 -0.0180
vn -0.8680 0.4962 -0.0180
vn 0.1696 0.8332 -0.5262
vn -0.0233 0.5810 -0.8136
vn 0.0602 0.6503 -0.7573
vn -0.0009 -0.1174 -0.9931
vn -0.0055 0.1814 -0.9834
vn 0.0055 0.1814 -0.9834
vn 0.2288 0.8641 0.4483
vn 0.3896 0.6057 0.6938
vn 0.5579 0.8188 0.1351
vn 0.0903 0.9630 0.2539
vn 0.0969 0.9953 0.0006
vn 0.1863 0.7699 -0.6103
vn -0.0000 0.8505 -0.5260
vn -0.0000 1.0000 0.0008
vn -0.0000 0.9260 0.3776
vn -0.1386 0.8799 0.4545
vn -0.1213 0.6496 0.7505
vn -0.0000 0.7179 0.6961
vn -0.4799 0.8342 0.2718
vn -0.1246 0.6766 0.7258
vn 0.1147 0.9493 -0.2927
vn 0.0515 0.6719 -0.7388
vn -0.0000 0.6724 -0.7402
vn 0.0000 0.9124 -0.4093
vn -0.0515 0.6719 -0.7389
vn -0.1147 0.9493 -0.2927
vn -0.0903 0.9630 0.2539
vn -0.2288 0.8641 0.4483
vn -0.0000 0.9990 0.0444
vn -0.0000 0.9416 0.3368
vn -0.0969 0.9953 0.0006
vn -0.5635 0.8261 -0.0005
vn 0.1386 0.8799 0.4545
vn 0.4799 0.8342 0.2718
vn 0.5635 0.8261 -0.0005
vn 0.5082 0.8498 -0.1397
vn 0.2703 0.6466 -0.7133
vn 0.1213 0.6496 0.7505
vn -0.5576 0.8190 0.1351
vn -0.3890 0.6058 0.6940
vn -0.2707 0.6449 -0.7147
vn -0.5070 0.8505 -0.1399
vn 0.1246 0.6766 0.7258
vn 0.0869 0.8406 0.5346
vn 0.1718 0.3354 -0.9263
vn -0.0000 0.4963 -0.8681
vn -0.0869 0.8406 0.5346
vn 0.0823 0.8532 0.5150
vn -0.0000 0.8155 0.5787
vn -0.0823 0.8532 0.5150
vn -0.1863 0.7699 -0.6103
vn -0.4685 0.7982 -0.3787
vn 0.4685 0.7982 -0.3787
vn 0.1376 0.3895 -0.9107
vn -0.1718 0.3354 -0.9263
vn -0.1376 0.3895 -0.9107
vn -0.0000 0.2847 0.9586
vn 0.0292 0.2846 0.9582
vn -0.0292 0.2846 0.9582
vn 0.0000 0.0000 0.0000
vn -0.8700 0.4931 0.0000
vn 0.8698 0.4933 0.0000
vn -0.8698 0.4934 0.0000
vn -0.1731 0.8376 -0.5181
vn 0.1731 0.8376 -0.5181
vn 0.0623 0.6516 -0.7560
vn -0.0623 0.6515 -0.7560
vn -0.0872 0.7266 0.6815
vn -0.0000 0.7357 0.6773
vn 0.0806 0.8140 0.5752
vn -0.0000 0.7990 0.6013
vn 0.1154 0.8338 0.5399
vn -0.0806 0.8140 0.5752
vn -0.1154 0.8338 0.5399
vn -0.0000 0.5384 -0.8427
vn -0.1377 0.5109 -0.8486
vn 0.1377 0.5109 -0.8486
vn 0.1943 0.4245 -0.8843
vn -0.1943 0.4245 -0.8843
vn -0.1561 0.7011 0.6958
vn 0.0872 0.7266 0.6815
vn 0.1561 0.7011 0.6958
vn -0.8742 0.4855 0.0065
vn 0.0000 0.0000 1.0000
vn -0.8625 0.5061 -0.0066
vn -0.8609 0.5087 0.0069
vn 0.8742 0.4855 0.0066
vn 0.8755 0.4831 -0.0066
vn 0.8642 0.5029 0.0183
vn 0.8610 0.5086 0.0068
vn 0.8681 0.4961 -0.0180
vn -0.8681 0.4961 -0.0180
vn -0.8707 0.4918 0.0040
vn -0.8658 0.5004 0.0038
vn -0.8647 0.5022 0.0105
vn -0.8686 0.4953 0.0115
vn 0.8658 0.5004 0.0038
vn 0.8707 0.4918 0.0040
vn 0.8686 0.4953 0.0115
vn 0.8647 0.5022 0.0105
vn -0.8668 0.4986 -0.0038
vn -0.8718 0.4898 -0.0038
vn -0.8708 0.4915 -0.0112
vn -0.8686 0.4953 -0.0123
vn -0.8669 0.4984 -0.0109
vn 0.8718 0.4898 -0.0038
vn 0.8668 0.4986 -0.0038
vn 0.8669 0.4984 -0.0109
vn 0.8708 0.4915 -0.0112
vn 0.1231 0.6500 -0.7499
vn 0.0000 0.6171 -0.7869
vn -0.1231 0.6500 -0.7499
vn -0.1294 0.7164 -0.6856
vn 0.1294 0.7164 -0.6856
vn -0.2657 0.5314 -0.8044
vn -0.4472 0.8944 0.0000
vn 0.2262 0.4524 0.8626
vn 0.2262 0.4524 -0.8626
vn 0.4472 0.8944 0.0000
vn 0.2657 0.5314 -0.8044
vn -0.8457 -0.4991 0.1889
vn 0.8457 -0.4991 0.1889
vn 0.8543 -0.5042 0.1260
vn 0.8543 -0.5042 -0.1260
vn -0.8460 -0.4993 -0.1872
vn -0.7994 0.1263 -0.5873
vn -0.9712 -0.0625 -0.2298
vn -0.6153 -0.7471 -0.2514
vn -0.4592 -0.8852 -0.0749
vn 0.8218 0.1475 0.5503
vn 0.9541 -0.1046 0.2808
vn 0.6271 -0.7330 0.2635
vn 0.4524 -0.8891 0.0699
vn 0.7994 0.1263 0.5873
vn 0.9967 -0.0814 -0.0000
vn 0.6472 -0.7623 0.0000
vn 0.4606 -0.8840 0.0798
vn -0.8201 0.1520 -0.5517
vn -0.9967 -0.0814 0.0000
vn -0.6472 -0.7623 -0.0000
vn -0.4588 -0.8854 -0.0750
vn 0.1995 0.9232 0.3284
vn -0.0000 0.9933 0.1156
vn -0.0000 0.7666 0.6421
vn 0.0818 0.7543 0.6514
vn 0.4459 -0.4201 -0.7904
vn 0.9712 -0.0625 -0.2298
vn 0.6153 -0.7471 -0.2514
vn -0.4459 -0.4201 -0.7904
vn 0.0000 -0.5032 -0.8642
vn 0.0000 -0.9669 -0.2553
vn 0.7952 0.3543 0.4920
vn 0.4231 0.6620 0.6187
vn -0.0000 -0.9767 0.2145
vn 0.0342 -0.9689 0.2449
vn 0.0907 -0.6414 0.7618
vn -0.0000 -0.6582 0.7528
vn -0.6271 -0.7330 0.2635
vn -0.0342 -0.9689 0.2449
vn -0.0907 -0.6414 0.7618
vn -0.4521 -0.5446 0.7065
vn 0.5444 -0.1299 0.8287
vn 0.1232 -0.1518 0.9807
vn 0.4521 -0.5446 0.7065
vn -0.0000 -0.1537 0.9881
vn -0.1232 -0.1518 0.9807
vn -0.5444 -0.1299 0.8287
vn 0.9546 0.0238 0.2968
vn 0.5430 0.1063 0.8330
vn -0.1995 0.9232 0.3284
vn -0.7952 0.3542 0.4920
vn -0.4231 0.6620 0.6187
vn -0.0818 0.7543 0.6514
vn -0.9541 -0.1046 0.2808
vn -0.9546 0.0238 0.2968
vn -0.5430 0.1063 0.8330
vn -0.1232 0.1518 0.9807
vn -0.0000 0.1537 0.9881
vn 0.1232 0.1518 0.9807
vn -0.9189 0.1649 -0.3584
vn -0.4515 0.5373 -0.7124
vn -0.0000 0.6611 -0.7503
vn 0.0935 0.6220 -0.7774
vn 0.4515 0.5373 -0.7124
vn 0.0000 0.5900 -0.8074
vn -0.0935 0.6220 -0.7774
vn 0.9189 0.1649 -0.3584
vn -0.8218 0.1475 0.5503
vn -0.4524 -0.8891 0.0699
vn 0.8201 0.1520 -0.5517
vn 0.4588 -0.8854 -0.0750
vn -0.9163 0.3625 0.1702
vn 0.7994 0.1263 -0.5873
vn 0.4606 -0.8840 -0.0798
vn -0.7994 0.1263 0.5873
vn -0.4592 -0.8852 0.0750
vn 0.9163 0.3625 0.1702
vn -0.9223 0.3429 0.1782
vn -0.7456 0.5352 0.3971
vn -0.7621 -0.1214 0.6359
vn -0.9223 0.3429 -0.1782
vn -0.7456 0.5352 -0.3971
vn 0.7660 -0.0929 0.6361
vn 0.7580 0.5485 0.3528
vn -0.7580 0.5485 0.3528
vn -0.7660 -0.0929 0.6361
vn -0.7621 -0.1214 -0.6359
vn -0.9894 -0.1360 -0.0515
vn -0.7660 -0.0929 -0.6361
vn 0.9894 -0.1360 -0.0515
vn 0.7660 -0.0929 -0.6361
vn 0.7510 -0.1062 -0.6517
vn 0.7510 -0.1062 0.6517
vn -0.9887 -0.1403 0.0526
vn -0.9887 -0.1403 -0.0526
vn 0.1478 0.2568 0.9551
vn -0.1478 0.2569 0.9551
vn 0.0000 -1.0000 -0.0000
usemtl Body.003
s off
f 1//1 2//1 3//1 4//1 5//1
f 6//2 7//2 8//2 9//2
f 10//3 11//3 12//3 13//3
f 14//4 15//4 16//4 17//4
f 18//5 19//5 20//5 21//5
f 22//6 23//6 24//6
f 22//7 24//7 25//7 7//7 26//7
f 27//8 28//8 29//8 30//8
f 7//9 6//9 31//9 32//9
f 33//10 10//10 13//10 34//10
f 35//11 36//11 37//11 38//11
f 39//11 40//11 41//11 42//11
f 43//12 44//12 45//12 46//12
f 47//12 48//12 49//12 50//12
f 24//13 23//13 51//13 52//13
f 53//14 41//14 40//14
f 23//15 54//15 55//15 51//15
f 49//16 56//16 57//16
f 58//11 59//11 60//11 38//11 37//11
f 61//11 62//11 59//11 58//11 37//11
f 54//17 63//17 64//17 55//17
f 53//18 65//18 66//18 67//18
f 68//19 41//19 69//19 70//19
f 63//20 24//20 52//20 64//20
f 41//21 53//21 67//21 69//21
f 65//22 68//22 70//22 66//22
f 35//23 71//23 4//23 15//23 19//23 36//23
f 15//24 4//24 3//24
f 36//25 19//25 28//25 53//25 40//25 39//25 72//25
f 26//26 7//26 11//26 73//26 48//26
f 74//27 6//27 9//27 75//27
f 25//28 74//28 75//28 76//28
f 7//29 25//29 76//29 8//29
f 77//30 11//30 78//30 79//30
f 11//29 7//29 32//29 80//29 81//29 78//29
f 18//31 27//31 30//31 82//31
f 19//32 18//32 82//32 83//32
f 28//33 19//33 83//33 29//33
f 15//34 14//34 84//34 85//34
f 14//35 18//35 21//35 84//35
f 86//16 87//16 88//16
f 89//12 90//12 91//12 46//12 45//12
f 22//12 92//12 93//12 23//12
f 72//11 39//11 42//11 61//11
f 36//11 72//11 61//11 37//11
f 92//12 43//12 46//12 93//12
f 94//12 47//12 50//12 95//12
f 4//11 71//11 96//11 88//11
f 77//36 79//36 97//36 98//36 31//36 6//36
f 44//12 94//12 95//12 45//12
f 19//33 15//33 85//33 20//33
f 71//11 35//11 38//11 96//11
f 15//37 99//37 100//37 16//37
f 11//38 77//38 101//38 12//38
f 99//39 33//39 34//39 100//39
f 5//40 48//40 73//40 102//40 1//40
f 49//41 48//41 5//41 103//41 56//41
f 4//42 88//42 87//42 103//42 5//42
f 95//12 104//12 90//12 89//12 45//12
f 96//11 105//11 106//11 86//11 88//11
f 50//12 49//12 57//12 107//12 108//12
s 1
f 65//43 53//44 28//45 109//46
f 110//47 111//48 112//49 113//50
f 114//51 115//52 116//53 117//54
f 115//52 74//55 118//56 116//53
f 99//57 2//58 1//59 33//60
f 102//61 10//62 33//60 1//59
f 119//63 63//64 120//65 121//66
f 115//52 122//67 6//68 74//55
f 123//69 110//47 113//50 114//51
f 27//70 18//71 110//47 123//69
f 15//72 3//73 2//58 99//57
f 123//69 114//51 117//54 124//74
f 120//65 65//43 109//46 121//66
f 114//51 113//50 122//67 115//52
f 25//75 24//76 63//64 119//63
f 73//77 11//78 10//62 102//61
f 28//45 27//70 125//79 126//80
f 112//49 111//48 127//81 128//82
f 74//55 25//75 129//83 118//56
f 121//66 109//46 130//84 131//85
f 119//63 121//66 131//85 132//86
f 109//46 28//45 126//80 130//84
f 25//75 119//63 132//86 129//83
f 27//70 123//69 124//74 125//79
f 122//67 133//87 77//88 6//68
f 18//71 14//89 111//48 110//47
f 113//50 112//49 133//87 122//67
f 111//48 14//89 17//90 127//81
f 77//88 133//87 134//91 101//92
f 133//87 112//49 128//82 134//91
f 135//93 136//93 137//94 138//94
f 139//95 140//95 136//93 135//93
usemtl Black.007
s off
f 80//96 32//96 141//96 142//96
f 8//97 76//97 143//97 144//97
f 29//98 83//98 145//98 146//98
f 78//96 81//96 147//96 148//96
f 148//99 147//99 142//99 141//99 149//99 150//99
f 81//96 80//96 142//96 147//96
f 20//98 85//98 151//98 152//98
f 12//38 101//38 153//38 154//38
f 17//4 16//4 155//4 156//4
f 13//100 12//100 154//100 157//100
f 16//101 100//101 158//101 155//101
f 100//102 34//102 159//102 158//102
f 34//103 13//103 157//103 159//103
s 1
f 117//54 116//53 160//104 161//105
f 131//85 130//84 162//106 163//107
f 130//84 126//80 164//108 162//106
f 129//83 132//86 165//109 166//110
f 134//91 128//82 167//111 168//112
f 128//82 127//81 169//113 167//111
f 127//81 17//90 156//114 169//113
f 101//92 134//91 168//112 153//115
f 116//53 118//56 170//116 160//104
f 125//79 124//74 171//117 172//118
f 124//74 117//54 161//105 171//117
f 118//56 129//83 166//110 170//116
f 126//80 125//79 172//118 164//108
f 132//86 131//85 163//107 165//109
usemtl Window.003
s off
f 9//119 8//119 144//119 173//119
f 79//120 78//120 148//120 174//120
f 32//120 31//120 175//120 141//120
f 97//120 79//120 174//120 176//120
f 141//9 175//9 177//9 149//9
f 174//121 148//121 150//121 178//121
f 75//27 9//27 173//27 179//27
f 76//122 75//122 179//122 143//122
f 83//123 82//123 180//123 145//123
f 85//34 84//34 181//34 151//34
f 21//124 20//124 152//124 182//124
f 82//125 30//125 183//125 180//125
f 30//126 29//126 146//126 183//126
f 98//120 97//120 176//120 184//120
f 84//127 21//127 182//127 181//127
f 31//120 98//120 184//120 175//120
f 175//128 184//128 185//128 177//128
f 184//128 176//128 174//128 178//128 185//128
s 1
f 144//129 143//130 179//131 173//132
f 146//133 145//134 180//135 183//136
f 150//137 149//138 177//139 185//140 178//141
f 152//142 151//143 181//144 182//145
f 158//146 159//147 167//111 169//113
f 157//148 154//149 153//115 168//112
f 155//150 158//146 169//113 156//114
f 159//147 157//148 168//112 167//111
f 162//106 164//108 172//118 171//117
f 165//109 163//107 161//105 160//104
f 163//107 162//106 171//117 161//105
f 166//110 165//109 160//104 170//116
usemtl Bumpers.003
s off
f 46//151 91//151 186//151 187//151
f 93//152 46//152 187//152 188//152
f 38//153 60//153 189//153 190//153
f 105//154 96//154 191//154 192//154
f 96//155 38//155 190//155 191//155
f 62//156 61//156 193//156 194//156
f 61//155 42//155 195//155 193//155
f 187//12 186//12 196//12 197//12
f 188//12 187//12 197//12 198//12
f 186//157 199//157 196//157
f 194//11 193//11 200//11 201//11
f 193//11 195//11 202//11 200//11
f 194//158 201//158 203//158
f 192//11 191//11 204//11 205//11
f 190//11 189//11 206//11 207//11
f 191//11 190//11 207//11 204//11
f 192//159 205//159 208//159
f 189//160 209//160 206//160
f 210//161 211//161 212//161
s 1
f 108//162 107//163 213//164 214//165
f 215//166 216//167 217//168 218//169
f 60//170 59//171 219//172 209//173
f 91//174 90//175 220//176 199//177
f 68//178 221//179 222//180 223//181
f 224//182 106//183 225//184
f 226//185 227//186 228//187 229//187
f 41//188 68//178 223//181 230//189
f 231//190 232//191 233//192 234//193
f 227//186 224//182 235//187 228//187
f 236//194 237//195 238//196 239//197
f 213//164 226//185 229//187
f 240//198 241//199 233//192 242//200
f 241//199 243//201 234//193 233//192
f 244//202 245//203 239//197 238//196
f 243//201 244//202 238//196 234//193
f 232//191 217//168 242//200 233//192
f 246//204 41//188 230//189 247//205
f 54//206 23//207 248//208 249//209
f 237//195 231//190 234//193 238//196
f 250//210 236//194 239//197 245//203
f 221//179 54//206 249//209 222//180
f 23//207 251//211 252//212 248//208
f 251//211 250//210 245//203 252//212
f 217//168 216//167 240//198 242//200
f 216//167 246//204 247//205 240//198
f 222//180 249//209 253//213 254//214
f 254//214 253//213 244//202 243//201
f 249//209 248//208 252//212 253//213
f 253//213 252//212 245//203 244//202
f 223//181 222//180 254//214 255//215
f 255//215 254//214 243//201 241//199
f 230//189 223//181 255//215 247//205
f 247//205 255//215 241//199 240//198
f 57//216 256//217 226//185 107//163
f 103//218 87//219 257//220 258//221
f 258//221 257//220 224//182 227//186
f 56//222 103//218 258//221 256//217
f 256//217 258//221 227//186 226//185
f 87//219 86//223 257//220
f 257//220 86//223 106//183 224//182
f 57//216 56//222 256//217
f 225//184 235//187 224//182
f 250//210 259//224 260//225 236//194
f 59//171 62//226 203//227 219//172
f 23//207 93//228 251//211
f 106//183 105//229 208//230 225//184
f 90//175 104//231 212//232 220//176
f 226//185 213//164 107//163
f 246//204 216//167 215//166 42//233
f 104//231 95//234 261//235 210//236
f 95//234 50//237 262//238 261//235
f 42//233 215//166 263//239 195//240
f 259//224 93//228 188//241 264//242
f 50//237 108//162 265//243 262//238
f 264//242 188//241 198//12 266//244
f 199//177 186//245 91//174
f 259//224 264//242 260//225
f 264//242 266//244 260//225
f 195//240 263//239 267//246 202//11
f 218//169 263//239 215//166
f 263//239 218//169 267//246
f 42//233 41//188 246//204
f 251//211 93//228 259//224 250//210
f 62//226 194//247 203//227
f 105//229 192//248 208//230
f 209//173 189//249 60//170
f 214//165 265//243 108//162
f 262//238 265//243 268//250 269//12
f 261//235 262//238 269//12 270//12
f 210//236 261//235 270//12 211//251
f 265//243 214//165 268//250
f 104//231 210//236 212//232
usemtl Lights.003
s off
f 66//252 70//252 69//252 67//252
f 52//253 51//253 55//253 64//253
usemtl Bottom.003
f 271//254 235//254 225//254 208//254
f 272//254 229//254 228//254 273//254
f 274//254 275//254 276//254 277//254
f 278//254 279//254 219//254 203//254
f 277//254 276//254 279//254 278//254
f 273//254 228//254 235//254 271//254
f 199//254 220//254 275//254 274//254
f 214//254 213//254 229//254 272//254
f 236//254 260//254 280//254 237//254
f 231//254 281//254 282//254 232//254
f 232//254 282//254 218//254 217//254
f 237//254 280//254 281//254 231//254
f 260//254 199//254 274//254 280//254
f 281//254 277//254 278//254 282//254
f 282//254 278//254 203//254 218//254
f 280//254 274//254 277//254 281//254
f 212//254 214//254 272//254 283//254
f 284//254 273//254 271//254 285//254
f 283//254 272//254 273//254 284//254
f 285//254 271//254 208//254 209//254
f 279//254 285//254 209//254 219//254
f 275//254 283//254 284//254 276//254
f 276//254 284//254 285//254 279//254
f 220//254 212//254 283//254 275//254
