# Blender v2.82 (sub 7) OBJ File: 'RaceTrack1.blend'
# www.blender.org
mtllib Raindrop.mtl
o Raindrop_pSphere6_lambert1_0.001
v 0.380528 -2.038552 -0.328276
v 0.460354 -2.041479 -0.171504
v -0.077089 -2.102344 0.002280
v 0.256196 -2.033993 -0.452692
v 0.099529 -2.028249 -0.532572
v -0.074139 -2.021880 -0.560096
v -0.247806 -2.015512 -0.532572
v -0.404473 -2.009768 -0.452692
v -0.528805 -2.005208 -0.328276
v -0.608631 -2.002281 -0.171504
v -0.636138 -2.001273 0.002280
v -0.608631 -2.002281 0.176064
v -0.528805 -2.005208 0.332837
v -0.404473 -2.009768 0.457253
v -0.247806 -2.015512 0.537132
v -0.074139 -2.021880 0.564657
v 0.099529 -2.028249 0.537132
v 0.256196 -2.033993 0.457252
v 0.380528 -2.038552 0.332837
v 0.460354 -2.041479 0.176064
v 0.487860 -2.042488 0.002280
v 1.082842 -0.035167 -0.798721
v 0.077090 2.102344 -0.056624
v 1.272928 -0.042138 -0.425406
v 0.786776 -0.024311 -1.094986
v 0.077090 2.102344 -0.056624
v 0.413712 -0.010631 -1.285199
v 0.077090 2.102344 -0.056624
v 0.786776 -0.024311 -1.094986
v 0.000167 0.004533 -1.350742
v 0.077090 2.102344 -0.056624
v -0.413379 0.019696 -1.285199
v 0.077090 2.102344 -0.056624
v -0.786443 0.033376 -1.094985
v 0.077090 2.102344 -0.056624
v -1.082508 0.044232 -0.798721
v 0.077090 2.102344 -0.056624
v -0.786443 0.033376 -1.094985
v -1.272594 0.051202 -0.425406
v 0.077090 2.102344 -0.056624
v -1.338094 0.053604 -0.011583
v 0.077090 2.102344 -0.056624
v -1.272594 0.051203 0.402240
v 0.077090 2.102344 -0.056624
v -1.082508 0.044232 0.775555
v 0.077090 2.102344 -0.056624
v 1.272927 -0.042137 0.402240
v 0.077090 2.102344 -0.056624
v 1.082841 -0.035168 0.775555
v 1.338426 -0.044540 -0.011583
v 0.077090 2.102344 -0.056624
v 0.077090 2.102344 -0.056624
v -0.786443 0.033376 1.071820
v 0.077090 2.102344 -0.056624
v -0.413378 0.019696 1.262033
v 0.077090 2.102344 -0.056624
v -0.786443 0.033376 1.071820
v 0.000166 0.004532 1.327577
v 0.077090 2.102344 -0.056624
v 0.413711 -0.010632 1.262033
v 0.077090 2.102344 -0.056624
v 0.786776 -0.024312 1.071820
v 0.077090 2.102344 -0.056624
v 0.077090 2.102344 -0.056624
v 0.786776 -0.024312 1.071820
v 0.799251 -1.820077 -0.626476
v 0.951090 -1.825644 -0.328276
v 0.562758 -1.811405 -0.863128
v 0.264759 -1.800478 -1.015069
v -0.065576 -1.788365 -1.067424
v -0.395911 -1.776252 -1.015069
v -0.693910 -1.765325 -0.863128
v -0.930404 -1.756653 -0.626476
v -1.082242 -1.751086 -0.328276
v -1.134561 -1.749167 0.002280
v -1.082242 -1.751086 0.332837
v -0.930403 -1.756653 0.631037
v -0.693910 -1.765325 0.867689
v -0.395911 -1.776252 1.019629
v -0.065576 -1.788365 1.071984
v 0.264759 -1.800478 1.019629
v 0.562758 -1.811405 0.867689
v 0.799251 -1.820077 0.631036
v 0.951089 -1.825644 0.332837
v 1.003409 -1.827563 0.002280
v 0.799251 -1.820077 -0.626476
v 1.138094 -1.468304 -0.863128
v 1.347081 -1.475968 -0.452692
v 0.951090 -1.825644 -0.328276
v 0.562758 -1.811405 -0.863128
v 0.812588 -1.456369 -1.188853
v 0.264759 -1.800478 -1.015069
v 0.402427 -1.441329 -1.397981
v 0.812588 -1.456369 -1.188853
v 0.562758 -1.811405 -0.863128
v -0.065576 -1.788365 -1.067424
v -0.052239 -1.424657 -1.470041
v -0.395911 -1.776252 -1.015069
v -0.506906 -1.407985 -1.397981
v -0.693910 -1.765325 -0.863128
v -0.917067 -1.392945 -1.188852
v -0.930404 -1.756653 -0.626476
v -1.242572 -1.381009 -0.863128
v -0.917067 -1.392945 -1.188852
v -0.693910 -1.765325 -0.863128
v -1.082242 -1.751086 -0.328276
v -1.451559 -1.373346 -0.452692
v -1.134561 -1.749167 0.002280
v -1.523572 -1.370705 0.002280
v -1.082242 -1.751086 0.332837
v -1.451559 -1.373346 0.457253
v -0.930403 -1.756653 0.631037
v -1.242572 -1.381009 0.867689
v -0.693910 -1.765325 0.867689
v -0.917067 -1.392945 1.193413
v -0.395911 -1.776252 1.019629
v -0.506906 -1.407985 1.402540
v -0.917067 -1.392945 1.193413
v -0.693910 -1.765325 0.867689
v -0.065576 -1.788365 1.071984
v -0.052239 -1.424657 1.474601
v 0.264759 -1.800478 1.019629
v 0.402427 -1.441329 1.402540
v 0.562758 -1.811405 0.867689
v 0.812588 -1.456369 1.193413
v 0.799251 -1.820077 0.631036
v 1.138093 -1.468304 0.867689
v 0.812588 -1.456369 1.193413
v 0.562758 -1.811405 0.867689
v 0.951089 -1.825644 0.332837
v 1.347080 -1.475968 0.457252
v 1.003409 -1.827563 0.002280
v 1.419092 -1.478608 0.002280
v 1.334550 -1.072100 -0.997498
v 1.575436 -1.080933 -0.524416
v 0.959362 -1.058343 -1.372939
v 0.486597 -1.041007 -1.613986
v 0.959362 -1.058343 -1.372939
v -0.037467 -1.021791 -1.697046
v -0.561531 -1.002574 -1.613986
v -1.034296 -0.985239 -1.372939
v -1.409484 -0.971481 -0.997498
v -1.034296 -0.985239 -1.372939
v -1.650369 -0.962648 -0.524416
v -1.733373 -0.959605 0.000000
v -1.650369 -0.962648 0.524417
v -1.409483 -0.971481 0.997499
v -1.034295 -0.985239 1.372939
v -0.561531 -1.002574 1.613987
v -1.034295 -0.985239 1.372939
v -0.037467 -1.021791 1.697046
v 0.486597 -1.041007 1.613986
v 0.959361 -1.058343 1.372939
v 1.334550 -1.072100 0.997499
v 0.959361 -1.058343 1.372939
v 1.575435 -1.080933 0.524416
v 1.658438 -1.083977 0.000000
v 1.285897 -0.573841 -0.954596
v 1.515049 -0.582244 -0.504559
v 0.928985 -0.560754 -1.311748
v 0.479249 -0.544263 -1.541054
v 0.928985 -0.560754 -1.311748
v -0.019287 -0.525982 -1.620068
v -0.517822 -0.507702 -1.541054
v -0.967557 -0.491211 -1.311748
v -1.324469 -0.478124 -0.954596
v -0.967557 -0.491211 -1.311748
v -1.553621 -0.469721 -0.504558
v -1.632581 -0.466826 -0.005688
v -1.553621 -0.469721 0.493183
v -1.324469 -0.478124 0.943220
v -0.967557 -0.491211 1.300372
v -0.517822 -0.507702 1.529678
v -0.967557 -0.491211 1.300372
v -0.019287 -0.525983 1.608691
v 0.479249 -0.544263 1.529678
v 0.928984 -0.560754 1.300372
v 1.285897 -0.573842 0.943220
v 0.928984 -0.560754 1.300372
v 1.515048 -0.582244 0.493183
v 1.594007 -0.585140 -0.005688
vt 0.694598 0.694044
vt 0.705072 0.673724
vt 0.635688 0.650820
vt 0.678358 0.710132
vt 0.657941 0.720415
vt 0.635346 0.723886
vt 0.612784 0.720204
vt 0.592465 0.709731
vt 0.576376 0.693491
vt 0.566093 0.673074
vt 0.562623 0.650478
vt 0.566304 0.627917
vt 0.576778 0.607597
vt 0.593018 0.591508
vt 0.613435 0.581225
vt 0.636030 0.577755
vt 0.658592 0.581437
vt 0.678911 0.591910
vt 0.695000 0.608150
vt 0.705283 0.628567
vt 0.708753 0.651162
vt 0.299634 0.312072
vt 0.625197 0.293299
vt 0.300604 0.254812
vt 0.303048 0.367739
vt 0.625267 0.322161
vt 0.413005 0.679617
vt 0.395116 1.003022
vt 0.468369 0.686633
vt 0.356571 0.675719
vt 0.360208 0.999535
vt 0.300001 0.676072
vt 0.332367 0.998673
vt 0.244298 0.679588
vt 0.297374 0.999970
vt 0.698552 0.458491
vt 0.372909 0.461846
vt 0.694076 0.514008
vt 0.698461 0.401343
vt 0.373402 0.433493
vt 0.697146 0.343336
vt 0.371988 0.386438
vt 0.695935 0.285139
vt 0.369799 0.330995
vt 0.694461 0.227522
vt 0.367653 0.275915
vt 0.304421 0.138492
vt 0.632795 0.133680
vt 0.306460 0.080885
vt 0.302621 0.196725
vt 0.630083 0.189328
vt 0.627249 0.245516
vt 0.690397 0.171423
vt 0.365113 0.231493
vt 0.080094 0.716070
vt 0.088013 0.386370
vt 0.025082 0.709968
vt 0.136298 0.717085
vt 0.114712 0.387764
vt 0.192525 0.717106
vt 0.164296 0.388216
vt 0.247660 0.712077
vt 0.191179 0.387300
vt 0.635782 0.089003
vt 0.311153 0.024839
vt 0.753258 0.736478
vt 0.773973 0.695955
vt 0.721034 0.768617
vt 0.680456 0.789225
vt 0.635495 0.796285
vt 0.590554 0.789106
vt 0.550030 0.768390
vt 0.517891 0.736166
vt 0.497283 0.695588
vt 0.490224 0.650627
vt 0.497403 0.605686
vt 0.518118 0.565162
vt 0.550342 0.533024
vt 0.590921 0.512416
vt 0.635881 0.505356
vt 0.680822 0.512535
vt 0.721346 0.533251
vt 0.753485 0.565475
vt 0.774092 0.606053
vt 0.781152 0.651013
vt 0.028980 0.291526
vt 0.097510 0.309750
vt 0.103896 0.251482
vt 0.034688 0.243822
vt 0.016302 0.334898
vt 0.083820 0.368717
vt 0.410941 0.407911
vt 0.421667 0.478510
vt 0.479962 0.469577
vt 0.455159 0.398767
vt 0.364329 0.409941
vt 0.362650 0.479656
vt 0.318005 0.406193
vt 0.303733 0.475191
vt 0.274917 0.394996
vt 0.245893 0.462630
vt 0.972407 0.439574
vt 0.902220 0.458251
vt 0.915080 0.517151
vt 0.985203 0.483971
vt 0.965888 0.391451
vt 0.896005 0.399866
vt 0.963345 0.342139
vt 0.893699 0.342156
vt 0.964352 0.293234
vt 0.895020 0.284711
vt 0.969974 0.246259
vt 0.901216 0.227220
vt 0.983056 0.203597
vt 0.915790 0.170397
vt 0.087024 0.988158
vt 0.075022 0.917822
vt 0.015239 0.926824
vt 0.042163 0.997718
vt 0.134560 0.985149
vt 0.134587 0.915426
vt 0.181954 0.987576
vt 0.194119 0.918443
vt 0.225977 0.997178
vt 0.254028 0.928400
vt 0.027834 0.098612
vt 0.098151 0.079057
vt 0.084191 0.022290
vt 0.014497 0.055194
vt 0.034218 0.145822
vt 0.104341 0.136518
vt 0.036217 0.194716
vt 0.105957 0.193888
vt 0.157187 0.318931
vt 0.162001 0.255522
vt 0.149625 0.385788
vt 0.425934 0.537866
vt 0.493043 0.533727
vt 0.360881 0.538375
vt 0.295927 0.534035
vt 0.229104 0.525744
vt 0.842012 0.467124
vt 0.848490 0.533929
vt 0.837669 0.403809
vt 0.835753 0.342090
vt 0.836784 0.280483
vt 0.841557 0.217552
vt 0.851220 0.151595
vt 0.069947 0.858707
vt 0.002467 0.861553
vt 0.134989 0.858505
vt 0.200082 0.859586
vt 0.267618 0.863614
vt 0.158333 0.069508
vt 0.149317 0.003616
vt 0.162907 0.132280
vt 0.163973 0.193789
vt 0.222343 0.319743
vt 0.225056 0.256773
vt 0.222224 0.384258
vt 0.423234 0.602459
vt 0.488867 0.605633
vt 0.358942 0.600794
vt 0.294642 0.598543
vt 0.228892 0.597621
vt 0.776323 0.467303
vt 0.775298 0.531667
vt 0.774317 0.404477
vt 0.772800 0.342521
vt 0.773014 0.280490
vt 0.774904 0.217363
vt 0.776066 0.151873
vt 0.071610 0.793896
vt 0.007004 0.790150
vt 0.135546 0.794864
vt 0.199533 0.794924
vt 0.264256 0.792376
vt 0.225526 0.069793
vt 0.225027 0.004395
vt 0.227025 0.132787
vt 0.226961 0.194759
vn 0.2559 -0.9434 -0.2109
vn 0.3068 -0.9453 -0.1109
vn -0.0366 -0.9993 -0.0000
vn 0.1766 -0.9405 -0.2903
vn 0.0766 -0.9368 -0.3413
vn -0.0342 -0.9328 -0.3588
vn -0.1450 -0.9287 -0.3413
vn -0.2450 -0.9250 -0.2903
vn -0.3243 -0.9221 -0.2109
vn -0.3752 -0.9203 -0.1109
vn -0.3928 -0.9196 0.0000
vn -0.3752 -0.9203 0.1109
vn -0.3243 -0.9221 0.2109
vn -0.2450 -0.9250 0.2903
vn -0.1450 -0.9287 0.3413
vn -0.0342 -0.9328 0.3589
vn 0.0766 -0.9368 0.3413
vn 0.1766 -0.9405 0.2903
vn 0.2559 -0.9434 0.2109
vn 0.3069 -0.9453 0.1109
vn 0.3244 -0.9459 -0.0000
vn 0.7175 0.4771 -0.5075
vn 0.0366 0.9993 -0.0076
vn 0.8384 0.4758 -0.2659
vn 0.5272 0.4816 -0.7001
vn 0.0366 0.9993 -0.0077
vn 0.2861 0.4888 -0.8241
vn 0.0367 0.9993 -0.0076
vn 0.0183 0.4981 -0.8669
vn -0.2496 0.5084 -0.8241
vn -0.4905 0.5189 -0.7001
vn -0.6806 0.5284 -0.5075
vn 0.0367 0.9993 -0.0077
vn -0.8013 0.5360 -0.2659
vn -0.8411 0.5409 0.0007
vn -0.7968 0.5426 0.2659
vn -0.6732 0.5412 0.5039
vn 0.8344 0.4828 0.2659
vn 0.7110 0.4904 0.5039
vn 0.8785 0.4778 0.0007
vn -0.4829 0.5366 0.6920
vn -0.2445 0.5294 0.8124
vn 0.0191 0.5203 0.8538
vn 0.2826 0.5101 0.8124
vn 0.5209 0.4998 0.6920
vn 0.4443 -0.8269 -0.3446
vn 0.5275 -0.8300 -0.1812
vn 0.3147 -0.8222 -0.4743
vn 0.1514 -0.8162 -0.5576
vn -0.0297 -0.8095 -0.5863
vn -0.2107 -0.8029 -0.5576
vn -0.3741 -0.7969 -0.4743
vn -0.5037 -0.7922 -0.3446
vn -0.5869 -0.7891 -0.1812
vn -0.6156 -0.7881 -0.0000
vn -0.5869 -0.7891 0.1812
vn -0.5037 -0.7922 0.3446
vn -0.3741 -0.7969 0.4743
vn -0.2107 -0.8029 0.5576
vn -0.0297 -0.8095 0.5863
vn 0.1514 -0.8162 0.5576
vn 0.3147 -0.8222 0.4743
vn 0.4443 -0.8269 0.3446
vn 0.5275 -0.8300 0.1812
vn 0.5562 -0.8310 -0.0000
vn 0.6172 -0.6349 -0.4648
vn 0.7298 -0.6385 -0.2443
vn 0.5276 -0.8300 -0.1812
vn 0.4421 -0.6288 -0.6396
vn 0.2217 -0.6210 -0.7518
vn -0.0224 -0.6121 -0.7905
vn -0.2666 -0.6031 -0.7518
vn -0.4870 -0.5947 -0.6396
vn -0.6620 -0.5880 -0.4648
vn -0.4870 -0.5948 -0.6396
vn -0.7746 -0.5833 -0.2443
vn -0.8136 -0.5814 0.0002
vn -0.7752 -0.5823 0.2450
vn -0.6630 -0.5860 0.4660
vn -0.4879 -0.5920 0.6415
vn -0.2671 -0.5999 0.7542
vn -0.0223 -0.6087 0.7931
vn 0.2225 -0.6178 0.7542
vn 0.4432 -0.6261 0.6415
vn 0.6183 -0.6329 0.4660
vn 0.4433 -0.6261 0.6415
vn 0.5276 -0.8300 0.1812
vn 0.7304 -0.6375 0.2450
vn 0.7689 -0.6394 0.0002
vn 0.7944 -0.1769 -0.5811
vn 0.9351 -0.1797 -0.3054
vn 0.5755 -0.1708 -0.7998
vn 0.2999 -0.1619 -0.9401
vn -0.0055 -0.1511 -0.9885
vn -0.3109 -0.1394 -0.9401
vn -0.5865 -0.1282 -0.7998
vn -0.8052 -0.1183 -0.5811
vn -0.9458 -0.1108 -0.3053
vn -0.9943 -0.1064 0.0004
vn -0.9461 -0.1055 0.3064
vn -0.8056 -0.1083 0.5825
vn -0.5867 -0.1145 0.8016
vn -0.3108 -0.1234 0.9424
vn -0.5867 -0.1145 0.8017
vn -0.0049 -0.1342 0.9909
vn 0.3009 -0.1458 0.9424
vn 0.5768 -0.1572 0.8017
vn 0.7955 -0.1670 0.5825
vn 0.9358 -0.1745 0.3064
vn 0.9839 -0.1789 0.0004
vn 0.7799 0.2819 -0.5588
vn 0.9141 0.2795 -0.2936
vn 0.5701 0.2874 -0.7697
vn 0.3051 0.2957 -0.9052
vn 0.0112 0.3061 -0.9519
vn -0.2827 0.3173 -0.9052
vn -0.5475 0.3284 -0.7697
vn -0.7572 0.3382 -0.5589
vn -0.8912 0.3458 -0.2936
vn -0.9366 0.3504 -0.0001
vn -0.8892 0.3516 0.2928
vn -0.7539 0.3492 0.5565
vn -0.5440 0.3437 0.7655
vn -0.2802 0.3353 0.8995
vn -0.5440 0.3436 0.7655
vn 0.0119 0.3250 0.9456
vn 0.3040 0.3139 0.8995
vn 0.5677 0.3029 0.7655
vn 0.7774 0.2931 0.5565
vn 0.9126 0.2855 0.2928
vn 0.9598 0.2808 -0.0001
usemtl lambert1.001
s 1
f 1/1/1 2/2/2 3/3/3
f 4/4/4 1/1/1 3/3/3
f 5/5/5 4/4/4 3/3/3
f 6/6/6 5/5/5 3/3/3
f 7/7/7 6/6/6 3/3/3
f 8/8/8 7/7/7 3/3/3
f 9/9/9 8/8/8 3/3/3
f 10/10/10 9/9/9 3/3/3
f 11/11/11 10/10/10 3/3/3
f 12/12/12 11/11/11 3/3/3
f 13/13/13 12/12/12 3/3/3
f 14/14/14 13/13/13 3/3/3
f 15/15/15 14/14/14 3/3/3
f 16/16/16 15/15/15 3/3/3
f 17/17/17 16/16/16 3/3/3
f 18/18/18 17/17/17 3/3/3
f 19/19/19 18/18/18 3/3/3
f 20/20/20 19/19/19 3/3/3
f 21/21/21 20/20/20 3/3/3
f 2/2/2 21/21/21 3/3/3
f 22/22/22 23/23/23 24/24/24
f 25/25/25 26/26/26 22/22/22
f 27/27/27 28/28/28 29/29/25
f 30/30/29 31/31/23 27/27/27
f 32/32/30 33/33/28 30/30/29
f 34/34/31 35/35/23 32/32/30
f 36/36/32 37/37/33 38/38/31
f 39/39/34 40/40/28 36/36/32
f 41/41/35 42/42/26 39/39/34
f 43/43/36 44/44/28 41/41/35
f 45/45/37 46/46/23 43/43/36
f 47/47/38 48/48/28 49/49/39
f 50/50/40 51/51/23 47/47/38
f 24/24/24 52/52/26 50/50/40
f 53/53/41 54/54/33 45/45/37
f 55/55/42 56/56/28 57/57/41
f 58/58/43 59/59/33 55/55/42
f 60/60/44 61/61/26 58/58/43
f 62/62/45 63/63/23 60/60/44
f 49/49/39 64/64/28 65/65/45
f 1/1/1 66/66/46 67/67/47
f 1/1/1 67/67/47 2/2/2
f 4/4/4 68/68/48 66/66/46
f 4/4/4 66/66/46 1/1/1
f 5/5/5 69/69/49 68/68/48
f 5/5/5 68/68/48 4/4/4
f 6/6/6 70/70/50 69/69/49
f 6/6/6 69/69/49 5/5/5
f 7/7/7 71/71/51 70/70/50
f 7/7/7 70/70/50 6/6/6
f 8/8/8 72/72/52 71/71/51
f 8/8/8 71/71/51 7/7/7
f 9/9/9 73/73/53 72/72/52
f 9/9/9 72/72/52 8/8/8
f 10/10/10 74/74/54 73/73/53
f 10/10/10 73/73/53 9/9/9
f 11/11/11 75/75/55 74/74/54
f 11/11/11 74/74/54 10/10/10
f 12/12/12 76/76/56 75/75/55
f 12/12/12 75/75/55 11/11/11
f 13/13/13 77/77/57 76/76/56
f 13/13/13 76/76/56 12/12/12
f 14/14/14 78/78/58 77/77/57
f 14/14/14 77/77/57 13/13/13
f 15/15/15 79/79/59 78/78/58
f 15/15/15 78/78/58 14/14/14
f 16/16/16 80/80/60 79/79/59
f 16/16/16 79/79/59 15/15/15
f 17/17/17 81/81/61 80/80/60
f 17/17/17 80/80/60 16/16/16
f 18/18/18 82/82/62 81/81/61
f 18/18/18 81/81/61 17/17/17
f 19/19/19 83/83/63 82/82/62
f 19/19/19 82/82/62 18/18/18
f 20/20/20 84/84/64 83/83/63
f 20/20/20 83/83/63 19/19/19
f 21/21/21 85/85/65 84/84/64
f 21/21/21 84/84/64 20/20/20
f 2/2/2 67/67/47 85/85/65
f 2/2/2 85/85/65 21/21/21
f 86/86/46 87/87/66 88/88/67
f 86/86/46 88/88/67 89/89/68
f 90/90/48 91/91/69 87/87/66
f 90/90/48 87/87/66 86/86/46
f 92/92/49 93/93/70 94/94/69
f 92/92/49 94/94/69 95/95/48
f 96/96/50 97/97/71 93/93/70
f 96/96/50 93/93/70 92/92/49
f 98/98/51 99/99/72 97/97/71
f 98/98/51 97/97/71 96/96/50
f 100/100/52 101/101/73 99/99/72
f 100/100/52 99/99/72 98/98/51
f 102/102/53 103/103/74 104/104/75
f 102/102/53 104/104/75 105/105/52
f 106/106/54 107/107/76 103/103/74
f 106/106/54 103/103/74 102/102/53
f 108/108/55 109/109/77 107/107/76
f 108/108/55 107/107/76 106/106/54
f 110/110/56 111/111/78 109/109/77
f 110/110/56 109/109/77 108/108/55
f 112/112/57 113/113/79 111/111/78
f 112/112/57 111/111/78 110/110/56
f 114/114/58 115/115/80 113/113/79
f 114/114/58 113/113/79 112/112/57
f 116/116/59 117/117/81 118/118/80
f 116/116/59 118/118/80 119/119/58
f 120/120/60 121/121/82 117/117/81
f 120/120/60 117/117/81 116/116/59
f 122/122/61 123/123/83 121/121/82
f 122/122/61 121/121/82 120/120/60
f 124/124/62 125/125/84 123/123/83
f 124/124/62 123/123/83 122/122/61
f 126/126/63 127/127/85 128/128/86
f 126/126/63 128/128/86 129/129/62
f 130/130/87 131/131/88 127/127/85
f 130/130/87 127/127/85 126/126/63
f 132/132/65 133/133/89 131/131/88
f 132/132/65 131/131/88 130/130/87
f 89/89/68 88/88/67 133/133/89
f 89/89/68 133/133/89 132/132/65
f 88/88/67 87/87/66 134/134/90
f 88/88/67 134/134/90 135/135/91
f 87/87/66 91/91/69 136/136/92
f 87/87/66 136/136/92 134/134/90
f 94/94/69 93/93/70 137/137/93
f 94/94/69 137/137/93 138/138/92
f 93/93/70 97/97/71 139/139/94
f 93/93/70 139/139/94 137/137/93
f 97/97/71 99/99/72 140/140/95
f 97/97/71 140/140/95 139/139/94
f 99/99/72 101/101/73 141/141/96
f 99/99/72 141/141/96 140/140/95
f 104/104/75 103/103/74 142/142/97
f 104/104/75 142/142/97 143/143/96
f 103/103/74 107/107/76 144/144/98
f 103/103/74 144/144/98 142/142/97
f 107/107/76 109/109/77 145/145/99
f 107/107/76 145/145/99 144/144/98
f 109/109/77 111/111/78 146/146/100
f 109/109/77 146/146/100 145/145/99
f 111/111/78 113/113/79 147/147/101
f 111/111/78 147/147/101 146/146/100
f 113/113/79 115/115/80 148/148/102
f 113/113/79 148/148/102 147/147/101
f 118/118/80 117/117/81 149/149/103
f 118/118/80 149/149/103 150/150/104
f 117/117/81 121/121/82 151/151/105
f 117/117/81 151/151/105 149/149/103
f 121/121/82 123/123/83 152/152/106
f 121/121/82 152/152/106 151/151/105
f 123/123/83 125/125/84 153/153/107
f 123/123/83 153/153/107 152/152/106
f 128/128/86 127/127/85 154/154/108
f 128/128/86 154/154/108 155/155/107
f 127/127/85 131/131/88 156/156/109
f 127/127/85 156/156/109 154/154/108
f 131/131/88 133/133/89 157/157/110
f 131/131/88 157/157/110 156/156/109
f 133/133/89 88/88/67 135/135/91
f 133/133/89 135/135/91 157/157/110
f 135/135/91 134/134/90 158/158/111
f 135/135/91 158/158/111 159/159/112
f 134/134/90 136/136/92 160/160/113
f 134/134/90 160/160/113 158/158/111
f 138/138/92 137/137/93 161/161/114
f 138/138/92 161/161/114 162/162/113
f 137/137/93 139/139/94 163/163/115
f 137/137/93 163/163/115 161/161/114
f 139/139/94 140/140/95 164/164/116
f 139/139/94 164/164/116 163/163/115
f 140/140/95 141/141/96 165/165/117
f 140/140/95 165/165/117 164/164/116
f 143/143/96 142/142/97 166/166/118
f 143/143/96 166/166/118 167/167/117
f 142/142/97 144/144/98 168/168/119
f 142/142/97 168/168/119 166/166/118
f 144/144/98 145/145/99 169/169/120
f 144/144/98 169/169/120 168/168/119
f 145/145/99 146/146/100 170/170/121
f 145/145/99 170/170/121 169/169/120
f 146/146/100 147/147/101 171/171/122
f 146/146/100 171/171/122 170/170/121
f 147/147/101 148/148/102 172/172/123
f 147/147/101 172/172/123 171/171/122
f 150/150/104 149/149/103 173/173/124
f 150/150/104 173/173/124 174/174/125
f 149/149/103 151/151/105 175/175/126
f 149/149/103 175/175/126 173/173/124
f 151/151/105 152/152/106 176/176/127
f 151/151/105 176/176/127 175/175/126
f 152/152/106 153/153/107 177/177/128
f 152/152/106 177/177/128 176/176/127
f 155/155/107 154/154/108 178/178/129
f 155/155/107 178/178/129 179/179/128
f 154/154/108 156/156/109 180/180/130
f 154/154/108 180/180/130 178/178/129
f 156/156/109 157/157/110 181/181/131
f 156/156/109 181/181/131 180/180/130
f 157/157/110 135/135/91 159/159/112
f 157/157/110 159/159/112 181/181/131
f 179/179/128 178/178/129 49/49/39
f 179/179/128 49/49/39 65/65/45
f 176/176/127 177/177/128 62/62/45
f 176/176/127 62/62/45 60/60/44
f 175/175/126 176/176/127 60/60/44
f 175/175/126 60/60/44 58/58/43
f 173/173/124 175/175/126 58/58/43
f 173/173/124 58/58/43 55/55/42
f 174/174/125 173/173/124 55/55/42
f 174/174/125 55/55/42 57/57/41
f 171/171/122 172/172/123 53/53/41
f 171/171/122 53/53/41 45/45/37
f 170/170/121 171/171/122 45/45/37
f 170/170/121 45/45/37 43/43/36
f 169/169/120 170/170/121 43/43/36
f 169/169/120 43/43/36 41/41/35
f 168/168/119 169/169/120 41/41/35
f 168/168/119 41/41/35 39/39/34
f 166/166/118 168/168/119 39/39/34
f 166/166/118 39/39/34 36/36/32
f 167/167/117 166/166/118 36/36/32
f 167/167/117 36/36/32 38/38/31
f 164/164/116 165/165/117 34/34/31
f 164/164/116 34/34/31 32/32/30
f 163/163/115 164/164/116 32/32/30
f 163/163/115 32/32/30 30/30/29
f 161/161/114 163/163/115 30/30/29
f 161/161/114 30/30/29 27/27/27
f 162/162/113 161/161/114 27/27/27
f 162/162/113 27/27/27 29/29/25
f 158/158/111 160/160/113 25/25/25
f 158/158/111 25/25/25 22/22/22
f 159/159/112 158/158/111 22/22/22
f 159/159/112 22/22/22 24/24/24
f 181/181/131 159/159/112 24/24/24
f 181/181/131 24/24/24 50/50/40
f 180/180/130 181/181/131 50/50/40
f 180/180/130 50/50/40 47/47/38
f 178/178/129 180/180/130 47/47/38
f 178/178/129 47/47/38 49/49/39
